G04*
G04 #@! TF.GenerationSoftware,Altium Limited,Altium Designer,18.1.9 (240)*
G04*
G04 Layer_Color=128*
%FSLAX25Y25*%
%MOIN*%
G70*
G01*
G75*
%ADD79C,0.00200*%
D79*
X89117Y26925D02*
X92267D01*
X90692Y25350D02*
Y28500D01*
X123133Y26925D02*
X126283D01*
X124708Y25350D02*
Y28500D01*
X123133Y10468D02*
X126283D01*
X124708Y8894D02*
Y12043D01*
X89117Y10468D02*
X92267D01*
X90692Y8894D02*
Y12043D01*
X117602Y24838D02*
X120554D01*
X119078Y23362D02*
Y26315D01*
X94846Y24838D02*
X97798D01*
X96322Y23362D02*
Y26315D01*
X162400Y348000D02*
X163600D01*
X163000Y347400D02*
Y348600D01*
X166900Y339000D02*
X168100D01*
X167500Y338400D02*
Y339600D01*
X166900Y321000D02*
X168100D01*
X167500Y320400D02*
Y321600D01*
X162400Y312000D02*
X163600D01*
X163000Y311400D02*
Y312600D01*
X166900Y303000D02*
X168100D01*
X167500Y302400D02*
Y303600D01*
X162400Y294000D02*
X163600D01*
X163000Y293400D02*
Y294600D01*
X166900Y285000D02*
X168100D01*
X167500Y284400D02*
Y285600D01*
X162400Y276000D02*
X163600D01*
X163000Y275400D02*
Y276600D01*
X166900Y231000D02*
X168100D01*
X167500Y230400D02*
Y231600D01*
X162400Y222000D02*
X163600D01*
X163000Y221400D02*
Y222600D01*
X166900Y213000D02*
X168100D01*
X167500Y212400D02*
Y213600D01*
X162400Y204000D02*
X163600D01*
X163000Y203400D02*
Y204600D01*
X166900Y195000D02*
X168100D01*
X167500Y194400D02*
Y195600D01*
X162400Y186000D02*
X163600D01*
X163000Y185400D02*
Y186600D01*
X166900Y177000D02*
X168100D01*
X167500Y176400D02*
Y177600D01*
X162400Y168000D02*
X163600D01*
X163000Y167400D02*
Y168600D01*
X166900Y159000D02*
X168100D01*
X167500Y158400D02*
Y159600D01*
X162400Y150000D02*
X163600D01*
X163000Y149400D02*
Y150600D01*
X166900Y141000D02*
X168100D01*
X167500Y140400D02*
Y141600D01*
X162400Y132000D02*
X163600D01*
X163000Y131400D02*
Y132600D01*
X166900Y33000D02*
X168100D01*
X167500Y32400D02*
Y33600D01*
X157900Y321000D02*
X159100D01*
X158500Y320400D02*
Y321600D01*
X153400Y312000D02*
X154600D01*
X154000Y311400D02*
Y312600D01*
X157900Y303000D02*
X159100D01*
X158500Y302400D02*
Y303600D01*
X153400Y294000D02*
X154600D01*
X154000Y293400D02*
Y294600D01*
X157900Y285000D02*
X159100D01*
X158500Y284400D02*
Y285600D01*
X153400Y276000D02*
X154600D01*
X154000Y275400D02*
Y276600D01*
X153400Y222000D02*
X154600D01*
X154000Y221400D02*
Y222600D01*
X157900Y213000D02*
X159100D01*
X158500Y212400D02*
Y213600D01*
X153400Y204000D02*
X154600D01*
X154000Y203400D02*
Y204600D01*
X157900Y195000D02*
X159100D01*
X158500Y194400D02*
Y195600D01*
X153400Y186000D02*
X154600D01*
X154000Y185400D02*
Y186600D01*
X157900Y177000D02*
X159100D01*
X158500Y176400D02*
Y177600D01*
X153400Y168000D02*
X154600D01*
X154000Y167400D02*
Y168600D01*
X157900Y159000D02*
X159100D01*
X158500Y158400D02*
Y159600D01*
X157900Y141000D02*
X159100D01*
X158500Y140400D02*
Y141600D01*
X157900Y51000D02*
X159100D01*
X158500Y50400D02*
Y51600D01*
X148900Y321000D02*
X150100D01*
X149500Y320400D02*
Y321600D01*
X144400Y312000D02*
X145600D01*
X145000Y311400D02*
Y312600D01*
X148900Y303000D02*
X150100D01*
X149500Y302400D02*
Y303600D01*
X144400Y294000D02*
X145600D01*
X145000Y293400D02*
Y294600D01*
X148900Y285000D02*
X150100D01*
X149500Y284400D02*
Y285600D01*
X148900Y213000D02*
X150100D01*
X149500Y212400D02*
Y213600D01*
X144400Y204000D02*
X145600D01*
X145000Y203400D02*
Y204600D01*
X148900Y195000D02*
X150100D01*
X149500Y194400D02*
Y195600D01*
X144400Y186000D02*
X145600D01*
X145000Y185400D02*
Y186600D01*
X148900Y177000D02*
X150100D01*
X149500Y176400D02*
Y177600D01*
X144400Y168000D02*
X145600D01*
X145000Y167400D02*
Y168600D01*
X148900Y51000D02*
X150100D01*
X149500Y50400D02*
Y51600D01*
X144400Y42000D02*
X145600D01*
X145000Y41400D02*
Y42600D01*
X135400Y348000D02*
X136600D01*
X136000Y347400D02*
Y348600D01*
X135400Y330000D02*
X136600D01*
X136000Y329400D02*
Y330600D01*
X139900Y321000D02*
X141100D01*
X140500Y320400D02*
Y321600D01*
X135400Y312000D02*
X136600D01*
X136000Y311400D02*
Y312600D01*
X139900Y303000D02*
X141100D01*
X140500Y302400D02*
Y303600D01*
X135400Y294000D02*
X136600D01*
X136000Y293400D02*
Y294600D01*
X139900Y195000D02*
X141100D01*
X140500Y194400D02*
Y195600D01*
X135400Y186000D02*
X136600D01*
X136000Y185400D02*
Y186600D01*
X139900Y177000D02*
X141100D01*
X140500Y176400D02*
Y177600D01*
X135400Y42000D02*
X136600D01*
X136000Y41400D02*
Y42600D01*
X135400Y6000D02*
X136600D01*
X136000Y5400D02*
Y6600D01*
X126400Y348000D02*
X127600D01*
X127000Y347400D02*
Y348600D01*
X130900Y339000D02*
X132100D01*
X131500Y338400D02*
Y339600D01*
X130900Y303000D02*
X132100D01*
X131500Y302400D02*
Y303600D01*
X126400Y294000D02*
X127600D01*
X127000Y293400D02*
Y294600D01*
X130900Y195000D02*
X132100D01*
X131500Y194400D02*
Y195600D01*
X126400Y186000D02*
X127600D01*
X127000Y185400D02*
Y186600D01*
X126400Y150000D02*
X127600D01*
X127000Y149400D02*
Y150600D01*
X130900Y15000D02*
X132100D01*
X131500Y14400D02*
Y15600D01*
X121900Y339000D02*
X123100D01*
X122500Y338400D02*
Y339600D01*
X121900Y303000D02*
X123100D01*
X122500Y302400D02*
Y303600D01*
X117400Y294000D02*
X118600D01*
X118000Y293400D02*
Y294600D01*
X121900Y195000D02*
X123100D01*
X122500Y194400D02*
Y195600D01*
X117400Y186000D02*
X118600D01*
X118000Y185400D02*
Y186600D01*
X117400Y6000D02*
X118600D01*
X118000Y5400D02*
Y6600D01*
X112900Y303000D02*
X114100D01*
X113500Y302400D02*
Y303600D01*
X108400Y294000D02*
X109600D01*
X109000Y293400D02*
Y294600D01*
X108400Y204000D02*
X109600D01*
X109000Y203400D02*
Y204600D01*
X112900Y195000D02*
X114100D01*
X113500Y194400D02*
Y195600D01*
X108400Y186000D02*
X109600D01*
X109000Y185400D02*
Y186600D01*
X108400Y6000D02*
X109600D01*
X109000Y5400D02*
Y6600D01*
X99400Y312000D02*
X100600D01*
X100000Y311400D02*
Y312600D01*
X103900Y303000D02*
X105100D01*
X104500Y302400D02*
Y303600D01*
X99400Y294000D02*
X100600D01*
X100000Y293400D02*
Y294600D01*
X103900Y285000D02*
X105100D01*
X104500Y284400D02*
Y285600D01*
X99400Y276000D02*
X100600D01*
X100000Y275400D02*
Y276600D01*
X103900Y213000D02*
X105100D01*
X104500Y212400D02*
Y213600D01*
X99400Y204000D02*
X100600D01*
X100000Y203400D02*
Y204600D01*
X99400Y6000D02*
X100600D01*
X100000Y5400D02*
Y6600D01*
X94900Y303000D02*
X96100D01*
X95500Y302400D02*
Y303600D01*
X90400Y294000D02*
X91600D01*
X91000Y293400D02*
Y294600D01*
X94900Y267000D02*
X96100D01*
X95500Y266400D02*
Y267600D01*
X90400Y258000D02*
X91600D01*
X91000Y257400D02*
Y258600D01*
X90400Y222000D02*
X91600D01*
X91000Y221400D02*
Y222600D01*
X94900Y213000D02*
X96100D01*
X95500Y212400D02*
Y213600D01*
X94900Y105000D02*
X96100D01*
X95500Y104400D02*
Y105600D01*
X94900Y51000D02*
X96100D01*
X95500Y50400D02*
Y51600D01*
X90400Y42000D02*
X91600D01*
X91000Y41400D02*
Y42600D01*
X81400Y348000D02*
X82600D01*
X82000Y347400D02*
Y348600D01*
X85900Y303000D02*
X87100D01*
X86500Y302400D02*
Y303600D01*
X81400Y294000D02*
X82600D01*
X82000Y293400D02*
Y294600D01*
X85900Y33000D02*
X87100D01*
X86500Y32400D02*
Y33600D01*
X81400Y6000D02*
X82600D01*
X82000Y5400D02*
Y6600D01*
X72400Y348000D02*
X73600D01*
X73000Y347400D02*
Y348600D01*
X76900Y339000D02*
X78100D01*
X77500Y338400D02*
Y339600D01*
X72400Y330000D02*
X73600D01*
X73000Y329400D02*
Y330600D01*
X76900Y303000D02*
X78100D01*
X77500Y302400D02*
Y303600D01*
X72400Y294000D02*
X73600D01*
X73000Y293400D02*
Y294600D01*
X72400Y6000D02*
X73600D01*
X73000Y5400D02*
Y6600D01*
X63400Y348000D02*
X64600D01*
X64000Y347400D02*
Y348600D01*
X67900Y339000D02*
X69100D01*
X68500Y338400D02*
Y339600D01*
X67900Y321000D02*
X69100D01*
X68500Y320400D02*
Y321600D01*
X63400Y312000D02*
X64600D01*
X64000Y311400D02*
Y312600D01*
X67900Y303000D02*
X69100D01*
X68500Y302400D02*
Y303600D01*
X63400Y294000D02*
X64600D01*
X64000Y293400D02*
Y294600D01*
X63400Y96000D02*
X64600D01*
X64000Y95400D02*
Y96600D01*
X58900Y321000D02*
X60100D01*
X59500Y320400D02*
Y321600D01*
X54400Y312000D02*
X55600D01*
X55000Y311400D02*
Y312600D01*
X58900Y303000D02*
X60100D01*
X59500Y302400D02*
Y303600D01*
X54400Y294000D02*
X55600D01*
X55000Y293400D02*
Y294600D01*
X58900Y285000D02*
X60100D01*
X59500Y284400D02*
Y285600D01*
X54400Y276000D02*
X55600D01*
X55000Y275400D02*
Y276600D01*
X54400Y114000D02*
X55600D01*
X55000Y113400D02*
Y114600D01*
X58900Y105000D02*
X60100D01*
X59500Y104400D02*
Y105600D01*
X54400Y96000D02*
X55600D01*
X55000Y95400D02*
Y96600D01*
X58900Y87000D02*
X60100D01*
X59500Y86400D02*
Y87600D01*
X58900Y51000D02*
X60100D01*
X59500Y50400D02*
Y51600D01*
X54400Y6000D02*
X55600D01*
X55000Y5400D02*
Y6600D01*
X49900Y321000D02*
X51100D01*
X50500Y320400D02*
Y321600D01*
X45400Y312000D02*
X46600D01*
X46000Y311400D02*
Y312600D01*
X49900Y303000D02*
X51100D01*
X50500Y302400D02*
Y303600D01*
X45400Y294000D02*
X46600D01*
X46000Y293400D02*
Y294600D01*
X49900Y285000D02*
X51100D01*
X50500Y284400D02*
Y285600D01*
X45400Y276000D02*
X46600D01*
X46000Y275400D02*
Y276600D01*
X45400Y240000D02*
X46600D01*
X46000Y239400D02*
Y240600D01*
X45400Y222000D02*
X46600D01*
X46000Y221400D02*
Y222600D01*
X49900Y213000D02*
X51100D01*
X50500Y212400D02*
Y213600D01*
X45400Y204000D02*
X46600D01*
X46000Y203400D02*
Y204600D01*
X49900Y195000D02*
X51100D01*
X50500Y194400D02*
Y195600D01*
X45400Y186000D02*
X46600D01*
X46000Y185400D02*
Y186600D01*
X49900Y177000D02*
X51100D01*
X50500Y176400D02*
Y177600D01*
X49900Y159000D02*
X51100D01*
X50500Y158400D02*
Y159600D01*
X45400Y114000D02*
X46600D01*
X46000Y113400D02*
Y114600D01*
X49900Y105000D02*
X51100D01*
X50500Y104400D02*
Y105600D01*
X45400Y96000D02*
X46600D01*
X46000Y95400D02*
Y96600D01*
X49900Y87000D02*
X51100D01*
X50500Y86400D02*
Y87600D01*
X49900Y51000D02*
X51100D01*
X50500Y50400D02*
Y51600D01*
X45400Y42000D02*
X46600D01*
X46000Y41400D02*
Y42600D01*
X45400Y24000D02*
X46600D01*
X46000Y23400D02*
Y24600D01*
X45400Y6000D02*
X46600D01*
X46000Y5400D02*
Y6600D01*
X40900Y321000D02*
X42100D01*
X41500Y320400D02*
Y321600D01*
X40900Y303000D02*
X42100D01*
X41500Y302400D02*
Y303600D01*
X40900Y285000D02*
X42100D01*
X41500Y284400D02*
Y285600D01*
X40900Y267000D02*
X42100D01*
X41500Y266400D02*
Y267600D01*
X40900Y123000D02*
X42100D01*
X41500Y122400D02*
Y123600D01*
X40900Y105000D02*
X42100D01*
X41500Y104400D02*
Y105600D01*
X40900Y87000D02*
X42100D01*
X41500Y86400D02*
Y87600D01*
X40900Y51000D02*
X42100D01*
X41500Y50400D02*
Y51600D01*
X40900Y33000D02*
X42100D01*
X41500Y32400D02*
Y33600D01*
X40900Y15000D02*
X42100D01*
X41500Y14400D02*
Y15600D01*
X107231Y84300D02*
X108431D01*
X107831Y83700D02*
Y84900D01*
X129673Y146400D02*
X130873D01*
X130273Y145800D02*
Y147000D01*
X81516Y161900D02*
X82716D01*
X82116Y161300D02*
Y162500D01*
X44900Y226700D02*
X46100D01*
X45500Y226100D02*
Y227300D01*
X99700Y239200D02*
X100900D01*
X100300Y238600D02*
Y239800D01*
X63445Y155455D02*
X64645D01*
X64045Y154855D02*
Y156055D01*
X65900Y140600D02*
X67100D01*
X66500Y140000D02*
Y141200D01*
X126000Y104000D02*
X127200D01*
X126600Y103400D02*
Y104600D01*
X121741Y70600D02*
X122942D01*
X122342Y70000D02*
Y71200D01*
X93300Y181100D02*
X94500D01*
X93900Y180500D02*
Y181700D01*
X78059Y140600D02*
X79259D01*
X78659Y140000D02*
Y141200D01*
X44400Y147300D02*
X45600D01*
X45000Y146700D02*
Y147900D01*
X134700Y133500D02*
X135900D01*
X135300Y132900D02*
Y134100D01*
X151100Y133400D02*
X152300D01*
X151700Y132800D02*
Y134000D01*
X98300Y68100D02*
X99500D01*
X98900Y67500D02*
Y68700D01*
X73000Y46000D02*
X74200D01*
X73600Y45400D02*
Y46600D01*
X94200Y143200D02*
X95400D01*
X94800Y142600D02*
Y143800D01*
X146095Y70000D02*
X157905D01*
X152000Y64095D02*
Y75906D01*
X47394Y70000D02*
X59206D01*
X53300Y64095D02*
Y75906D01*
X146095Y336700D02*
X157905D01*
X152000Y330795D02*
Y342605D01*
X47394Y336700D02*
X59206D01*
X53300Y330795D02*
Y342605D01*
X91600Y91700D02*
X92800D01*
X92200Y91100D02*
Y92300D01*
X57645Y168645D02*
X58845D01*
X58245Y168045D02*
Y169245D01*
X61145Y170945D02*
X62345D01*
X61745Y170345D02*
Y171545D01*
X75800Y180300D02*
X77000D01*
X76400Y179700D02*
Y180900D01*
X118500Y64345D02*
X119700D01*
X119100Y63745D02*
Y64945D01*
X102500Y38650D02*
X103700D01*
X103100Y38050D02*
Y39250D01*
X111850Y38650D02*
X113050D01*
X112450Y38050D02*
Y39250D01*
X104500Y160800D02*
X105700D01*
X105100Y160200D02*
Y161400D01*
X111957Y233000D02*
X113157D01*
X112557Y232400D02*
Y233600D01*
X131300Y232700D02*
X132500D01*
X131900Y232100D02*
Y233300D01*
X131700Y162100D02*
X132900D01*
X132300Y161500D02*
Y162700D01*
X62800Y202700D02*
X64000D01*
X63400Y202100D02*
Y203300D01*
X70700Y226700D02*
X71900D01*
X71300Y226100D02*
Y227300D01*
X75200Y133600D02*
X76400D01*
X75800Y133000D02*
Y134200D01*
X105100Y138100D02*
X106300D01*
X105700Y137500D02*
Y138700D01*
X105125Y148400D02*
X106325D01*
X105725Y147800D02*
Y149000D01*
X85200Y76300D02*
X86400D01*
X85800Y75700D02*
Y76900D01*
X143400Y17900D02*
X144600D01*
X144000Y17300D02*
Y18500D01*
X92400Y96700D02*
X93600D01*
X93000Y96100D02*
Y97300D01*
X104200Y155200D02*
X105400D01*
X104800Y154600D02*
Y155800D01*
X124200Y75500D02*
X125400D01*
X124800Y74900D02*
Y76100D01*
X126178Y81477D02*
X127377D01*
X126778Y80878D02*
Y82077D01*
M02*
