G04*
G04 #@! TF.GenerationSoftware,Altium Limited,Altium Designer,18.1.9 (240)*
G04*
G04 Layer_Color=8388736*
%FSLAX25Y25*%
%MOIN*%
G70*
G01*
G75*
%ADD43R,0.03800X0.04800*%
%ADD44R,0.04800X0.03800*%
G04:AMPARAMS|DCode=45|XSize=68mil|YSize=58mil|CornerRadius=0mil|HoleSize=0mil|Usage=FLASHONLY|Rotation=270.000|XOffset=0mil|YOffset=0mil|HoleType=Round|Shape=Octagon|*
%AMOCTAGOND45*
4,1,8,-0.01450,-0.03400,0.01450,-0.03400,0.02900,-0.01950,0.02900,0.01950,0.01450,0.03400,-0.01450,0.03400,-0.02900,0.01950,-0.02900,-0.01950,-0.01450,-0.03400,0.0*
%
%ADD45OCTAGOND45*%

%ADD46R,0.05800X0.06800*%
%ADD47R,0.04300X0.04300*%
%ADD48R,0.03359X0.06706*%
%ADD49R,0.06706X0.16548*%
%ADD50R,0.08674X0.16548*%
%ADD51R,0.04800X0.03950*%
%ADD52R,0.04737X0.02769*%
%ADD53R,0.01981X0.05918*%
%ADD54R,0.14600X0.14600*%
%ADD55O,0.04737X0.01981*%
%ADD56O,0.01981X0.04737*%
%ADD57R,0.01981X0.04737*%
%ADD58R,0.05918X0.05524*%
%ADD59R,0.03950X0.04800*%
%ADD60R,0.17700X0.17700*%
%ADD61O,0.04928X0.01680*%
%ADD62O,0.01680X0.04928*%
%ADD63R,0.01680X0.04928*%
%ADD64R,0.06312X0.03162*%
%ADD65O,0.05524X0.08674*%
%ADD66O,0.05524X0.07887*%
%ADD67C,0.03753*%
%ADD68C,0.20485*%
D43*
X102670Y332150D02*
D03*
Y324850D02*
D03*
X105400Y120653D02*
D03*
Y127953D02*
D03*
X138092Y53347D02*
D03*
Y60647D02*
D03*
X98200Y120956D02*
D03*
Y113656D02*
D03*
X89900Y120853D02*
D03*
Y113553D02*
D03*
X75900Y120700D02*
D03*
Y128000D02*
D03*
X82884Y120700D02*
D03*
Y128000D02*
D03*
X112557Y117000D02*
D03*
Y109700D02*
D03*
X119600Y109800D02*
D03*
Y117100D02*
D03*
X126600Y117203D02*
D03*
Y109903D02*
D03*
X133600Y109800D02*
D03*
Y117100D02*
D03*
X61900Y187800D02*
D03*
Y195100D02*
D03*
X91150Y234400D02*
D03*
Y227100D02*
D03*
X104800D02*
D03*
Y234400D02*
D03*
X104750Y242200D02*
D03*
Y249500D02*
D03*
X82800Y211650D02*
D03*
Y218950D02*
D03*
X101600Y195100D02*
D03*
Y187800D02*
D03*
X94200D02*
D03*
Y195100D02*
D03*
X68900Y187800D02*
D03*
Y195100D02*
D03*
X75900Y218850D02*
D03*
Y211550D02*
D03*
X61100Y211700D02*
D03*
Y219000D02*
D03*
X75900Y234400D02*
D03*
Y227100D02*
D03*
X98000Y249450D02*
D03*
Y242150D02*
D03*
X112997Y242200D02*
D03*
Y249500D02*
D03*
X120100Y227150D02*
D03*
Y234450D02*
D03*
X141400Y227153D02*
D03*
Y234453D02*
D03*
X156500Y242200D02*
D03*
Y249500D02*
D03*
X163100D02*
D03*
Y242200D02*
D03*
X126997D02*
D03*
Y249500D02*
D03*
X134900Y242200D02*
D03*
Y249500D02*
D03*
X148400Y242200D02*
D03*
Y249500D02*
D03*
X82800D02*
D03*
Y242200D02*
D03*
X54300D02*
D03*
Y249500D02*
D03*
X61100Y234400D02*
D03*
Y227100D02*
D03*
X85800Y195100D02*
D03*
Y187800D02*
D03*
X76400D02*
D03*
Y195100D02*
D03*
X82400Y11430D02*
D03*
Y18730D02*
D03*
X132600Y32680D02*
D03*
Y25380D02*
D03*
X163100Y264800D02*
D03*
Y257500D02*
D03*
D44*
X128630Y45800D02*
D03*
X121330D02*
D03*
X73900Y33730D02*
D03*
X66600D02*
D03*
X141450Y32830D02*
D03*
X148750D02*
D03*
X73900Y10980D02*
D03*
X66600D02*
D03*
X80650Y51300D02*
D03*
X73350D02*
D03*
X80650Y58000D02*
D03*
X73350D02*
D03*
X80650Y65200D02*
D03*
X73350D02*
D03*
X80600Y85500D02*
D03*
X73300D02*
D03*
X141500Y10930D02*
D03*
X148800D02*
D03*
X80700Y72100D02*
D03*
X73400D02*
D03*
X80600Y78900D02*
D03*
X73300D02*
D03*
X119597Y155400D02*
D03*
X112297D02*
D03*
Y162400D02*
D03*
X119597D02*
D03*
X112297Y148400D02*
D03*
X119597D02*
D03*
X112297Y169400D02*
D03*
X119597D02*
D03*
X119750Y141200D02*
D03*
X112450D02*
D03*
X52900Y152900D02*
D03*
X45600D02*
D03*
X52900Y164800D02*
D03*
X45600D02*
D03*
D45*
X55400Y13880D02*
D03*
X157600D02*
D03*
D46*
X55400Y23880D02*
D03*
X157600D02*
D03*
D47*
X98000Y234475D02*
D03*
Y227475D02*
D03*
X69000Y234500D02*
D03*
Y227500D02*
D03*
X91300Y249600D02*
D03*
Y242600D02*
D03*
X141500D02*
D03*
Y249600D02*
D03*
X120097Y242600D02*
D03*
Y249600D02*
D03*
X83000Y227500D02*
D03*
Y234500D02*
D03*
X61100Y242700D02*
D03*
Y249700D02*
D03*
X54400Y234500D02*
D03*
Y227500D02*
D03*
X156500Y257900D02*
D03*
Y264900D02*
D03*
X60900Y257500D02*
D03*
Y264500D02*
D03*
X141500Y257400D02*
D03*
Y264400D02*
D03*
X120097Y257400D02*
D03*
Y264400D02*
D03*
X82900Y257500D02*
D03*
Y264500D02*
D03*
X104850Y257400D02*
D03*
Y264400D02*
D03*
D48*
X78100Y315100D02*
D03*
X83100D02*
D03*
X93100Y282423D02*
D03*
X88100D02*
D03*
X83100D02*
D03*
X78100D02*
D03*
X93100Y315100D02*
D03*
X88100D02*
D03*
X128000Y210539D02*
D03*
X133000D02*
D03*
X118000Y177861D02*
D03*
X123000D02*
D03*
X128000D02*
D03*
X133000D02*
D03*
X123000Y210539D02*
D03*
X118000D02*
D03*
X122300Y315100D02*
D03*
X127300D02*
D03*
X112300Y282423D02*
D03*
X117300D02*
D03*
X122300D02*
D03*
X127300D02*
D03*
X117300Y315100D02*
D03*
X112300D02*
D03*
D49*
X102670Y345800D02*
D03*
D50*
X92040D02*
D03*
X113300D02*
D03*
D51*
X97700Y128453D02*
D03*
X90400D02*
D03*
D52*
X65551Y26130D02*
D03*
Y18650D02*
D03*
X75000Y22390D02*
D03*
Y18650D02*
D03*
Y26130D02*
D03*
X148800Y18030D02*
D03*
Y25511D02*
D03*
X139351Y21770D02*
D03*
Y25511D02*
D03*
Y18030D02*
D03*
D53*
X120889Y31128D02*
D03*
X119708Y31128D02*
D03*
X117740Y31128D02*
D03*
X116558D02*
D03*
X114590Y31128D02*
D03*
X112620Y31132D02*
D03*
X110653Y31128D02*
D03*
X108684Y31128D02*
D03*
X106716Y31128D02*
D03*
X104747Y31128D02*
D03*
X102779Y31128D02*
D03*
X100810Y31132D02*
D03*
X98842Y31128D02*
D03*
X97661D02*
D03*
X95692Y31128D02*
D03*
X94511D02*
D03*
D54*
X109800Y86400D02*
D03*
D55*
X119753Y93291D02*
D03*
Y91322D02*
D03*
Y89354D02*
D03*
Y87384D02*
D03*
Y85416D02*
D03*
Y83447D02*
D03*
Y81477D02*
D03*
Y79509D02*
D03*
X99847D02*
D03*
Y81477D02*
D03*
Y83447D02*
D03*
Y85416D02*
D03*
Y87384D02*
D03*
Y89354D02*
D03*
Y91322D02*
D03*
Y93291D02*
D03*
D56*
X116495Y76447D02*
D03*
X114526D02*
D03*
X112557D02*
D03*
X110588D02*
D03*
X108619D02*
D03*
X106650D02*
D03*
X104681D02*
D03*
X102712D02*
D03*
X102909Y96353D02*
D03*
X104877D02*
D03*
X106846D02*
D03*
X108816D02*
D03*
X110784D02*
D03*
X112753D02*
D03*
X114723D02*
D03*
D57*
X116692D02*
D03*
D58*
X129759Y60200D02*
D03*
X121492D02*
D03*
Y53507D02*
D03*
X129759D02*
D03*
D59*
X112700Y52800D02*
D03*
Y60100D02*
D03*
X54500Y40400D02*
D03*
Y33100D02*
D03*
X156700Y40300D02*
D03*
Y33000D02*
D03*
D60*
X82500Y161900D02*
D03*
D61*
X94511Y170758D02*
D03*
Y168790D02*
D03*
Y166821D02*
D03*
Y164853D02*
D03*
Y162884D02*
D03*
Y160916D02*
D03*
Y158947D02*
D03*
Y156979D02*
D03*
Y155010D02*
D03*
Y153042D02*
D03*
X70489D02*
D03*
Y155010D02*
D03*
Y156979D02*
D03*
Y158947D02*
D03*
Y160916D02*
D03*
Y162884D02*
D03*
Y164853D02*
D03*
Y166821D02*
D03*
Y168790D02*
D03*
Y170758D02*
D03*
D62*
X91358Y149789D02*
D03*
X89390D02*
D03*
X87421D02*
D03*
X85453D02*
D03*
X83484D02*
D03*
X81516D02*
D03*
X79547D02*
D03*
X77579D02*
D03*
X75610D02*
D03*
X73642D02*
D03*
Y173911D02*
D03*
X75610D02*
D03*
X77579D02*
D03*
X79547D02*
D03*
X81516D02*
D03*
X83484D02*
D03*
X85453D02*
D03*
X87421D02*
D03*
X89390D02*
D03*
D63*
X91358D02*
D03*
D64*
X113500Y331536D02*
D03*
Y324056D02*
D03*
X123397Y327796D02*
D03*
X91900Y324056D02*
D03*
Y331536D02*
D03*
X82003Y327797D02*
D03*
D65*
X90693Y26925D02*
D03*
X124708Y26925D02*
D03*
D66*
X124708Y10468D02*
D03*
X90692Y10469D02*
D03*
D67*
X119078Y24838D02*
D03*
X96322D02*
D03*
D68*
X152000Y70000D02*
D03*
X53300D02*
D03*
X152000Y336700D02*
D03*
X53300D02*
D03*
M02*
