G04*
G04 #@! TF.GenerationSoftware,Altium Limited,Altium Designer,18.1.9 (240)*
G04*
G04 Layer_Color=65535*
%FSLAX25Y25*%
%MOIN*%
G70*
G01*
G75*
%ADD10C,0.01968*%
%ADD11C,0.00984*%
%ADD12C,0.01181*%
%ADD13C,0.00800*%
%ADD14C,0.00600*%
%ADD15C,0.01000*%
%ADD16C,0.00591*%
%ADD17C,0.00700*%
%ADD18C,0.00787*%
%ADD19C,0.01200*%
%ADD20R,0.03000X0.05000*%
G36*
X164500Y171100D02*
Y116000D01*
X148600D01*
Y171100D01*
X164500D01*
D02*
G37*
G36*
X159706Y111984D02*
X155049Y110318D01*
X155042D01*
X155021Y110311D01*
X154993Y110298D01*
X154952Y110284D01*
X154903Y110270D01*
X154848Y110249D01*
X154785Y110228D01*
X154709Y110200D01*
X154549Y110152D01*
X154376Y110096D01*
X154188Y110041D01*
X154001Y109985D01*
X154008D01*
X154022Y109978D01*
X154057Y109971D01*
X154091Y109957D01*
X154140Y109944D01*
X154195Y109930D01*
X154258Y109909D01*
X154327Y109888D01*
X154487Y109839D01*
X154667Y109777D01*
X154855Y109708D01*
X155049Y109638D01*
X159706Y107910D01*
Y107050D01*
X153300Y109548D01*
Y110422D01*
X159706Y112907D01*
Y111984D01*
D02*
G37*
G36*
X155687Y106640D02*
X155771D01*
X155868Y106626D01*
X155979Y106612D01*
X156111Y106598D01*
X156243Y106571D01*
X156388Y106543D01*
X156534Y106501D01*
X156687Y106453D01*
X156839Y106397D01*
X156985Y106328D01*
X157131Y106245D01*
X157270Y106154D01*
X157395Y106050D01*
X157402Y106043D01*
X157422Y106023D01*
X157457Y105988D01*
X157499Y105939D01*
X157547Y105884D01*
X157603Y105807D01*
X157658Y105724D01*
X157721Y105627D01*
X157783Y105523D01*
X157839Y105405D01*
X157894Y105273D01*
X157943Y105134D01*
X157984Y104982D01*
X158019Y104829D01*
X158040Y104655D01*
X158047Y104482D01*
Y104440D01*
X158040Y104392D01*
Y104329D01*
X158026Y104246D01*
X158012Y104156D01*
X157991Y104051D01*
X157971Y103940D01*
X157936Y103823D01*
X157894Y103705D01*
X157839Y103573D01*
X157776Y103448D01*
X157707Y103323D01*
X157617Y103198D01*
X157519Y103073D01*
X157408Y102962D01*
X157402Y102955D01*
X157381Y102934D01*
X157346Y102906D01*
X157290Y102872D01*
X157228Y102823D01*
X157152Y102775D01*
X157054Y102719D01*
X156950Y102664D01*
X156833Y102615D01*
X156701Y102559D01*
X156555Y102511D01*
X156395Y102462D01*
X156222Y102427D01*
X156034Y102400D01*
X155840Y102379D01*
X155632Y102372D01*
X155618D01*
X155583D01*
X155514D01*
X155424Y102379D01*
Y105842D01*
X155417D01*
X155389D01*
X155347Y105835D01*
X155299Y105828D01*
X155229Y105821D01*
X155160Y105807D01*
X155077Y105793D01*
X154986Y105773D01*
X154799Y105717D01*
X154598Y105641D01*
X154508Y105592D01*
X154410Y105544D01*
X154327Y105481D01*
X154244Y105412D01*
X154237Y105405D01*
X154230Y105391D01*
X154209Y105370D01*
X154181Y105342D01*
X154154Y105301D01*
X154119Y105259D01*
X154077Y105203D01*
X154043Y105141D01*
X153966Y105002D01*
X153904Y104836D01*
X153876Y104745D01*
X153862Y104648D01*
X153848Y104544D01*
X153841Y104440D01*
Y104399D01*
X153848Y104371D01*
X153855Y104288D01*
X153869Y104183D01*
X153897Y104072D01*
X153938Y103947D01*
X153987Y103823D01*
X154063Y103705D01*
Y103698D01*
X154077Y103691D01*
X154105Y103656D01*
X154161Y103600D01*
X154244Y103531D01*
X154341Y103455D01*
X154473Y103371D01*
X154625Y103288D01*
X154799Y103219D01*
X154695Y102400D01*
X154688D01*
X154660Y102407D01*
X154625Y102421D01*
X154577Y102441D01*
X154515Y102462D01*
X154445Y102490D01*
X154369Y102525D01*
X154286Y102559D01*
X154112Y102657D01*
X153925Y102781D01*
X153834Y102858D01*
X153744Y102934D01*
X153661Y103017D01*
X153585Y103115D01*
X153578Y103121D01*
X153571Y103135D01*
X153550Y103170D01*
X153522Y103205D01*
X153494Y103260D01*
X153460Y103323D01*
X153425Y103392D01*
X153390Y103475D01*
X153356Y103566D01*
X153321Y103670D01*
X153286Y103774D01*
X153258Y103892D01*
X153231Y104017D01*
X153210Y104149D01*
X153203Y104294D01*
X153196Y104440D01*
Y104482D01*
X153203Y104537D01*
Y104607D01*
X153217Y104697D01*
X153231Y104794D01*
X153251Y104905D01*
X153272Y105023D01*
X153307Y105148D01*
X153349Y105280D01*
X153397Y105419D01*
X153460Y105551D01*
X153529Y105689D01*
X153612Y105814D01*
X153709Y105939D01*
X153821Y106057D01*
X153827Y106064D01*
X153848Y106085D01*
X153883Y106113D01*
X153938Y106147D01*
X154001Y106196D01*
X154077Y106245D01*
X154167Y106300D01*
X154272Y106349D01*
X154390Y106404D01*
X154521Y106460D01*
X154667Y106508D01*
X154827Y106557D01*
X154993Y106591D01*
X155174Y106619D01*
X155368Y106640D01*
X155576Y106647D01*
X155590D01*
X155625D01*
X155687Y106640D01*
D02*
G37*
G36*
X157943Y100706D02*
X157242D01*
X157256Y100692D01*
X157284Y100679D01*
X157311Y100658D01*
X157402Y100609D01*
X157499Y100540D01*
X157610Y100463D01*
X157721Y100380D01*
X157811Y100297D01*
X157853Y100248D01*
X157887Y100207D01*
X157894Y100193D01*
X157915Y100165D01*
X157936Y100117D01*
X157971Y100061D01*
X157998Y99985D01*
X158019Y99901D01*
X158040Y99804D01*
X158047Y99707D01*
Y99665D01*
X158040Y99638D01*
Y99603D01*
X158033Y99561D01*
X158012Y99457D01*
X157984Y99332D01*
X157936Y99200D01*
X157873Y99048D01*
X157790Y98895D01*
X157062Y99173D01*
X157068Y99187D01*
X157089Y99221D01*
X157117Y99277D01*
X157152Y99353D01*
X157179Y99436D01*
X157207Y99534D01*
X157228Y99638D01*
X157235Y99749D01*
Y99790D01*
X157228Y99839D01*
X157214Y99901D01*
X157193Y99978D01*
X157166Y100054D01*
X157131Y100130D01*
X157075Y100214D01*
X157068Y100221D01*
X157048Y100248D01*
X157013Y100283D01*
X156964Y100325D01*
X156902Y100373D01*
X156833Y100422D01*
X156742Y100463D01*
X156645Y100505D01*
X156638D01*
X156624Y100512D01*
X156603Y100519D01*
X156576Y100526D01*
X156534Y100533D01*
X156485Y100547D01*
X156374Y100568D01*
X156236Y100588D01*
X156083Y100609D01*
X155909Y100623D01*
X155729Y100630D01*
X153300D01*
Y101414D01*
X157943D01*
Y100706D01*
D02*
G37*
G36*
X158123Y95557D02*
X158130Y95536D01*
X158151Y95501D01*
X158172Y95453D01*
X158200Y95397D01*
X158241Y95328D01*
X158283Y95252D01*
X158325Y95175D01*
X158436Y94995D01*
X158568Y94801D01*
X158706Y94599D01*
X158866Y94412D01*
X158873Y94405D01*
X158887Y94391D01*
X158907Y94363D01*
X158942Y94329D01*
X158984Y94294D01*
X159026Y94245D01*
X159143Y94141D01*
X159268Y94023D01*
X159414Y93905D01*
X159567Y93801D01*
X159726Y93711D01*
Y93204D01*
X153300D01*
Y93989D01*
X158304D01*
X158290Y94002D01*
X158255Y94037D01*
X158207Y94099D01*
X158137Y94190D01*
X158054Y94294D01*
X157964Y94426D01*
X157867Y94572D01*
X157762Y94738D01*
Y94745D01*
X157748Y94759D01*
X157735Y94780D01*
X157721Y94814D01*
X157693Y94856D01*
X157672Y94905D01*
X157610Y95016D01*
X157547Y95140D01*
X157478Y95279D01*
X157415Y95425D01*
X157360Y95564D01*
X158116D01*
X158123Y95557D01*
D02*
G37*
G36*
X154195Y89852D02*
X153300D01*
Y90747D01*
X154195D01*
Y89852D01*
D02*
G37*
G36*
X153473Y88804D02*
X153557Y88797D01*
X153647Y88777D01*
X153744Y88756D01*
X153841Y88721D01*
X153848D01*
X153862Y88714D01*
X153883Y88707D01*
X153918Y88693D01*
X153952Y88673D01*
X154001Y88652D01*
X154112Y88596D01*
X154244Y88527D01*
X154390Y88437D01*
X154542Y88332D01*
X154695Y88208D01*
X154702Y88200D01*
X154716Y88194D01*
X154737Y88173D01*
X154771Y88138D01*
X154806Y88103D01*
X154855Y88055D01*
X154910Y88006D01*
X154973Y87944D01*
X155042Y87874D01*
X155111Y87798D01*
X155195Y87715D01*
X155278Y87618D01*
X155368Y87520D01*
X155458Y87409D01*
X155555Y87298D01*
X155660Y87173D01*
X155666Y87160D01*
X155701Y87125D01*
X155743Y87076D01*
X155805Y87007D01*
X155875Y86924D01*
X155958Y86826D01*
X156048Y86715D01*
X156152Y86604D01*
X156368Y86368D01*
X156597Y86139D01*
X156708Y86028D01*
X156819Y85924D01*
X156923Y85834D01*
X157020Y85758D01*
X157027Y85751D01*
X157041Y85744D01*
X157068Y85723D01*
X157103Y85702D01*
X157152Y85667D01*
X157200Y85640D01*
X157325Y85570D01*
X157471Y85501D01*
X157631Y85438D01*
X157797Y85397D01*
X157880Y85390D01*
X157964Y85383D01*
X157971D01*
X157984D01*
X158012D01*
X158040Y85390D01*
X158082D01*
X158130Y85404D01*
X158234Y85425D01*
X158359Y85466D01*
X158491Y85529D01*
X158561Y85563D01*
X158623Y85612D01*
X158685Y85660D01*
X158748Y85723D01*
X158755Y85730D01*
X158762Y85737D01*
X158776Y85758D01*
X158797Y85785D01*
X158824Y85820D01*
X158852Y85862D01*
X158914Y85959D01*
X158970Y86091D01*
X159026Y86237D01*
X159060Y86410D01*
X159074Y86507D01*
Y86660D01*
X159067Y86702D01*
Y86750D01*
X159053Y86806D01*
X159032Y86931D01*
X158991Y87076D01*
X158928Y87229D01*
X158887Y87305D01*
X158845Y87382D01*
X158790Y87451D01*
X158727Y87520D01*
X158720Y87527D01*
X158713Y87534D01*
X158692Y87548D01*
X158665Y87576D01*
X158630Y87597D01*
X158588Y87625D01*
X158540Y87659D01*
X158484Y87687D01*
X158422Y87722D01*
X158352Y87749D01*
X158186Y87805D01*
X158005Y87847D01*
X157901Y87853D01*
X157790Y87861D01*
X157873Y88665D01*
X157887D01*
X157915Y88659D01*
X157957Y88652D01*
X158019Y88645D01*
X158096Y88631D01*
X158186Y88610D01*
X158283Y88589D01*
X158387Y88555D01*
X158491Y88520D01*
X158609Y88478D01*
X158720Y88423D01*
X158831Y88367D01*
X158949Y88298D01*
X159053Y88221D01*
X159157Y88138D01*
X159248Y88041D01*
X159255Y88034D01*
X159268Y88013D01*
X159289Y87985D01*
X159324Y87944D01*
X159359Y87888D01*
X159400Y87819D01*
X159442Y87743D01*
X159491Y87652D01*
X159532Y87555D01*
X159574Y87444D01*
X159615Y87326D01*
X159650Y87194D01*
X159685Y87055D01*
X159706Y86910D01*
X159720Y86750D01*
X159726Y86584D01*
Y86493D01*
X159720Y86431D01*
X159713Y86355D01*
X159699Y86264D01*
X159685Y86160D01*
X159664Y86056D01*
X159636Y85938D01*
X159601Y85820D01*
X159560Y85695D01*
X159511Y85577D01*
X159449Y85452D01*
X159379Y85334D01*
X159303Y85223D01*
X159213Y85119D01*
X159206Y85112D01*
X159192Y85098D01*
X159157Y85071D01*
X159123Y85036D01*
X159074Y84994D01*
X159012Y84946D01*
X158942Y84897D01*
X158859Y84848D01*
X158776Y84800D01*
X158678Y84751D01*
X158574Y84703D01*
X158463Y84661D01*
X158338Y84626D01*
X158213Y84599D01*
X158082Y84585D01*
X157943Y84578D01*
X157936D01*
X157929D01*
X157908D01*
X157880D01*
X157804Y84585D01*
X157707Y84599D01*
X157589Y84619D01*
X157464Y84647D01*
X157325Y84682D01*
X157186Y84737D01*
X157179D01*
X157173Y84744D01*
X157152Y84751D01*
X157124Y84765D01*
X157048Y84807D01*
X156950Y84862D01*
X156833Y84939D01*
X156701Y85029D01*
X156562Y85133D01*
X156409Y85265D01*
X156402Y85272D01*
X156388Y85279D01*
X156368Y85307D01*
X156333Y85334D01*
X156291Y85376D01*
X156243Y85425D01*
X156180Y85480D01*
X156118Y85549D01*
X156041Y85633D01*
X155958Y85723D01*
X155861Y85820D01*
X155764Y85931D01*
X155653Y86049D01*
X155542Y86181D01*
X155417Y86327D01*
X155285Y86479D01*
X155278Y86486D01*
X155257Y86507D01*
X155229Y86549D01*
X155188Y86590D01*
X155139Y86653D01*
X155084Y86715D01*
X154959Y86861D01*
X154827Y87014D01*
X154688Y87160D01*
X154625Y87229D01*
X154570Y87291D01*
X154515Y87347D01*
X154473Y87389D01*
X154466Y87396D01*
X154438Y87423D01*
X154396Y87458D01*
X154341Y87507D01*
X154279Y87562D01*
X154209Y87618D01*
X154057Y87729D01*
Y84571D01*
X153300D01*
Y88811D01*
X153314D01*
X153349D01*
X153404D01*
X153473Y88804D01*
D02*
G37*
G36*
X39773Y131693D02*
X39857Y131686D01*
X39947Y131665D01*
X40044Y131644D01*
X40141Y131610D01*
X40148D01*
X40162Y131603D01*
X40183Y131596D01*
X40218Y131582D01*
X40252Y131561D01*
X40301Y131540D01*
X40412Y131485D01*
X40544Y131415D01*
X40690Y131325D01*
X40842Y131221D01*
X40995Y131096D01*
X41002Y131089D01*
X41016Y131082D01*
X41037Y131061D01*
X41071Y131027D01*
X41106Y130992D01*
X41155Y130944D01*
X41210Y130895D01*
X41273Y130833D01*
X41342Y130763D01*
X41411Y130687D01*
X41495Y130604D01*
X41578Y130506D01*
X41668Y130409D01*
X41758Y130298D01*
X41855Y130187D01*
X41960Y130062D01*
X41967Y130048D01*
X42001Y130014D01*
X42043Y129965D01*
X42105Y129896D01*
X42175Y129812D01*
X42258Y129715D01*
X42348Y129604D01*
X42452Y129493D01*
X42667Y129257D01*
X42897Y129028D01*
X43007Y128917D01*
X43119Y128813D01*
X43223Y128723D01*
X43320Y128646D01*
X43327Y128639D01*
X43341Y128632D01*
X43368Y128612D01*
X43403Y128591D01*
X43452Y128556D01*
X43500Y128528D01*
X43625Y128459D01*
X43771Y128390D01*
X43931Y128327D01*
X44097Y128286D01*
X44180Y128279D01*
X44264Y128272D01*
X44271D01*
X44284D01*
X44312D01*
X44340Y128279D01*
X44382D01*
X44430Y128293D01*
X44534Y128313D01*
X44659Y128355D01*
X44791Y128417D01*
X44861Y128452D01*
X44923Y128501D01*
X44985Y128549D01*
X45048Y128612D01*
X45055Y128619D01*
X45062Y128626D01*
X45076Y128646D01*
X45096Y128674D01*
X45124Y128709D01*
X45152Y128751D01*
X45215Y128848D01*
X45270Y128980D01*
X45325Y129125D01*
X45360Y129299D01*
X45374Y129396D01*
Y129549D01*
X45367Y129590D01*
Y129639D01*
X45353Y129694D01*
X45332Y129819D01*
X45291Y129965D01*
X45228Y130118D01*
X45187Y130194D01*
X45145Y130270D01*
X45090Y130340D01*
X45027Y130409D01*
X45020Y130416D01*
X45013Y130423D01*
X44992Y130437D01*
X44965Y130465D01*
X44930Y130485D01*
X44888Y130513D01*
X44840Y130548D01*
X44784Y130576D01*
X44722Y130610D01*
X44652Y130638D01*
X44486Y130694D01*
X44305Y130735D01*
X44201Y130742D01*
X44090Y130749D01*
X44173Y131554D01*
X44187D01*
X44215Y131547D01*
X44257Y131540D01*
X44319Y131533D01*
X44396Y131520D01*
X44486Y131499D01*
X44583Y131478D01*
X44687Y131443D01*
X44791Y131409D01*
X44909Y131367D01*
X45020Y131311D01*
X45131Y131256D01*
X45249Y131186D01*
X45353Y131110D01*
X45457Y131027D01*
X45548Y130930D01*
X45555Y130923D01*
X45568Y130902D01*
X45589Y130874D01*
X45624Y130833D01*
X45659Y130777D01*
X45700Y130708D01*
X45742Y130631D01*
X45790Y130541D01*
X45832Y130444D01*
X45874Y130333D01*
X45915Y130215D01*
X45950Y130083D01*
X45985Y129944D01*
X46006Y129798D01*
X46020Y129639D01*
X46026Y129472D01*
Y129382D01*
X46020Y129320D01*
X46013Y129243D01*
X45999Y129153D01*
X45985Y129049D01*
X45964Y128945D01*
X45936Y128827D01*
X45902Y128709D01*
X45860Y128584D01*
X45811Y128466D01*
X45749Y128341D01*
X45679Y128223D01*
X45603Y128112D01*
X45513Y128008D01*
X45506Y128001D01*
X45492Y127987D01*
X45457Y127959D01*
X45423Y127925D01*
X45374Y127883D01*
X45312Y127834D01*
X45242Y127786D01*
X45159Y127737D01*
X45076Y127689D01*
X44978Y127640D01*
X44874Y127592D01*
X44763Y127550D01*
X44638Y127515D01*
X44513Y127487D01*
X44382Y127473D01*
X44243Y127467D01*
X44236D01*
X44229D01*
X44208D01*
X44180D01*
X44104Y127473D01*
X44007Y127487D01*
X43889Y127508D01*
X43764Y127536D01*
X43625Y127571D01*
X43486Y127626D01*
X43479D01*
X43472Y127633D01*
X43452Y127640D01*
X43424Y127654D01*
X43348Y127696D01*
X43250Y127751D01*
X43132Y127828D01*
X43001Y127918D01*
X42862Y128022D01*
X42709Y128154D01*
X42702Y128161D01*
X42688Y128167D01*
X42667Y128195D01*
X42633Y128223D01*
X42591Y128265D01*
X42543Y128313D01*
X42480Y128369D01*
X42418Y128438D01*
X42341Y128522D01*
X42258Y128612D01*
X42161Y128709D01*
X42064Y128820D01*
X41953Y128938D01*
X41842Y129070D01*
X41717Y129216D01*
X41585Y129368D01*
X41578Y129375D01*
X41557Y129396D01*
X41529Y129438D01*
X41488Y129479D01*
X41439Y129542D01*
X41384Y129604D01*
X41259Y129750D01*
X41127Y129903D01*
X40988Y130048D01*
X40925Y130118D01*
X40870Y130180D01*
X40815Y130236D01*
X40773Y130277D01*
X40766Y130284D01*
X40738Y130312D01*
X40696Y130347D01*
X40641Y130395D01*
X40578Y130451D01*
X40509Y130506D01*
X40356Y130617D01*
Y127460D01*
X39600D01*
Y131700D01*
X39614D01*
X39649D01*
X39704D01*
X39773Y131693D01*
D02*
G37*
G36*
X42945Y126606D02*
X43042D01*
X43153Y126599D01*
X43278Y126592D01*
X43410Y126585D01*
X43556Y126571D01*
X43701Y126558D01*
X44007Y126516D01*
X44305Y126460D01*
X44451Y126426D01*
X44583Y126384D01*
X44590D01*
X44611Y126370D01*
X44652Y126356D01*
X44701Y126342D01*
X44756Y126315D01*
X44826Y126287D01*
X44895Y126252D01*
X44978Y126210D01*
X45152Y126113D01*
X45325Y125988D01*
X45499Y125850D01*
X45575Y125773D01*
X45652Y125690D01*
X45659Y125683D01*
X45666Y125669D01*
X45686Y125641D01*
X45707Y125607D01*
X45742Y125565D01*
X45770Y125510D01*
X45804Y125447D01*
X45839Y125371D01*
X45874Y125294D01*
X45908Y125204D01*
X45943Y125107D01*
X45971Y125010D01*
X45992Y124899D01*
X46013Y124781D01*
X46020Y124656D01*
X46026Y124531D01*
Y124448D01*
X46020Y124399D01*
X46013Y124351D01*
X45999Y124226D01*
X45978Y124087D01*
X45936Y123934D01*
X45888Y123782D01*
X45818Y123629D01*
Y123622D01*
X45811Y123608D01*
X45797Y123587D01*
X45777Y123559D01*
X45735Y123490D01*
X45666Y123400D01*
X45582Y123296D01*
X45478Y123192D01*
X45353Y123081D01*
X45215Y122983D01*
X45208D01*
X45194Y122969D01*
X45173Y122962D01*
X45145Y122942D01*
X45110Y122921D01*
X45062Y122893D01*
X45006Y122872D01*
X44951Y122838D01*
X44812Y122775D01*
X44652Y122713D01*
X44465Y122643D01*
X44264Y122588D01*
X44257D01*
X44236Y122581D01*
X44208Y122574D01*
X44160Y122567D01*
X44104Y122553D01*
X44035Y122539D01*
X43958Y122525D01*
X43868Y122511D01*
X43764Y122504D01*
X43653Y122491D01*
X43528Y122477D01*
X43396Y122463D01*
X43250Y122456D01*
X43098Y122449D01*
X42931Y122442D01*
X42758D01*
X42744D01*
X42709D01*
X42647D01*
X42570D01*
X42473Y122449D01*
X42369Y122456D01*
X42244Y122463D01*
X42112Y122470D01*
X41967Y122484D01*
X41821Y122498D01*
X41515Y122539D01*
X41217Y122602D01*
X41071Y122636D01*
X40939Y122678D01*
X40933D01*
X40912Y122692D01*
X40870Y122699D01*
X40828Y122720D01*
X40766Y122747D01*
X40703Y122775D01*
X40627Y122810D01*
X40544Y122852D01*
X40370Y122949D01*
X40197Y123067D01*
X40023Y123205D01*
X39947Y123289D01*
X39871Y123372D01*
X39864Y123379D01*
X39857Y123393D01*
X39836Y123421D01*
X39815Y123455D01*
X39787Y123497D01*
X39753Y123552D01*
X39718Y123615D01*
X39683Y123691D01*
X39649Y123768D01*
X39614Y123858D01*
X39586Y123948D01*
X39551Y124052D01*
X39531Y124163D01*
X39510Y124281D01*
X39503Y124399D01*
X39496Y124531D01*
Y124573D01*
X39503Y124621D01*
X39510Y124684D01*
X39517Y124760D01*
X39531Y124850D01*
X39551Y124947D01*
X39579Y125058D01*
X39614Y125170D01*
X39656Y125287D01*
X39711Y125412D01*
X39773Y125530D01*
X39850Y125648D01*
X39940Y125766D01*
X40037Y125877D01*
X40155Y125981D01*
X40162Y125988D01*
X40190Y126009D01*
X40238Y126037D01*
X40308Y126079D01*
X40398Y126127D01*
X40502Y126183D01*
X40634Y126238D01*
X40780Y126294D01*
X40953Y126356D01*
X41141Y126412D01*
X41356Y126467D01*
X41592Y126516D01*
X41849Y126558D01*
X42126Y126585D01*
X42432Y126606D01*
X42758Y126613D01*
X42772D01*
X42806D01*
X42869D01*
X42945Y126606D01*
D02*
G37*
G36*
X39773Y121741D02*
X39857Y121734D01*
X39947Y121713D01*
X40044Y121693D01*
X40141Y121658D01*
X40148D01*
X40162Y121651D01*
X40183Y121644D01*
X40218Y121630D01*
X40252Y121609D01*
X40301Y121588D01*
X40412Y121533D01*
X40544Y121464D01*
X40690Y121373D01*
X40842Y121269D01*
X40995Y121144D01*
X41002Y121137D01*
X41016Y121130D01*
X41037Y121110D01*
X41071Y121075D01*
X41106Y121040D01*
X41155Y120992D01*
X41210Y120943D01*
X41273Y120880D01*
X41342Y120811D01*
X41411Y120735D01*
X41495Y120651D01*
X41578Y120554D01*
X41668Y120457D01*
X41758Y120346D01*
X41855Y120235D01*
X41960Y120110D01*
X41967Y120096D01*
X42001Y120062D01*
X42043Y120013D01*
X42105Y119944D01*
X42175Y119860D01*
X42258Y119763D01*
X42348Y119652D01*
X42452Y119541D01*
X42667Y119305D01*
X42897Y119076D01*
X43007Y118965D01*
X43119Y118861D01*
X43223Y118771D01*
X43320Y118694D01*
X43327Y118687D01*
X43341Y118681D01*
X43368Y118660D01*
X43403Y118639D01*
X43452Y118604D01*
X43500Y118577D01*
X43625Y118507D01*
X43771Y118438D01*
X43931Y118375D01*
X44097Y118334D01*
X44180Y118327D01*
X44264Y118320D01*
X44271D01*
X44284D01*
X44312D01*
X44340Y118327D01*
X44382D01*
X44430Y118341D01*
X44534Y118361D01*
X44659Y118403D01*
X44791Y118465D01*
X44861Y118500D01*
X44923Y118549D01*
X44985Y118597D01*
X45048Y118660D01*
X45055Y118667D01*
X45062Y118674D01*
X45076Y118694D01*
X45096Y118722D01*
X45124Y118757D01*
X45152Y118798D01*
X45215Y118896D01*
X45270Y119028D01*
X45325Y119173D01*
X45360Y119347D01*
X45374Y119444D01*
Y119597D01*
X45367Y119638D01*
Y119687D01*
X45353Y119742D01*
X45332Y119867D01*
X45291Y120013D01*
X45228Y120166D01*
X45187Y120242D01*
X45145Y120318D01*
X45090Y120388D01*
X45027Y120457D01*
X45020Y120464D01*
X45013Y120471D01*
X44992Y120485D01*
X44965Y120513D01*
X44930Y120534D01*
X44888Y120561D01*
X44840Y120596D01*
X44784Y120624D01*
X44722Y120659D01*
X44652Y120686D01*
X44486Y120742D01*
X44305Y120783D01*
X44201Y120790D01*
X44090Y120797D01*
X44173Y121602D01*
X44187D01*
X44215Y121595D01*
X44257Y121588D01*
X44319Y121581D01*
X44396Y121568D01*
X44486Y121547D01*
X44583Y121526D01*
X44687Y121491D01*
X44791Y121457D01*
X44909Y121415D01*
X45020Y121359D01*
X45131Y121304D01*
X45249Y121235D01*
X45353Y121158D01*
X45457Y121075D01*
X45548Y120978D01*
X45555Y120971D01*
X45568Y120950D01*
X45589Y120922D01*
X45624Y120880D01*
X45659Y120825D01*
X45700Y120756D01*
X45742Y120679D01*
X45790Y120589D01*
X45832Y120492D01*
X45874Y120381D01*
X45915Y120263D01*
X45950Y120131D01*
X45985Y119992D01*
X46006Y119846D01*
X46020Y119687D01*
X46026Y119520D01*
Y119430D01*
X46020Y119368D01*
X46013Y119291D01*
X45999Y119201D01*
X45985Y119097D01*
X45964Y118993D01*
X45936Y118875D01*
X45902Y118757D01*
X45860Y118632D01*
X45811Y118514D01*
X45749Y118389D01*
X45679Y118271D01*
X45603Y118160D01*
X45513Y118056D01*
X45506Y118049D01*
X45492Y118035D01*
X45457Y118007D01*
X45423Y117973D01*
X45374Y117931D01*
X45312Y117883D01*
X45242Y117834D01*
X45159Y117785D01*
X45076Y117737D01*
X44978Y117688D01*
X44874Y117640D01*
X44763Y117598D01*
X44638Y117563D01*
X44513Y117535D01*
X44382Y117522D01*
X44243Y117515D01*
X44236D01*
X44229D01*
X44208D01*
X44180D01*
X44104Y117522D01*
X44007Y117535D01*
X43889Y117556D01*
X43764Y117584D01*
X43625Y117619D01*
X43486Y117674D01*
X43479D01*
X43472Y117681D01*
X43452Y117688D01*
X43424Y117702D01*
X43348Y117744D01*
X43250Y117799D01*
X43132Y117876D01*
X43001Y117966D01*
X42862Y118070D01*
X42709Y118202D01*
X42702Y118209D01*
X42688Y118216D01*
X42667Y118243D01*
X42633Y118271D01*
X42591Y118313D01*
X42543Y118361D01*
X42480Y118417D01*
X42418Y118486D01*
X42341Y118570D01*
X42258Y118660D01*
X42161Y118757D01*
X42064Y118868D01*
X41953Y118986D01*
X41842Y119118D01*
X41717Y119264D01*
X41585Y119416D01*
X41578Y119423D01*
X41557Y119444D01*
X41529Y119486D01*
X41488Y119527D01*
X41439Y119590D01*
X41384Y119652D01*
X41259Y119798D01*
X41127Y119951D01*
X40988Y120096D01*
X40925Y120166D01*
X40870Y120228D01*
X40815Y120284D01*
X40773Y120325D01*
X40766Y120332D01*
X40738Y120360D01*
X40696Y120395D01*
X40641Y120443D01*
X40578Y120499D01*
X40509Y120554D01*
X40356Y120665D01*
Y117508D01*
X39600D01*
Y121748D01*
X39614D01*
X39649D01*
X39704D01*
X39773Y121741D01*
D02*
G37*
G36*
X42945Y116654D02*
X43042D01*
X43153Y116647D01*
X43278Y116640D01*
X43410Y116633D01*
X43556Y116619D01*
X43701Y116605D01*
X44007Y116564D01*
X44305Y116508D01*
X44451Y116474D01*
X44583Y116432D01*
X44590D01*
X44611Y116418D01*
X44652Y116404D01*
X44701Y116390D01*
X44756Y116363D01*
X44826Y116335D01*
X44895Y116300D01*
X44978Y116259D01*
X45152Y116161D01*
X45325Y116036D01*
X45499Y115898D01*
X45575Y115821D01*
X45652Y115738D01*
X45659Y115731D01*
X45666Y115717D01*
X45686Y115689D01*
X45707Y115655D01*
X45742Y115613D01*
X45770Y115558D01*
X45804Y115495D01*
X45839Y115419D01*
X45874Y115342D01*
X45908Y115252D01*
X45943Y115155D01*
X45971Y115058D01*
X45992Y114947D01*
X46013Y114829D01*
X46020Y114704D01*
X46026Y114579D01*
Y114496D01*
X46020Y114447D01*
X46013Y114399D01*
X45999Y114274D01*
X45978Y114135D01*
X45936Y113982D01*
X45888Y113830D01*
X45818Y113677D01*
Y113670D01*
X45811Y113656D01*
X45797Y113635D01*
X45777Y113607D01*
X45735Y113538D01*
X45666Y113448D01*
X45582Y113344D01*
X45478Y113240D01*
X45353Y113129D01*
X45215Y113031D01*
X45208D01*
X45194Y113017D01*
X45173Y113011D01*
X45145Y112990D01*
X45110Y112969D01*
X45062Y112941D01*
X45006Y112920D01*
X44951Y112886D01*
X44812Y112823D01*
X44652Y112761D01*
X44465Y112691D01*
X44264Y112636D01*
X44257D01*
X44236Y112629D01*
X44208Y112622D01*
X44160Y112615D01*
X44104Y112601D01*
X44035Y112587D01*
X43958Y112573D01*
X43868Y112559D01*
X43764Y112552D01*
X43653Y112539D01*
X43528Y112525D01*
X43396Y112511D01*
X43250Y112504D01*
X43098Y112497D01*
X42931Y112490D01*
X42758D01*
X42744D01*
X42709D01*
X42647D01*
X42570D01*
X42473Y112497D01*
X42369Y112504D01*
X42244Y112511D01*
X42112Y112518D01*
X41967Y112532D01*
X41821Y112546D01*
X41515Y112587D01*
X41217Y112650D01*
X41071Y112684D01*
X40939Y112726D01*
X40933D01*
X40912Y112740D01*
X40870Y112747D01*
X40828Y112768D01*
X40766Y112795D01*
X40703Y112823D01*
X40627Y112858D01*
X40544Y112899D01*
X40370Y112997D01*
X40197Y113115D01*
X40023Y113253D01*
X39947Y113337D01*
X39871Y113420D01*
X39864Y113427D01*
X39857Y113441D01*
X39836Y113469D01*
X39815Y113503D01*
X39787Y113545D01*
X39753Y113601D01*
X39718Y113663D01*
X39683Y113739D01*
X39649Y113816D01*
X39614Y113906D01*
X39586Y113996D01*
X39551Y114100D01*
X39531Y114211D01*
X39510Y114329D01*
X39503Y114447D01*
X39496Y114579D01*
Y114621D01*
X39503Y114669D01*
X39510Y114732D01*
X39517Y114808D01*
X39531Y114898D01*
X39551Y114995D01*
X39579Y115106D01*
X39614Y115217D01*
X39656Y115336D01*
X39711Y115460D01*
X39773Y115578D01*
X39850Y115696D01*
X39940Y115814D01*
X40037Y115925D01*
X40155Y116030D01*
X40162Y116036D01*
X40190Y116057D01*
X40238Y116085D01*
X40308Y116127D01*
X40398Y116175D01*
X40502Y116231D01*
X40634Y116286D01*
X40780Y116342D01*
X40953Y116404D01*
X41141Y116460D01*
X41356Y116515D01*
X41592Y116564D01*
X41849Y116605D01*
X42126Y116633D01*
X42432Y116654D01*
X42758Y116661D01*
X42772D01*
X42806D01*
X42869D01*
X42945Y116654D01*
D02*
G37*
G36*
X40495Y110353D02*
X39600D01*
Y111248D01*
X40495D01*
Y110353D01*
D02*
G37*
G36*
X41557Y109207D02*
X41613D01*
X41675Y109201D01*
X41745Y109187D01*
X41821Y109173D01*
X41980Y109138D01*
X42154Y109082D01*
X42327Y109006D01*
X42411Y108958D01*
X42494Y108902D01*
X42501Y108895D01*
X42515Y108888D01*
X42536Y108867D01*
X42563Y108840D01*
X42598Y108812D01*
X42633Y108770D01*
X42681Y108722D01*
X42723Y108666D01*
X42820Y108541D01*
X42917Y108388D01*
X43001Y108208D01*
X43070Y108000D01*
Y108007D01*
X43077Y108021D01*
X43091Y108048D01*
X43105Y108076D01*
X43119Y108118D01*
X43146Y108167D01*
X43202Y108271D01*
X43271Y108388D01*
X43361Y108507D01*
X43459Y108624D01*
X43577Y108722D01*
X43584D01*
X43591Y108729D01*
X43611Y108742D01*
X43639Y108756D01*
X43709Y108798D01*
X43799Y108840D01*
X43917Y108881D01*
X44056Y108923D01*
X44208Y108951D01*
X44375Y108958D01*
X44382D01*
X44403D01*
X44444Y108951D01*
X44493D01*
X44548Y108944D01*
X44618Y108930D01*
X44694Y108916D01*
X44784Y108895D01*
X44874Y108867D01*
X44965Y108833D01*
X45062Y108798D01*
X45166Y108749D01*
X45263Y108687D01*
X45360Y108624D01*
X45457Y108548D01*
X45548Y108458D01*
X45555Y108451D01*
X45568Y108437D01*
X45589Y108409D01*
X45624Y108368D01*
X45659Y108319D01*
X45700Y108257D01*
X45742Y108187D01*
X45790Y108104D01*
X45832Y108014D01*
X45874Y107910D01*
X45915Y107806D01*
X45950Y107688D01*
X45985Y107556D01*
X46006Y107424D01*
X46020Y107278D01*
X46026Y107125D01*
Y107042D01*
X46020Y106987D01*
X46013Y106917D01*
X45999Y106834D01*
X45985Y106744D01*
X45964Y106640D01*
X45936Y106536D01*
X45908Y106424D01*
X45867Y106314D01*
X45818Y106202D01*
X45763Y106085D01*
X45693Y105980D01*
X45624Y105869D01*
X45534Y105772D01*
X45527Y105765D01*
X45513Y105751D01*
X45485Y105724D01*
X45450Y105689D01*
X45402Y105654D01*
X45346Y105613D01*
X45277Y105564D01*
X45208Y105515D01*
X45124Y105467D01*
X45034Y105418D01*
X44937Y105377D01*
X44833Y105342D01*
X44722Y105307D01*
X44604Y105279D01*
X44479Y105265D01*
X44354Y105259D01*
X44347D01*
X44333D01*
X44312D01*
X44278D01*
X44243Y105265D01*
X44194Y105272D01*
X44090Y105286D01*
X43972Y105314D01*
X43840Y105356D01*
X43709Y105418D01*
X43577Y105495D01*
X43570D01*
X43563Y105508D01*
X43521Y105536D01*
X43466Y105592D01*
X43389Y105668D01*
X43313Y105772D01*
X43223Y105890D01*
X43146Y106036D01*
X43070Y106202D01*
Y106195D01*
X43063Y106175D01*
X43049Y106147D01*
X43035Y106105D01*
X43014Y106057D01*
X42987Y106001D01*
X42917Y105869D01*
X42834Y105724D01*
X42723Y105578D01*
X42598Y105432D01*
X42445Y105307D01*
X42439Y105300D01*
X42425Y105293D01*
X42404Y105279D01*
X42369Y105259D01*
X42327Y105238D01*
X42279Y105210D01*
X42223Y105182D01*
X42161Y105148D01*
X42015Y105092D01*
X41842Y105043D01*
X41647Y105009D01*
X41543Y104995D01*
X41432D01*
X41425D01*
X41398D01*
X41356Y105002D01*
X41293D01*
X41224Y105016D01*
X41141Y105023D01*
X41050Y105043D01*
X40953Y105064D01*
X40842Y105099D01*
X40731Y105134D01*
X40620Y105182D01*
X40502Y105238D01*
X40384Y105307D01*
X40273Y105384D01*
X40155Y105474D01*
X40051Y105578D01*
X40044Y105585D01*
X40030Y105606D01*
X40003Y105640D01*
X39968Y105682D01*
X39919Y105744D01*
X39878Y105814D01*
X39822Y105897D01*
X39773Y105987D01*
X39725Y106091D01*
X39669Y106209D01*
X39628Y106334D01*
X39586Y106466D01*
X39544Y106612D01*
X39517Y106765D01*
X39503Y106931D01*
X39496Y107105D01*
Y107146D01*
X39503Y107195D01*
Y107264D01*
X39510Y107341D01*
X39524Y107438D01*
X39544Y107542D01*
X39565Y107653D01*
X39593Y107771D01*
X39635Y107896D01*
X39676Y108021D01*
X39732Y108153D01*
X39794Y108277D01*
X39871Y108402D01*
X39954Y108527D01*
X40051Y108638D01*
X40058Y108645D01*
X40079Y108666D01*
X40107Y108694D01*
X40155Y108729D01*
X40211Y108770D01*
X40273Y108819D01*
X40350Y108874D01*
X40440Y108923D01*
X40537Y108978D01*
X40641Y109034D01*
X40759Y109082D01*
X40877Y109124D01*
X41009Y109159D01*
X41155Y109187D01*
X41300Y109207D01*
X41453Y109214D01*
X41460D01*
X41481D01*
X41515D01*
X41557Y109207D01*
D02*
G37*
G36*
X40495Y102892D02*
X39600D01*
Y103787D01*
X40495D01*
Y102892D01*
D02*
G37*
G36*
X41557Y101747D02*
X41613D01*
X41675Y101740D01*
X41745Y101726D01*
X41821Y101712D01*
X41980Y101678D01*
X42154Y101622D01*
X42327Y101546D01*
X42411Y101497D01*
X42494Y101442D01*
X42501Y101435D01*
X42515Y101428D01*
X42536Y101407D01*
X42563Y101379D01*
X42598Y101351D01*
X42633Y101310D01*
X42681Y101261D01*
X42723Y101206D01*
X42820Y101081D01*
X42917Y100928D01*
X43001Y100748D01*
X43070Y100539D01*
Y100546D01*
X43077Y100560D01*
X43091Y100588D01*
X43105Y100616D01*
X43119Y100657D01*
X43146Y100706D01*
X43202Y100810D01*
X43271Y100928D01*
X43361Y101046D01*
X43459Y101164D01*
X43577Y101261D01*
X43584D01*
X43591Y101268D01*
X43611Y101282D01*
X43639Y101296D01*
X43709Y101338D01*
X43799Y101379D01*
X43917Y101421D01*
X44056Y101462D01*
X44208Y101490D01*
X44375Y101497D01*
X44382D01*
X44403D01*
X44444Y101490D01*
X44493D01*
X44548Y101483D01*
X44618Y101469D01*
X44694Y101455D01*
X44784Y101435D01*
X44874Y101407D01*
X44965Y101372D01*
X45062Y101338D01*
X45166Y101289D01*
X45263Y101226D01*
X45360Y101164D01*
X45457Y101088D01*
X45548Y100997D01*
X45555Y100990D01*
X45568Y100977D01*
X45589Y100949D01*
X45624Y100907D01*
X45659Y100859D01*
X45700Y100796D01*
X45742Y100727D01*
X45790Y100644D01*
X45832Y100553D01*
X45874Y100449D01*
X45915Y100345D01*
X45950Y100227D01*
X45985Y100095D01*
X46006Y99963D01*
X46020Y99818D01*
X46026Y99665D01*
Y99582D01*
X46020Y99526D01*
X46013Y99457D01*
X45999Y99374D01*
X45985Y99283D01*
X45964Y99179D01*
X45936Y99075D01*
X45908Y98964D01*
X45867Y98853D01*
X45818Y98742D01*
X45763Y98624D01*
X45693Y98520D01*
X45624Y98409D01*
X45534Y98312D01*
X45527Y98305D01*
X45513Y98291D01*
X45485Y98263D01*
X45450Y98228D01*
X45402Y98194D01*
X45346Y98152D01*
X45277Y98103D01*
X45208Y98055D01*
X45124Y98006D01*
X45034Y97958D01*
X44937Y97916D01*
X44833Y97881D01*
X44722Y97847D01*
X44604Y97819D01*
X44479Y97805D01*
X44354Y97798D01*
X44347D01*
X44333D01*
X44312D01*
X44278D01*
X44243Y97805D01*
X44194Y97812D01*
X44090Y97826D01*
X43972Y97854D01*
X43840Y97895D01*
X43709Y97958D01*
X43577Y98034D01*
X43570D01*
X43563Y98048D01*
X43521Y98076D01*
X43466Y98131D01*
X43389Y98208D01*
X43313Y98312D01*
X43223Y98430D01*
X43146Y98575D01*
X43070Y98742D01*
Y98735D01*
X43063Y98714D01*
X43049Y98686D01*
X43035Y98645D01*
X43014Y98596D01*
X42987Y98541D01*
X42917Y98409D01*
X42834Y98263D01*
X42723Y98117D01*
X42598Y97972D01*
X42445Y97847D01*
X42439Y97840D01*
X42425Y97833D01*
X42404Y97819D01*
X42369Y97798D01*
X42327Y97777D01*
X42279Y97750D01*
X42223Y97722D01*
X42161Y97687D01*
X42015Y97632D01*
X41842Y97583D01*
X41647Y97548D01*
X41543Y97534D01*
X41432D01*
X41425D01*
X41398D01*
X41356Y97541D01*
X41293D01*
X41224Y97555D01*
X41141Y97562D01*
X41050Y97583D01*
X40953Y97604D01*
X40842Y97638D01*
X40731Y97673D01*
X40620Y97722D01*
X40502Y97777D01*
X40384Y97847D01*
X40273Y97923D01*
X40155Y98013D01*
X40051Y98117D01*
X40044Y98124D01*
X40030Y98145D01*
X40003Y98180D01*
X39968Y98221D01*
X39919Y98284D01*
X39878Y98353D01*
X39822Y98437D01*
X39773Y98527D01*
X39725Y98631D01*
X39669Y98749D01*
X39628Y98874D01*
X39586Y99006D01*
X39544Y99151D01*
X39517Y99304D01*
X39503Y99471D01*
X39496Y99644D01*
Y99686D01*
X39503Y99734D01*
Y99804D01*
X39510Y99880D01*
X39524Y99977D01*
X39544Y100081D01*
X39565Y100192D01*
X39593Y100310D01*
X39635Y100435D01*
X39676Y100560D01*
X39732Y100692D01*
X39794Y100817D01*
X39871Y100942D01*
X39954Y101067D01*
X40051Y101178D01*
X40058Y101185D01*
X40079Y101206D01*
X40107Y101233D01*
X40155Y101268D01*
X40211Y101310D01*
X40273Y101358D01*
X40350Y101414D01*
X40440Y101462D01*
X40537Y101518D01*
X40641Y101574D01*
X40759Y101622D01*
X40877Y101664D01*
X41009Y101698D01*
X41155Y101726D01*
X41300Y101747D01*
X41453Y101754D01*
X41460D01*
X41481D01*
X41515D01*
X41557Y101747D01*
D02*
G37*
G36*
X56106Y130361D02*
Y129576D01*
X53815Y130055D01*
X53822Y130048D01*
X53829Y130041D01*
X53850Y130020D01*
X53871Y129993D01*
X53933Y129923D01*
X54003Y129833D01*
X54086Y129729D01*
X54162Y129618D01*
X54239Y129500D01*
X54301Y129389D01*
Y129382D01*
X54308Y129375D01*
X54322Y129340D01*
X54350Y129278D01*
X54378Y129202D01*
X54398Y129104D01*
X54426Y129000D01*
X54440Y128889D01*
X54447Y128771D01*
Y128709D01*
X54440Y128667D01*
X54433Y128612D01*
X54419Y128549D01*
X54405Y128473D01*
X54384Y128397D01*
X54364Y128320D01*
X54329Y128230D01*
X54287Y128140D01*
X54246Y128057D01*
X54183Y127966D01*
X54121Y127876D01*
X54044Y127793D01*
X53961Y127709D01*
X53954Y127703D01*
X53940Y127689D01*
X53913Y127668D01*
X53871Y127640D01*
X53822Y127612D01*
X53760Y127578D01*
X53684Y127536D01*
X53600Y127494D01*
X53510Y127460D01*
X53399Y127418D01*
X53288Y127383D01*
X53156Y127349D01*
X53024Y127328D01*
X52872Y127307D01*
X52712Y127293D01*
X52545Y127286D01*
X52539D01*
X52518D01*
X52483D01*
X52441D01*
X52386Y127293D01*
X52323D01*
X52254Y127300D01*
X52171Y127307D01*
X51997Y127328D01*
X51810Y127363D01*
X51609Y127404D01*
X51414Y127460D01*
X51407D01*
X51393Y127467D01*
X51366Y127480D01*
X51331Y127487D01*
X51289Y127508D01*
X51234Y127529D01*
X51116Y127578D01*
X50984Y127640D01*
X50838Y127709D01*
X50699Y127793D01*
X50561Y127883D01*
X50554D01*
X50547Y127897D01*
X50505Y127925D01*
X50443Y127973D01*
X50359Y128043D01*
X50276Y128119D01*
X50179Y128209D01*
X50089Y128306D01*
X50005Y128403D01*
X49998Y128417D01*
X49971Y128452D01*
X49936Y128501D01*
X49887Y128577D01*
X49839Y128660D01*
X49790Y128751D01*
X49742Y128855D01*
X49700Y128959D01*
X49693Y128973D01*
X49686Y129007D01*
X49665Y129063D01*
X49651Y129132D01*
X49631Y129216D01*
X49610Y129306D01*
X49603Y129403D01*
X49596Y129500D01*
Y129542D01*
X49603Y129576D01*
Y129611D01*
X49610Y129660D01*
X49624Y129764D01*
X49651Y129889D01*
X49693Y130020D01*
X49755Y130159D01*
X49832Y130291D01*
Y130298D01*
X49846Y130305D01*
X49880Y130347D01*
X49936Y130409D01*
X50012Y130485D01*
X50116Y130569D01*
X50248Y130659D01*
X50394Y130742D01*
X50568Y130819D01*
X49700Y131006D01*
Y131700D01*
X56106Y130361D01*
D02*
G37*
G36*
X48659Y126981D02*
Y126967D01*
X48645Y126939D01*
X48638Y126891D01*
X48624Y126828D01*
X48610Y126759D01*
X48597Y126682D01*
X48590Y126592D01*
X48583Y126509D01*
Y126467D01*
X48590Y126426D01*
X48597Y126370D01*
X48610Y126308D01*
X48631Y126245D01*
X48659Y126176D01*
X48694Y126120D01*
X48701Y126113D01*
X48722Y126085D01*
X48763Y126044D01*
X48819Y125995D01*
X48888Y125933D01*
X48985Y125864D01*
X49096Y125787D01*
X49235Y125704D01*
X49686Y125447D01*
X54343Y126217D01*
Y125440D01*
X51990Y125093D01*
X51983D01*
X51962Y125086D01*
X51921D01*
X51872Y125072D01*
X51810Y125065D01*
X51733Y125058D01*
X51650Y125045D01*
X51560Y125031D01*
X51456Y125017D01*
X51345Y125003D01*
X51109Y124975D01*
X50859Y124940D01*
X50602Y124913D01*
X54343Y122838D01*
Y122026D01*
X49089Y124975D01*
X49082Y124982D01*
X49055Y124996D01*
X49020Y125017D01*
X48964Y125045D01*
X48902Y125086D01*
X48832Y125128D01*
X48673Y125225D01*
X48499Y125343D01*
X48333Y125475D01*
X48256Y125537D01*
X48187Y125607D01*
X48125Y125669D01*
X48069Y125732D01*
Y125739D01*
X48055Y125745D01*
X48048Y125766D01*
X48028Y125787D01*
X47993Y125856D01*
X47944Y125954D01*
X47896Y126065D01*
X47861Y126197D01*
X47833Y126335D01*
X47819Y126495D01*
Y126544D01*
X47826Y126599D01*
X47833Y126669D01*
X47840Y126745D01*
X47861Y126835D01*
X47882Y126932D01*
X47916Y127029D01*
X48659Y126981D01*
D02*
G37*
G36*
X56106Y118806D02*
Y113718D01*
X55384Y113871D01*
Y115960D01*
X49700Y117147D01*
Y117993D01*
X55384Y116807D01*
Y118958D01*
X56106Y118806D01*
D02*
G37*
G36*
X54343Y113358D02*
Y112566D01*
X49700Y113538D01*
Y114322D01*
X54343Y113358D01*
D02*
G37*
G36*
X56106Y112983D02*
Y112199D01*
X55210Y112386D01*
Y113170D01*
X56106Y112983D01*
D02*
G37*
G36*
X54343Y111359D02*
Y110568D01*
X53572Y110734D01*
X53579Y110727D01*
X53593Y110713D01*
X53621Y110693D01*
X53656Y110658D01*
X53690Y110623D01*
X53739Y110575D01*
X53843Y110470D01*
X53954Y110346D01*
X54065Y110214D01*
X54169Y110075D01*
X54211Y110006D01*
X54253Y109943D01*
Y109936D01*
X54260Y109929D01*
X54273Y109908D01*
X54280Y109881D01*
X54315Y109811D01*
X54350Y109721D01*
X54384Y109603D01*
X54419Y109478D01*
X54440Y109339D01*
X54447Y109187D01*
Y109110D01*
X54433Y109034D01*
X54419Y108930D01*
X54391Y108819D01*
X54350Y108694D01*
X54287Y108576D01*
X54211Y108458D01*
X54197Y108444D01*
X54169Y108409D01*
X54114Y108361D01*
X54044Y108298D01*
X53954Y108236D01*
X53843Y108173D01*
X53718Y108118D01*
X53572Y108076D01*
X53579Y108069D01*
X53593Y108062D01*
X53614Y108042D01*
X53642Y108014D01*
X53725Y107944D01*
X53815Y107847D01*
X53926Y107736D01*
X54031Y107611D01*
X54135Y107479D01*
X54225Y107334D01*
Y107327D01*
X54232Y107313D01*
X54246Y107292D01*
X54260Y107264D01*
X54273Y107230D01*
X54294Y107188D01*
X54336Y107084D01*
X54378Y106959D01*
X54412Y106820D01*
X54440Y106667D01*
X54447Y106508D01*
Y106452D01*
X54440Y106411D01*
Y106362D01*
X54433Y106307D01*
X54412Y106182D01*
X54378Y106036D01*
X54329Y105890D01*
X54260Y105751D01*
X54169Y105633D01*
X54155Y105620D01*
X54121Y105585D01*
X54058Y105543D01*
X53968Y105488D01*
X53857Y105432D01*
X53725Y105391D01*
X53572Y105356D01*
X53392Y105342D01*
X53385D01*
X53350D01*
X53295Y105349D01*
X53225Y105356D01*
X53128Y105370D01*
X53003Y105384D01*
X52858Y105411D01*
X52684Y105446D01*
X49700Y106078D01*
Y106862D01*
X52767Y106223D01*
X52774D01*
X52781Y106216D01*
X52802D01*
X52830Y106209D01*
X52892Y106195D01*
X52976Y106182D01*
X53066Y106168D01*
X53149Y106154D01*
X53233Y106140D01*
X53302D01*
X53309D01*
X53337D01*
X53378Y106147D01*
X53434Y106161D01*
X53489Y106175D01*
X53552Y106202D01*
X53607Y106237D01*
X53663Y106286D01*
X53670Y106293D01*
X53684Y106314D01*
X53704Y106348D01*
X53732Y106390D01*
X53753Y106452D01*
X53774Y106522D01*
X53788Y106605D01*
X53795Y106695D01*
Y106758D01*
X53781Y106827D01*
X53767Y106917D01*
X53739Y107028D01*
X53704Y107146D01*
X53649Y107278D01*
X53579Y107417D01*
Y107424D01*
X53572Y107431D01*
X53559Y107452D01*
X53538Y107479D01*
X53496Y107542D01*
X53427Y107625D01*
X53350Y107722D01*
X53253Y107812D01*
X53142Y107910D01*
X53017Y107993D01*
X53010D01*
X53003Y108000D01*
X52983Y108014D01*
X52955Y108028D01*
X52913Y108042D01*
X52872Y108062D01*
X52816Y108090D01*
X52754Y108111D01*
X52684Y108139D01*
X52601Y108167D01*
X52518Y108194D01*
X52421Y108229D01*
X52316Y108257D01*
X52205Y108284D01*
X52080Y108319D01*
X51949Y108347D01*
X49700Y108819D01*
Y109603D01*
X52830Y108951D01*
X52837D01*
X52844D01*
X52886Y108937D01*
X52941Y108930D01*
X53003Y108916D01*
X53156Y108895D01*
X53225Y108881D01*
X53281D01*
X53288D01*
X53323D01*
X53364Y108888D01*
X53413Y108902D01*
X53468Y108916D01*
X53531Y108944D01*
X53593Y108978D01*
X53649Y109027D01*
X53656Y109034D01*
X53670Y109055D01*
X53697Y109082D01*
X53725Y109124D01*
X53746Y109180D01*
X53774Y109242D01*
X53788Y109312D01*
X53795Y109395D01*
Y109450D01*
X53781Y109520D01*
X53767Y109610D01*
X53739Y109714D01*
X53704Y109832D01*
X53649Y109964D01*
X53579Y110103D01*
Y110110D01*
X53572Y110117D01*
X53559Y110137D01*
X53538Y110165D01*
X53489Y110235D01*
X53427Y110318D01*
X53337Y110408D01*
X53239Y110512D01*
X53121Y110609D01*
X52983Y110706D01*
X52976D01*
X52962Y110713D01*
X52941Y110727D01*
X52913Y110741D01*
X52872Y110762D01*
X52823Y110790D01*
X52767Y110811D01*
X52705Y110838D01*
X52629Y110866D01*
X52545Y110901D01*
X52455Y110929D01*
X52358Y110963D01*
X52254Y110991D01*
X52136Y111026D01*
X52018Y111054D01*
X51886Y111081D01*
X49700Y111539D01*
Y112323D01*
X54343Y111359D01*
D02*
G37*
G36*
X51588Y104724D02*
X51685Y104717D01*
X51796Y104703D01*
X51935Y104690D01*
X52087Y104662D01*
X52247Y104634D01*
X52421Y104592D01*
X52608Y104537D01*
X52788Y104474D01*
X52983Y104391D01*
X53170Y104301D01*
X53357Y104197D01*
X53538Y104072D01*
X53711Y103933D01*
X53718Y103926D01*
X53746Y103905D01*
X53781Y103864D01*
X53829Y103815D01*
X53885Y103746D01*
X53947Y103669D01*
X54010Y103572D01*
X54079Y103468D01*
X54149Y103350D01*
X54211Y103218D01*
X54273Y103079D01*
X54329Y102927D01*
X54378Y102760D01*
X54412Y102587D01*
X54440Y102399D01*
X54447Y102205D01*
Y102122D01*
X54440Y102066D01*
X54433Y101997D01*
X54419Y101913D01*
X54405Y101823D01*
X54384Y101719D01*
X54357Y101615D01*
X54315Y101504D01*
X54273Y101393D01*
X54225Y101282D01*
X54162Y101164D01*
X54093Y101060D01*
X54010Y100949D01*
X53920Y100852D01*
X53913Y100845D01*
X53899Y100831D01*
X53864Y100803D01*
X53822Y100768D01*
X53767Y100734D01*
X53704Y100692D01*
X53628Y100644D01*
X53545Y100595D01*
X53448Y100546D01*
X53343Y100498D01*
X53225Y100456D01*
X53101Y100421D01*
X52962Y100387D01*
X52823Y100359D01*
X52663Y100345D01*
X52504Y100338D01*
X52497D01*
X52469D01*
X52427D01*
X52372Y100345D01*
X52296D01*
X52212Y100352D01*
X52122Y100366D01*
X52018Y100380D01*
X51907Y100394D01*
X51789Y100415D01*
X51539Y100477D01*
X51275Y100553D01*
X51143Y100609D01*
X51012Y100664D01*
X51005Y100671D01*
X50984Y100678D01*
X50949Y100699D01*
X50901Y100727D01*
X50838Y100754D01*
X50776Y100796D01*
X50699Y100845D01*
X50623Y100900D01*
X50540Y100963D01*
X50450Y101032D01*
X50276Y101192D01*
X50109Y101379D01*
X50026Y101476D01*
X49957Y101587D01*
X49950Y101594D01*
X49943Y101615D01*
X49922Y101643D01*
X49901Y101691D01*
X49874Y101747D01*
X49846Y101809D01*
X49811Y101879D01*
X49776Y101962D01*
X49742Y102052D01*
X49707Y102149D01*
X49651Y102365D01*
X49610Y102594D01*
X49603Y102712D01*
X49596Y102837D01*
Y102892D01*
X49603Y102927D01*
Y102975D01*
X49610Y103031D01*
X49617Y103093D01*
X49624Y103163D01*
X49651Y103315D01*
X49693Y103482D01*
X49749Y103648D01*
X49825Y103822D01*
Y103829D01*
X49839Y103843D01*
X49846Y103864D01*
X49867Y103891D01*
X49922Y103975D01*
X49992Y104072D01*
X50082Y104183D01*
X50200Y104294D01*
X50325Y104405D01*
X50477Y104502D01*
X50484D01*
X50498Y104509D01*
X50519Y104523D01*
X50554Y104537D01*
X50595Y104558D01*
X50644Y104571D01*
X50699Y104592D01*
X50762Y104613D01*
X50901Y104662D01*
X51067Y104697D01*
X51255Y104724D01*
X51456Y104731D01*
X51463D01*
X51470D01*
X51490D01*
X51518D01*
X51588Y104724D01*
D02*
G37*
%LPC*%
G36*
X162100Y166764D02*
Y166731D01*
D01*
Y166764D01*
D02*
G37*
G36*
X155045Y169442D02*
X153422D01*
X153356Y169209D01*
X153300Y168986D01*
X153256Y168775D01*
X153223Y168575D01*
X153189Y168420D01*
X153167Y168298D01*
Y168253D01*
X153156Y168220D01*
Y168186D01*
X153134Y167942D01*
X153112Y167709D01*
X153100Y167487D01*
X153089Y167275D01*
X153078Y167109D01*
Y163287D01*
X162100D01*
X155867D01*
X156056Y163298D01*
X156233Y163320D01*
X156389Y163342D01*
X156533Y163376D01*
X156633Y163420D01*
X156722Y163443D01*
X156767Y163465D01*
X156789Y163476D01*
X156933Y163554D01*
X157055Y163631D01*
X157178Y163709D01*
X157278Y163787D01*
X157355Y163865D01*
X157411Y163909D01*
X157456Y163953D01*
X157467Y163965D01*
X157667Y164198D01*
X157744Y164309D01*
X157822Y164420D01*
X157878Y164509D01*
X157922Y164587D01*
X157944Y164631D01*
X157955Y164653D01*
X158100Y164931D01*
X158155Y165065D01*
X158211Y165187D01*
X158255Y165287D01*
X158289Y165376D01*
X158300Y165420D01*
X158311Y165442D01*
X158422Y165731D01*
X158466Y165864D01*
X158511Y165987D01*
X158544Y166087D01*
X158578Y166164D01*
X158589Y166209D01*
X158600Y166231D01*
X158655Y166364D01*
X158700Y166498D01*
X158755Y166609D01*
X158800Y166709D01*
X158833Y166798D01*
X158866Y166853D01*
X158878Y166898D01*
X158889Y166909D01*
X158955Y167020D01*
X159011Y167109D01*
X159078Y167198D01*
X159133Y167264D01*
X159177Y167320D01*
X159211Y167364D01*
X159233Y167386D01*
X159244Y167398D01*
X159322Y167453D01*
X159400Y167498D01*
X159489Y167531D01*
X159555Y167553D01*
X159622Y167564D01*
X159678Y167575D01*
X159711D01*
X159722D01*
X159877Y167564D01*
X160000Y167531D01*
X160044Y167520D01*
X160077Y167509D01*
X160100Y167498D01*
X160111D01*
X160244Y167420D01*
X160333Y167320D01*
X160400Y167253D01*
X160422Y167231D01*
Y167220D01*
X160500Y167053D01*
X160566Y166898D01*
X160589Y166820D01*
X160600Y166764D01*
X160611Y166731D01*
Y166720D01*
X160633Y166598D01*
X160655Y166475D01*
X160666Y166353D01*
X160677Y166242D01*
X160688Y166142D01*
Y165798D01*
X160677Y165720D01*
Y165642D01*
X160666Y165576D01*
Y165520D01*
X160655Y165487D01*
Y165476D01*
X160633Y165276D01*
X160622Y165176D01*
X160611Y165098D01*
X160600Y165031D01*
X160589Y164976D01*
X160577Y164942D01*
Y164931D01*
X160544Y164731D01*
X160522Y164642D01*
X160511Y164565D01*
X160488Y164498D01*
X160477Y164453D01*
X160466Y164420D01*
Y164409D01*
X160411Y164231D01*
X160389Y164142D01*
X160366Y164076D01*
X160355Y164020D01*
X160333Y163965D01*
X160322Y163942D01*
Y163931D01*
X161822D01*
X161855Y164098D01*
X161888Y164253D01*
X161899Y164320D01*
X161911Y164365D01*
X161922Y164398D01*
Y164409D01*
X161955Y164598D01*
X161977Y164687D01*
X161988Y164776D01*
X161999Y164842D01*
Y164898D01*
X162011Y164931D01*
Y164942D01*
X162033Y165142D01*
X162044Y165242D01*
X162055Y165331D01*
Y165398D01*
X162066Y165464D01*
Y165509D01*
X162088Y165709D01*
Y165798D01*
X162100Y165875D01*
Y166042D01*
X162088Y166364D01*
X162066Y166653D01*
X162033Y166909D01*
X161999Y167131D01*
X161977Y167231D01*
X161955Y167320D01*
X161933Y167386D01*
X161922Y167453D01*
X161911Y167498D01*
X161899Y167531D01*
X161888Y167553D01*
Y167564D01*
X161811Y167787D01*
X161722Y167986D01*
X161633Y168164D01*
X161544Y168309D01*
X161466Y168431D01*
X161399Y168509D01*
X161355Y168564D01*
X161344Y168586D01*
X161211Y168731D01*
X161077Y168842D01*
X160933Y168953D01*
X160811Y169031D01*
X160700Y169097D01*
X160611Y169142D01*
X160555Y169164D01*
X160533Y169175D01*
X160366Y169231D01*
X160188Y169275D01*
X160022Y169308D01*
X159877Y169331D01*
X159755Y169342D01*
X159655Y169353D01*
X159589D01*
X159578D01*
X159566D01*
X159366Y169342D01*
X159177Y169320D01*
X159011Y169297D01*
X158866Y169264D01*
X158755Y169231D01*
X158667Y169197D01*
X158622Y169186D01*
X158600Y169175D01*
X158455Y169097D01*
X158333Y169020D01*
X158211Y168942D01*
X158111Y168864D01*
X158033Y168786D01*
X157978Y168731D01*
X157933Y168698D01*
X157922Y168686D01*
X157722Y168453D01*
X157644Y168342D01*
X157567Y168231D01*
X157511Y168142D01*
X157467Y168075D01*
X157444Y168020D01*
X157433Y168009D01*
X157300Y167720D01*
X157244Y167587D01*
X157189Y167475D01*
X157144Y167375D01*
X157111Y167298D01*
X157100Y167253D01*
X157089Y167231D01*
X156989Y166942D01*
X156933Y166809D01*
X156900Y166687D01*
X156867Y166598D01*
X156833Y166520D01*
X156822Y166464D01*
X156811Y166453D01*
X156755Y166309D01*
X156711Y166187D01*
X156656Y166064D01*
X156611Y165964D01*
X156567Y165875D01*
X156544Y165820D01*
X156522Y165776D01*
X156511Y165764D01*
X156445Y165653D01*
X156378Y165565D01*
X156311Y165476D01*
X156256Y165409D01*
X156200Y165353D01*
X156156Y165309D01*
X156133Y165287D01*
X156122Y165276D01*
X156044Y165209D01*
X155956Y165164D01*
X155856Y165131D01*
X155778Y165109D01*
X155700Y165098D01*
X155645Y165087D01*
X155600D01*
X155589D01*
X155422Y165098D01*
X155289Y165131D01*
X155234Y165153D01*
X155189Y165176D01*
X155167Y165187D01*
X155156D01*
X155089Y165220D01*
X155022Y165276D01*
X154922Y165365D01*
X154878Y165420D01*
X154845Y165453D01*
X154833Y165476D01*
X154822Y165487D01*
X154778Y165576D01*
X154734Y165665D01*
X154667Y165842D01*
X154645Y165909D01*
X154622Y165975D01*
X154611Y166020D01*
Y166031D01*
X154589Y166153D01*
X154567Y166287D01*
X154556Y166420D01*
X154545Y166542D01*
X154534Y166653D01*
Y166820D01*
X154545Y167053D01*
Y167164D01*
X154556Y167253D01*
Y167342D01*
X154567Y167409D01*
Y167464D01*
X154600Y167709D01*
X154622Y167820D01*
X154645Y167931D01*
X154656Y168020D01*
X154667Y168086D01*
X154678Y168131D01*
Y168142D01*
X154734Y168386D01*
X154756Y168498D01*
X154778Y168597D01*
X154800Y168686D01*
X154822Y168753D01*
X154833Y168798D01*
Y168809D01*
X154911Y169053D01*
X154945Y169153D01*
X154978Y169253D01*
X155000Y169331D01*
X155022Y169386D01*
X155045Y169431D01*
Y169442D01*
D02*
G37*
G36*
X161955Y162009D02*
X153234D01*
Y155421D01*
Y159798D01*
X153245Y159376D01*
X153278Y158999D01*
X153311Y158832D01*
X153334Y158665D01*
X153356Y158510D01*
X153389Y158376D01*
X153422Y158254D01*
X153445Y158143D01*
X153478Y158043D01*
X153500Y157965D01*
X153511Y157899D01*
X153534Y157854D01*
X153545Y157832D01*
Y157821D01*
X153678Y157521D01*
X153823Y157254D01*
X153967Y157021D01*
X154111Y156832D01*
X154245Y156676D01*
X154345Y156554D01*
X154389Y156521D01*
X154422Y156488D01*
X154434Y156476D01*
X154445Y156465D01*
X154678Y156277D01*
X154911Y156121D01*
X155156Y155976D01*
X155367Y155865D01*
X155567Y155788D01*
X155645Y155754D01*
X155722Y155721D01*
X155778Y155699D01*
X155822Y155688D01*
X155844Y155677D01*
X155856D01*
X156178Y155588D01*
X156500Y155532D01*
X156811Y155488D01*
X157089Y155454D01*
X157222Y155443D01*
X157333Y155432D01*
X157444D01*
X157533Y155421D01*
X157700D01*
X158100Y155432D01*
X158466Y155465D01*
X158633Y155477D01*
X158789Y155499D01*
X158944Y155521D01*
X159078Y155543D01*
X159189Y155577D01*
X159300Y155599D01*
X159389Y155621D01*
X159466Y155632D01*
X159533Y155654D01*
X159578Y155666D01*
X159600Y155677D01*
X159611D01*
X159900Y155777D01*
X160155Y155899D01*
X160377Y156032D01*
X160566Y156154D01*
X160722Y156265D01*
X160833Y156354D01*
X160866Y156388D01*
X160900Y156410D01*
X160911Y156421D01*
X160922Y156432D01*
X161111Y156632D01*
X161266Y156843D01*
X161399Y157043D01*
X161511Y157243D01*
X161588Y157421D01*
X161622Y157499D01*
X161655Y157565D01*
X161677Y157610D01*
X161688Y157654D01*
X161699Y157676D01*
Y157687D01*
X161788Y157976D01*
X161844Y158276D01*
X161888Y158565D01*
X161922Y158843D01*
X161933Y158965D01*
X161944Y159076D01*
Y159176D01*
X161955Y159265D01*
Y162009D01*
D02*
G37*
G36*
Y154221D02*
X153234D01*
Y147900D01*
D01*
X156156Y149288D01*
X156356Y149388D01*
X156522Y149488D01*
X156667Y149577D01*
X156789Y149655D01*
X156878Y149722D01*
X156944Y149777D01*
X156989Y149811D01*
X157000Y149822D01*
X157100Y149922D01*
X157189Y150022D01*
X157244Y150122D01*
X157300Y150210D01*
X157333Y150299D01*
X157355Y150355D01*
X157367Y150399D01*
Y150410D01*
X157400Y150255D01*
X157433Y150122D01*
X157467Y149988D01*
X157511Y149877D01*
X157544Y149788D01*
X157578Y149711D01*
X157589Y149666D01*
X157600Y149655D01*
X157667Y149522D01*
X157733Y149410D01*
X157811Y149311D01*
X157878Y149222D01*
X157944Y149155D01*
X157989Y149099D01*
X158022Y149066D01*
X158033Y149055D01*
X158144Y148966D01*
X158255Y148888D01*
X158355Y148811D01*
X158455Y148755D01*
X158544Y148711D01*
X158611Y148677D01*
X158667Y148666D01*
X158678Y148655D01*
X158822Y148611D01*
X158977Y148566D01*
X159122Y148544D01*
X159255Y148533D01*
X159366Y148522D01*
X159466Y148511D01*
X159522D01*
X159544D01*
X159789Y148522D01*
X160000Y148544D01*
X160188Y148588D01*
X160355Y148622D01*
X160488Y148666D01*
X160589Y148711D01*
X160644Y148733D01*
X160666Y148744D01*
X160833Y148833D01*
X160977Y148933D01*
X161111Y149044D01*
X161211Y149144D01*
X161300Y149233D01*
X161355Y149311D01*
X161399Y149355D01*
X161411Y149377D01*
X161511Y149533D01*
X161600Y149711D01*
X161666Y149877D01*
X161722Y150033D01*
X161766Y150166D01*
X161800Y150277D01*
X161811Y150321D01*
X161822Y150355D01*
Y150377D01*
X161866Y150599D01*
X161899Y150833D01*
X161922Y151055D01*
X161944Y151255D01*
Y151433D01*
X161955Y151499D01*
Y154221D01*
D02*
G37*
G36*
Y146666D02*
X153234D01*
Y140611D01*
X161955D01*
D01*
X159177D01*
X159422Y140622D01*
X159644Y140645D01*
X159844Y140689D01*
X160022Y140723D01*
X160155Y140767D01*
X160266Y140811D01*
X160333Y140834D01*
X160355Y140845D01*
X160544Y140945D01*
X160711Y141045D01*
X160855Y141156D01*
X160988Y141267D01*
X161088Y141367D01*
X161155Y141445D01*
X161211Y141500D01*
X161222Y141522D01*
X161344Y141700D01*
X161455Y141878D01*
X161555Y142067D01*
X161633Y142234D01*
X161688Y142389D01*
X161733Y142511D01*
X161744Y142556D01*
X161755Y142589D01*
X161766Y142611D01*
Y142622D01*
X161833Y142867D01*
X161877Y143122D01*
X161911Y143378D01*
X161933Y143611D01*
X161944Y143811D01*
X161955Y143900D01*
Y146666D01*
D02*
G37*
G36*
X154500Y139100D02*
X153234D01*
Y133323D01*
X162666D01*
D01*
X154500D01*
Y135279D01*
X162666D01*
Y138867D01*
X161399D01*
Y136945D01*
X154500D01*
Y139100D01*
D02*
G37*
G36*
X160155Y131823D02*
Y129101D01*
X160133Y129346D01*
X160111Y129568D01*
X160089Y129768D01*
X160066Y129935D01*
X160055Y130013D01*
X160044Y130068D01*
X160033Y130112D01*
Y130146D01*
X160022Y130168D01*
Y130179D01*
X159966Y130412D01*
X159911Y130623D01*
X159866Y130812D01*
X159811Y130968D01*
X159766Y131101D01*
X159733Y131201D01*
X159711Y131268D01*
X159700Y131279D01*
Y131290D01*
X158400D01*
X158489Y131090D01*
X158566Y130890D01*
X158622Y130690D01*
X158678Y130524D01*
X158722Y130379D01*
X158755Y130268D01*
X158766Y130224D01*
Y130190D01*
X158778Y130179D01*
Y130168D01*
X158822Y129946D01*
X158866Y129735D01*
X158889Y129535D01*
X158900Y129357D01*
X158911Y129201D01*
X158922Y129079D01*
Y128846D01*
X158911Y128724D01*
X158900Y128613D01*
X158878Y128524D01*
X158866Y128446D01*
X158844Y128390D01*
X158833Y128357D01*
Y128346D01*
X158800Y128246D01*
X158766Y128168D01*
X158733Y128090D01*
X158689Y128035D01*
X158667Y127990D01*
X158633Y127957D01*
X158622Y127935D01*
X158611Y127924D01*
X158500Y127813D01*
X158378Y127735D01*
X158333Y127713D01*
X158289Y127690D01*
X158266Y127679D01*
X158255D01*
X158089Y127635D01*
X157944Y127613D01*
X157878Y127602D01*
X157833D01*
X157800D01*
X157789D01*
X157389D01*
Y128490D01*
X157378Y128802D01*
X157367Y129079D01*
X157333Y129324D01*
X157300Y129546D01*
X157289Y129635D01*
X157267Y129724D01*
X157255Y129790D01*
X157244Y129857D01*
X157233Y129901D01*
X157222Y129935D01*
X157211Y129957D01*
Y129968D01*
X157144Y130190D01*
X157067Y130390D01*
X156989Y130568D01*
X156922Y130724D01*
X156855Y130846D01*
X156800Y130935D01*
X156767Y130990D01*
X156755Y131012D01*
X156644Y131157D01*
X156522Y131279D01*
X156411Y131390D01*
X156300Y131468D01*
X156200Y131535D01*
X156122Y131590D01*
X156078Y131612D01*
X156056Y131623D01*
X155900Y131690D01*
X155745Y131735D01*
X155589Y131779D01*
X155456Y131801D01*
X155345Y131812D01*
X155245Y131823D01*
X155167D01*
X155000Y131812D01*
X154833Y131801D01*
X154689Y131779D01*
X154567Y131757D01*
X154456Y131735D01*
X154378Y131712D01*
X154334Y131690D01*
X154311D01*
X154167Y131634D01*
X154045Y131568D01*
X153934Y131501D01*
X153834Y131435D01*
X153756Y131379D01*
X153689Y131334D01*
X153656Y131301D01*
X153645Y131290D01*
X153556Y131190D01*
X153467Y131079D01*
X153400Y130968D01*
X153345Y130857D01*
X153289Y130768D01*
X153256Y130701D01*
X153245Y130657D01*
X153234Y130635D01*
X153178Y130479D01*
X153145Y130324D01*
X153112Y130168D01*
X153100Y130024D01*
X153089Y129901D01*
X153078Y129801D01*
Y129568D01*
X153089Y129435D01*
X153100Y129313D01*
X153123Y129201D01*
X153134Y129113D01*
X153145Y129046D01*
X153156Y129001D01*
Y128990D01*
X153223Y128757D01*
X153256Y128646D01*
X153289Y128557D01*
X153323Y128479D01*
X153345Y128424D01*
X153367Y128390D01*
Y128379D01*
X153478Y128179D01*
X153534Y128090D01*
X153589Y128013D01*
X153634Y127946D01*
X153667Y127902D01*
X153689Y127868D01*
X153700Y127857D01*
X153845Y127690D01*
X153978Y127546D01*
X154034Y127490D01*
X154078Y127446D01*
X154100Y127424D01*
X154111Y127413D01*
X153234Y127368D01*
Y125968D01*
X153078D01*
D01*
X160155D01*
Y131823D01*
D02*
G37*
G36*
X160011Y124891D02*
D01*
X153234Y122202D01*
X153012Y122302D01*
X152923Y122347D01*
X152834Y122391D01*
X152767Y122435D01*
X152711Y122458D01*
X152678Y122480D01*
X152667Y122491D01*
X152489Y122624D01*
X152411Y122680D01*
X152345Y122747D01*
X152289Y122791D01*
X152245Y122835D01*
X152223Y122858D01*
X152212Y122869D01*
X152089Y123024D01*
X151989Y123169D01*
X151956Y123224D01*
X151934Y123269D01*
X151912Y123302D01*
Y123313D01*
X151845Y123491D01*
X151812Y123658D01*
Y123735D01*
X151801Y123791D01*
Y123913D01*
X151812Y123980D01*
Y124057D01*
X151823Y124135D01*
Y124213D01*
X151834Y124258D01*
Y124357D01*
X151845Y124435D01*
X151856Y124480D01*
Y124502D01*
X151867Y124569D01*
Y124624D01*
X151878Y124669D01*
Y124680D01*
X150501D01*
X150478Y124524D01*
X150467Y124402D01*
Y124346D01*
X150456Y124313D01*
Y124280D01*
X150445Y124135D01*
X150434Y124024D01*
Y124057D01*
Y123913D01*
X150445Y123658D01*
X150467Y123424D01*
X150512Y123202D01*
X150556Y123013D01*
X150590Y122858D01*
X150634Y122747D01*
X150645Y122702D01*
X150656Y122669D01*
X150667Y122658D01*
Y122646D01*
X150756Y122435D01*
X150867Y122247D01*
X150978Y122069D01*
X151089Y121924D01*
X151178Y121802D01*
X151256Y121702D01*
X151312Y121647D01*
X151334Y121624D01*
X151512Y121458D01*
X151700Y121291D01*
X151878Y121147D01*
X152056Y121025D01*
X152212Y120924D01*
X152334Y120847D01*
X152378Y120813D01*
X152411Y120802D01*
X152434Y120780D01*
X152445D01*
X152700Y120636D01*
X152956Y120502D01*
X153223Y120369D01*
X153456Y120258D01*
X153667Y120169D01*
X153756Y120125D01*
X153834Y120102D01*
X153889Y120069D01*
X153945Y120047D01*
X153967Y120036D01*
X153978D01*
X160011Y117658D01*
X150434D01*
D01*
X160011D01*
Y119402D01*
X156111Y120836D01*
X154922Y121247D01*
X156156Y121669D01*
X160011Y123080D01*
Y124891D01*
D02*
G37*
%LPD*%
G36*
X153089Y166564D02*
X153100Y166298D01*
X153134Y166053D01*
X153167Y165842D01*
X153189Y165665D01*
X153211Y165598D01*
X153223Y165531D01*
X153234Y165487D01*
Y165453D01*
X153245Y165431D01*
Y165420D01*
X153311Y165187D01*
X153389Y164964D01*
X153478Y164776D01*
X153556Y164609D01*
X153634Y164476D01*
X153689Y164376D01*
X153734Y164320D01*
X153745Y164298D01*
X153878Y164131D01*
X154023Y163976D01*
X154167Y163854D01*
X154311Y163742D01*
X154434Y163665D01*
X154522Y163598D01*
X154589Y163565D01*
X154600Y163554D01*
X154611D01*
X154822Y163465D01*
X155034Y163398D01*
X155245Y163354D01*
X155445Y163320D01*
X155611Y163298D01*
X155678D01*
X155745Y163287D01*
X153078D01*
Y166853D01*
X153089Y166564D01*
D02*
G37*
G36*
X160577Y159543D02*
X160566Y159298D01*
X160544Y159076D01*
X160511Y158887D01*
X160477Y158721D01*
X160444Y158587D01*
X160411Y158487D01*
X160389Y158432D01*
X160377Y158410D01*
X160300Y158243D01*
X160200Y158110D01*
X160100Y157976D01*
X160011Y157876D01*
X159922Y157799D01*
X159855Y157732D01*
X159811Y157699D01*
X159789Y157687D01*
X159644Y157599D01*
X159489Y157521D01*
X159333Y157454D01*
X159177Y157399D01*
X159055Y157354D01*
X158944Y157332D01*
X158878Y157310D01*
X158866D01*
X158855D01*
X158644Y157265D01*
X158422Y157243D01*
X158211Y157221D01*
X158011Y157199D01*
X157844D01*
X157767Y157187D01*
X157711D01*
X157655D01*
X157622D01*
X157600D01*
X157589D01*
X157311Y157199D01*
X157044Y157210D01*
X156811Y157243D01*
X156589Y157288D01*
X156378Y157332D01*
X156189Y157387D01*
X156022Y157443D01*
X155878Y157499D01*
X155745Y157565D01*
X155633Y157621D01*
X155533Y157676D01*
X155456Y157721D01*
X155400Y157765D01*
X155356Y157799D01*
X155333Y157810D01*
X155322Y157821D01*
X155200Y157943D01*
X155089Y158076D01*
X154989Y158221D01*
X154911Y158365D01*
X154845Y158521D01*
X154789Y158676D01*
X154700Y158965D01*
X154667Y159109D01*
X154645Y159243D01*
X154633Y159354D01*
X154622Y159454D01*
X154611Y159543D01*
Y160365D01*
X160577D01*
Y159543D01*
D02*
G37*
G36*
X160589Y151866D02*
X160577Y151577D01*
X160544Y151332D01*
X160500Y151121D01*
X160444Y150955D01*
X160389Y150821D01*
X160344Y150722D01*
X160311Y150666D01*
X160300Y150644D01*
X160177Y150510D01*
X160044Y150410D01*
X159889Y150333D01*
X159733Y150288D01*
X159600Y150255D01*
X159477Y150244D01*
X159444Y150233D01*
X159411D01*
X159389D01*
X159378D01*
X159266D01*
X159166Y150255D01*
X159078Y150266D01*
X158989Y150288D01*
X158922Y150310D01*
X158878Y150333D01*
X158844Y150344D01*
X158833Y150355D01*
X158678Y150455D01*
X158544Y150577D01*
X158500Y150621D01*
X158466Y150666D01*
X158444Y150688D01*
X158433Y150699D01*
X158333Y150877D01*
X158255Y151044D01*
X158233Y151121D01*
X158211Y151177D01*
X158200Y151222D01*
Y151233D01*
X158155Y151466D01*
X158144Y151577D01*
X158133Y151688D01*
X158122Y151777D01*
Y152577D01*
X160589D01*
Y151866D01*
D02*
G37*
G36*
X156844Y152266D02*
X156833Y152110D01*
X156811Y151977D01*
X156778Y151844D01*
X156744Y151744D01*
X156700Y151655D01*
X156667Y151588D01*
X156644Y151544D01*
X156633Y151532D01*
X156556Y151421D01*
X156456Y151321D01*
X156356Y151244D01*
X156256Y151177D01*
X156167Y151121D01*
X156100Y151088D01*
X156056Y151066D01*
X156033Y151055D01*
X153234Y149822D01*
Y152577D01*
X156844D01*
Y152266D01*
D02*
G37*
G36*
X160589Y143989D02*
X160566Y143833D01*
X160555Y143700D01*
X160533Y143578D01*
X160511Y143489D01*
X160500Y143411D01*
X160477Y143367D01*
Y143356D01*
X160433Y143233D01*
X160377Y143122D01*
X160333Y143022D01*
X160277Y142945D01*
X160233Y142878D01*
X160200Y142833D01*
X160177Y142800D01*
X160166Y142789D01*
X160089Y142711D01*
X160011Y142633D01*
X159922Y142578D01*
X159844Y142533D01*
X159777Y142489D01*
X159722Y142467D01*
X159689Y142445D01*
X159678D01*
X159466Y142378D01*
X159355Y142356D01*
X159266Y142345D01*
X159177Y142333D01*
X159111D01*
X159066D01*
X159055D01*
X158922D01*
X158789Y142356D01*
X158667Y142367D01*
X158566Y142389D01*
X158489Y142411D01*
X158422Y142433D01*
X158378Y142445D01*
X158367Y142456D01*
X158155Y142556D01*
X158066Y142622D01*
X157989Y142678D01*
X157933Y142722D01*
X157889Y142767D01*
X157855Y142789D01*
X157844Y142800D01*
X157700Y142978D01*
X157600Y143156D01*
X157555Y143233D01*
X157533Y143300D01*
X157522Y143344D01*
X157511Y143356D01*
X157444Y143611D01*
X157422Y143733D01*
X157411Y143844D01*
Y143944D01*
X157400Y144033D01*
Y145011D01*
X160589D01*
Y143989D01*
D02*
G37*
G36*
X156033Y144178D02*
X156044Y143856D01*
X156067Y143567D01*
X156111Y143300D01*
X156156Y143078D01*
X156167Y142978D01*
X156189Y142889D01*
X156211Y142811D01*
X156233Y142756D01*
X156245Y142700D01*
X156256Y142667D01*
X156267Y142645D01*
Y142633D01*
X156367Y142389D01*
X156467Y142178D01*
X156578Y141989D01*
X156678Y141822D01*
X156767Y141700D01*
X156844Y141600D01*
X156889Y141545D01*
X156911Y141522D01*
X157078Y141367D01*
X157244Y141223D01*
X157411Y141111D01*
X157567Y141011D01*
X157711Y140934D01*
X157811Y140889D01*
X157855Y140867D01*
X157889Y140856D01*
X157900Y140845D01*
X157911D01*
X158133Y140767D01*
X158355Y140711D01*
X158566Y140667D01*
X158766Y140645D01*
X158933Y140622D01*
X159000D01*
X159066Y140611D01*
X153234D01*
Y145011D01*
X156033D01*
Y144178D01*
D02*
G37*
G36*
X155356Y130101D02*
X155478Y130068D01*
X155522Y130057D01*
X155556Y130046D01*
X155578Y130035D01*
X155589D01*
X155722Y129957D01*
X155822Y129868D01*
X155889Y129801D01*
X155900Y129779D01*
X155911Y129768D01*
X156011Y129624D01*
X156078Y129468D01*
X156100Y129401D01*
X156122Y129346D01*
X156133Y129313D01*
Y129301D01*
X156167Y129190D01*
X156189Y129068D01*
X156200Y128957D01*
X156211Y128846D01*
X156222Y128746D01*
Y127602D01*
X155311D01*
X155156Y127768D01*
X155011Y127913D01*
X154889Y128057D01*
X154789Y128168D01*
X154711Y128268D01*
X154656Y128346D01*
X154622Y128390D01*
X154611Y128413D01*
X154534Y128546D01*
X154467Y128679D01*
X154422Y128802D01*
X154400Y128902D01*
X154378Y128990D01*
X154367Y129068D01*
Y129124D01*
X154378Y129290D01*
X154400Y129424D01*
X154434Y129557D01*
X154478Y129657D01*
X154511Y129735D01*
X154545Y129801D01*
X154567Y129835D01*
X154578Y129846D01*
X154667Y129935D01*
X154767Y130001D01*
X154867Y130046D01*
X154978Y130079D01*
X155067Y130101D01*
X155145Y130112D01*
X155189D01*
X155211D01*
X155356Y130101D01*
D02*
G37*
G36*
X160155Y125968D02*
X157855D01*
X158066Y125979D01*
X158255Y125991D01*
X158422Y126024D01*
X158578Y126057D01*
X158689Y126091D01*
X158778Y126113D01*
X158833Y126135D01*
X158855Y126146D01*
X159011Y126213D01*
X159155Y126302D01*
X159277Y126380D01*
X159378Y126468D01*
X159466Y126546D01*
X159522Y126613D01*
X159566Y126657D01*
X159578Y126668D01*
X159678Y126802D01*
X159766Y126957D01*
X159844Y127102D01*
X159900Y127246D01*
X159955Y127368D01*
X159989Y127468D01*
X160000Y127535D01*
X160011Y127546D01*
Y127557D01*
X160055Y127768D01*
X160100Y127979D01*
X160122Y128201D01*
X160133Y128402D01*
X160144Y128579D01*
X160155Y128657D01*
Y125968D01*
D02*
G37*
%LPC*%
G36*
X156069Y105800D02*
Y103205D01*
X156076D01*
X156097D01*
X156125Y103212D01*
X156166Y103219D01*
X156215Y103226D01*
X156270Y103233D01*
X156395Y103260D01*
X156541Y103302D01*
X156687Y103351D01*
X156825Y103420D01*
X156944Y103503D01*
X156950Y103510D01*
X156964Y103517D01*
X156985Y103545D01*
X157013Y103573D01*
X157048Y103607D01*
X157089Y103656D01*
X157131Y103711D01*
X157173Y103767D01*
X157214Y103836D01*
X157256Y103913D01*
X157332Y104079D01*
X157360Y104169D01*
X157381Y104267D01*
X157395Y104371D01*
X157402Y104482D01*
Y104537D01*
X157395Y104572D01*
X157388Y104621D01*
X157381Y104669D01*
X157353Y104801D01*
X157311Y104940D01*
X157249Y105099D01*
X157207Y105176D01*
X157159Y105252D01*
X157096Y105329D01*
X157034Y105398D01*
X157027Y105405D01*
X157020Y105412D01*
X156999Y105433D01*
X156971Y105453D01*
X156930Y105481D01*
X156888Y105516D01*
X156839Y105551D01*
X156777Y105585D01*
X156714Y105620D01*
X156638Y105655D01*
X156472Y105724D01*
X156284Y105773D01*
X156180Y105787D01*
X156069Y105800D01*
D02*
G37*
G36*
X42758Y125808D02*
X42751D01*
X42737D01*
X42716D01*
X42688D01*
X42654D01*
X42605D01*
X42501Y125801D01*
X42376Y125794D01*
X42230Y125787D01*
X42071Y125780D01*
X41904Y125759D01*
X41550Y125718D01*
X41377Y125690D01*
X41203Y125655D01*
X41043Y125614D01*
X40898Y125558D01*
X40766Y125503D01*
X40655Y125440D01*
X40648Y125433D01*
X40634Y125426D01*
X40606Y125405D01*
X40572Y125371D01*
X40537Y125336D01*
X40495Y125294D01*
X40398Y125190D01*
X40301Y125058D01*
X40225Y124899D01*
X40190Y124815D01*
X40162Y124725D01*
X40148Y124628D01*
X40141Y124531D01*
Y124510D01*
X40148Y124476D01*
Y124441D01*
X40155Y124392D01*
X40169Y124337D01*
X40204Y124212D01*
X40231Y124142D01*
X40266Y124073D01*
X40308Y123997D01*
X40363Y123920D01*
X40419Y123844D01*
X40488Y123768D01*
X40572Y123691D01*
X40662Y123622D01*
X40669Y123615D01*
X40690Y123608D01*
X40717Y123587D01*
X40766Y123566D01*
X40828Y123532D01*
X40912Y123504D01*
X41009Y123469D01*
X41120Y123434D01*
X41252Y123400D01*
X41404Y123365D01*
X41571Y123330D01*
X41765Y123303D01*
X41980Y123282D01*
X42216Y123261D01*
X42473Y123254D01*
X42758Y123247D01*
X42765D01*
X42779D01*
X42799D01*
X42827D01*
X42862D01*
X42903D01*
X43014Y123254D01*
X43139Y123261D01*
X43285Y123268D01*
X43445Y123275D01*
X43611Y123296D01*
X43965Y123337D01*
X44139Y123372D01*
X44305Y123407D01*
X44465Y123448D01*
X44618Y123497D01*
X44743Y123552D01*
X44854Y123622D01*
X44861Y123629D01*
X44874Y123636D01*
X44902Y123656D01*
X44937Y123684D01*
X44972Y123726D01*
X45020Y123768D01*
X45069Y123816D01*
X45117Y123872D01*
X45208Y124004D01*
X45291Y124163D01*
X45325Y124246D01*
X45353Y124344D01*
X45367Y124434D01*
X45374Y124538D01*
Y124586D01*
X45367Y124628D01*
X45360Y124670D01*
X45353Y124725D01*
X45319Y124850D01*
X45263Y124989D01*
X45228Y125058D01*
X45180Y125135D01*
X45131Y125204D01*
X45069Y125274D01*
X44999Y125343D01*
X44916Y125405D01*
X44909Y125412D01*
X44888Y125419D01*
X44854Y125440D01*
X44798Y125468D01*
X44729Y125496D01*
X44645Y125530D01*
X44548Y125572D01*
X44423Y125607D01*
X44284Y125641D01*
X44132Y125683D01*
X43951Y125718D01*
X43757Y125745D01*
X43542Y125773D01*
X43299Y125787D01*
X43042Y125801D01*
X42758Y125808D01*
D02*
G37*
G36*
Y115856D02*
X42751D01*
X42737D01*
X42716D01*
X42688D01*
X42654D01*
X42605D01*
X42501Y115849D01*
X42376Y115842D01*
X42230Y115835D01*
X42071Y115828D01*
X41904Y115807D01*
X41550Y115766D01*
X41377Y115738D01*
X41203Y115703D01*
X41043Y115662D01*
X40898Y115606D01*
X40766Y115551D01*
X40655Y115488D01*
X40648Y115481D01*
X40634Y115474D01*
X40606Y115454D01*
X40572Y115419D01*
X40537Y115384D01*
X40495Y115342D01*
X40398Y115238D01*
X40301Y115106D01*
X40225Y114947D01*
X40190Y114864D01*
X40162Y114773D01*
X40148Y114676D01*
X40141Y114579D01*
Y114558D01*
X40148Y114523D01*
Y114489D01*
X40155Y114440D01*
X40169Y114385D01*
X40204Y114260D01*
X40231Y114190D01*
X40266Y114121D01*
X40308Y114045D01*
X40363Y113968D01*
X40419Y113892D01*
X40488Y113816D01*
X40572Y113739D01*
X40662Y113670D01*
X40669Y113663D01*
X40690Y113656D01*
X40717Y113635D01*
X40766Y113614D01*
X40828Y113580D01*
X40912Y113552D01*
X41009Y113517D01*
X41120Y113482D01*
X41252Y113448D01*
X41404Y113413D01*
X41571Y113378D01*
X41765Y113351D01*
X41980Y113330D01*
X42216Y113309D01*
X42473Y113302D01*
X42758Y113295D01*
X42765D01*
X42779D01*
X42799D01*
X42827D01*
X42862D01*
X42903D01*
X43014Y113302D01*
X43139Y113309D01*
X43285Y113316D01*
X43445Y113323D01*
X43611Y113344D01*
X43965Y113385D01*
X44139Y113420D01*
X44305Y113455D01*
X44465Y113496D01*
X44618Y113545D01*
X44743Y113601D01*
X44854Y113670D01*
X44861Y113677D01*
X44874Y113684D01*
X44902Y113705D01*
X44937Y113732D01*
X44972Y113774D01*
X45020Y113816D01*
X45069Y113864D01*
X45117Y113920D01*
X45208Y114052D01*
X45291Y114211D01*
X45325Y114295D01*
X45353Y114392D01*
X45367Y114482D01*
X45374Y114586D01*
Y114635D01*
X45367Y114676D01*
X45360Y114718D01*
X45353Y114773D01*
X45319Y114898D01*
X45263Y115037D01*
X45228Y115106D01*
X45180Y115183D01*
X45131Y115252D01*
X45069Y115322D01*
X44999Y115391D01*
X44916Y115454D01*
X44909Y115460D01*
X44888Y115467D01*
X44854Y115488D01*
X44798Y115516D01*
X44729Y115544D01*
X44645Y115578D01*
X44548Y115620D01*
X44423Y115655D01*
X44284Y115689D01*
X44132Y115731D01*
X43951Y115766D01*
X43757Y115794D01*
X43542Y115821D01*
X43299Y115835D01*
X43042Y115849D01*
X42758Y115856D01*
D02*
G37*
G36*
X44403Y108153D02*
X44396D01*
X44382D01*
X44361D01*
X44326Y108146D01*
X44284D01*
X44243Y108139D01*
X44139Y108118D01*
X44021Y108083D01*
X43896Y108035D01*
X43771Y107965D01*
X43660Y107868D01*
X43646Y107854D01*
X43618Y107812D01*
X43570Y107750D01*
X43521Y107660D01*
X43466Y107556D01*
X43417Y107424D01*
X43389Y107271D01*
X43375Y107105D01*
Y107063D01*
X43382Y107028D01*
Y106987D01*
X43389Y106945D01*
X43410Y106841D01*
X43445Y106723D01*
X43493Y106598D01*
X43563Y106473D01*
X43660Y106355D01*
X43674Y106341D01*
X43709Y106307D01*
X43771Y106265D01*
X43854Y106209D01*
X43951Y106154D01*
X44076Y106112D01*
X44208Y106078D01*
X44354Y106064D01*
X44361D01*
X44375D01*
X44396D01*
X44430Y106071D01*
X44507Y106078D01*
X44611Y106098D01*
X44722Y106133D01*
X44847Y106189D01*
X44965Y106265D01*
X45027Y106307D01*
X45083Y106362D01*
X45090D01*
X45096Y106376D01*
X45131Y106418D01*
X45180Y106480D01*
X45235Y106570D01*
X45284Y106674D01*
X45332Y106806D01*
X45367Y106952D01*
X45381Y107028D01*
Y107153D01*
X45374Y107188D01*
Y107223D01*
X45367Y107271D01*
X45346Y107375D01*
X45312Y107493D01*
X45256Y107618D01*
X45187Y107743D01*
X45090Y107861D01*
X45076Y107875D01*
X45041Y107910D01*
X44978Y107951D01*
X44895Y108007D01*
X44798Y108062D01*
X44680Y108104D01*
X44548Y108139D01*
X44403Y108153D01*
D02*
G37*
G36*
X41446Y108409D02*
X41439D01*
X41432D01*
X41390D01*
X41321Y108402D01*
X41238Y108388D01*
X41141Y108375D01*
X41030Y108347D01*
X40912Y108305D01*
X40794Y108257D01*
X40780Y108250D01*
X40745Y108229D01*
X40683Y108187D01*
X40613Y108139D01*
X40537Y108069D01*
X40461Y107993D01*
X40377Y107896D01*
X40308Y107785D01*
Y107778D01*
X40301Y107771D01*
X40280Y107729D01*
X40252Y107667D01*
X40225Y107577D01*
X40197Y107479D01*
X40169Y107361D01*
X40148Y107237D01*
X40141Y107105D01*
Y107049D01*
X40148Y107008D01*
X40155Y106959D01*
X40162Y106903D01*
X40190Y106772D01*
X40231Y106626D01*
X40294Y106466D01*
X40336Y106390D01*
X40384Y106314D01*
X40440Y106237D01*
X40502Y106168D01*
X40509Y106161D01*
X40516Y106154D01*
X40537Y106133D01*
X40565Y106112D01*
X40606Y106085D01*
X40648Y106050D01*
X40696Y106015D01*
X40752Y105980D01*
X40884Y105918D01*
X41043Y105855D01*
X41217Y105814D01*
X41314Y105807D01*
X41418Y105800D01*
X41425D01*
X41446D01*
X41474D01*
X41515Y105807D01*
X41564Y105814D01*
X41620Y105821D01*
X41751Y105849D01*
X41897Y105890D01*
X42057Y105959D01*
X42133Y106001D01*
X42209Y106057D01*
X42286Y106112D01*
X42355Y106182D01*
X42362Y106189D01*
X42369Y106195D01*
X42390Y106216D01*
X42411Y106251D01*
X42445Y106286D01*
X42473Y106327D01*
X42508Y106383D01*
X42543Y106438D01*
X42612Y106577D01*
X42674Y106737D01*
X42716Y106924D01*
X42723Y107021D01*
X42730Y107125D01*
Y107181D01*
X42723Y107216D01*
X42716Y107264D01*
X42709Y107320D01*
X42681Y107452D01*
X42640Y107597D01*
X42577Y107750D01*
X42536Y107826D01*
X42487Y107903D01*
X42425Y107979D01*
X42362Y108048D01*
X42355Y108055D01*
X42348Y108062D01*
X42327Y108083D01*
X42300Y108104D01*
X42258Y108132D01*
X42216Y108159D01*
X42168Y108194D01*
X42112Y108229D01*
X41980Y108298D01*
X41821Y108354D01*
X41640Y108396D01*
X41550Y108402D01*
X41446Y108409D01*
D02*
G37*
G36*
X44403Y100692D02*
X44396D01*
X44382D01*
X44361D01*
X44326Y100685D01*
X44284D01*
X44243Y100678D01*
X44139Y100657D01*
X44021Y100623D01*
X43896Y100574D01*
X43771Y100505D01*
X43660Y100408D01*
X43646Y100394D01*
X43618Y100352D01*
X43570Y100290D01*
X43521Y100199D01*
X43466Y100095D01*
X43417Y99963D01*
X43389Y99811D01*
X43375Y99644D01*
Y99603D01*
X43382Y99568D01*
Y99526D01*
X43389Y99484D01*
X43410Y99380D01*
X43445Y99262D01*
X43493Y99138D01*
X43563Y99013D01*
X43660Y98895D01*
X43674Y98881D01*
X43709Y98846D01*
X43771Y98804D01*
X43854Y98749D01*
X43951Y98693D01*
X44076Y98652D01*
X44208Y98617D01*
X44354Y98603D01*
X44361D01*
X44375D01*
X44396D01*
X44430Y98610D01*
X44507Y98617D01*
X44611Y98638D01*
X44722Y98672D01*
X44847Y98728D01*
X44965Y98804D01*
X45027Y98846D01*
X45083Y98902D01*
X45090D01*
X45096Y98915D01*
X45131Y98957D01*
X45180Y99019D01*
X45235Y99110D01*
X45284Y99214D01*
X45332Y99346D01*
X45367Y99492D01*
X45381Y99568D01*
Y99693D01*
X45374Y99727D01*
Y99762D01*
X45367Y99811D01*
X45346Y99915D01*
X45312Y100033D01*
X45256Y100158D01*
X45187Y100283D01*
X45090Y100401D01*
X45076Y100415D01*
X45041Y100449D01*
X44978Y100491D01*
X44895Y100546D01*
X44798Y100602D01*
X44680Y100644D01*
X44548Y100678D01*
X44403Y100692D01*
D02*
G37*
G36*
X41446Y100949D02*
X41439D01*
X41432D01*
X41390D01*
X41321Y100942D01*
X41238Y100928D01*
X41141Y100914D01*
X41030Y100886D01*
X40912Y100845D01*
X40794Y100796D01*
X40780Y100789D01*
X40745Y100768D01*
X40683Y100727D01*
X40613Y100678D01*
X40537Y100609D01*
X40461Y100532D01*
X40377Y100435D01*
X40308Y100324D01*
Y100317D01*
X40301Y100310D01*
X40280Y100269D01*
X40252Y100206D01*
X40225Y100116D01*
X40197Y100019D01*
X40169Y99901D01*
X40148Y99776D01*
X40141Y99644D01*
Y99589D01*
X40148Y99547D01*
X40155Y99498D01*
X40162Y99443D01*
X40190Y99311D01*
X40231Y99165D01*
X40294Y99006D01*
X40336Y98929D01*
X40384Y98853D01*
X40440Y98777D01*
X40502Y98707D01*
X40509Y98700D01*
X40516Y98693D01*
X40537Y98672D01*
X40565Y98652D01*
X40606Y98624D01*
X40648Y98589D01*
X40696Y98555D01*
X40752Y98520D01*
X40884Y98457D01*
X41043Y98395D01*
X41217Y98353D01*
X41314Y98346D01*
X41418Y98339D01*
X41425D01*
X41446D01*
X41474D01*
X41515Y98346D01*
X41564Y98353D01*
X41620Y98360D01*
X41751Y98388D01*
X41897Y98430D01*
X42057Y98499D01*
X42133Y98541D01*
X42209Y98596D01*
X42286Y98652D01*
X42355Y98721D01*
X42362Y98728D01*
X42369Y98735D01*
X42390Y98756D01*
X42411Y98791D01*
X42445Y98825D01*
X42473Y98867D01*
X42508Y98922D01*
X42543Y98978D01*
X42612Y99117D01*
X42674Y99276D01*
X42716Y99464D01*
X42723Y99561D01*
X42730Y99665D01*
Y99721D01*
X42723Y99755D01*
X42716Y99804D01*
X42709Y99859D01*
X42681Y99991D01*
X42640Y100137D01*
X42577Y100290D01*
X42536Y100366D01*
X42487Y100442D01*
X42425Y100519D01*
X42362Y100588D01*
X42355Y100595D01*
X42348Y100602D01*
X42327Y100623D01*
X42300Y100644D01*
X42258Y100671D01*
X42216Y100699D01*
X42168Y100734D01*
X42112Y100768D01*
X41980Y100838D01*
X41821Y100893D01*
X41640Y100935D01*
X41550Y100942D01*
X41446Y100949D01*
D02*
G37*
G36*
X51449Y130548D02*
X51442D01*
X51421D01*
X51393D01*
X51352Y130541D01*
X51303D01*
X51248Y130534D01*
X51116Y130513D01*
X50970Y130479D01*
X50817Y130430D01*
X50672Y130361D01*
X50547Y130270D01*
X50533Y130256D01*
X50498Y130222D01*
X50450Y130159D01*
X50394Y130083D01*
X50339Y129979D01*
X50290Y129861D01*
X50255Y129729D01*
X50248Y129660D01*
X50241Y129583D01*
Y129542D01*
X50248Y129514D01*
X50255Y129438D01*
X50276Y129340D01*
X50311Y129229D01*
X50359Y129104D01*
X50429Y128973D01*
X50526Y128848D01*
X50533Y128841D01*
X50540Y128834D01*
X50554Y128813D01*
X50581Y128792D01*
X50609Y128764D01*
X50651Y128730D01*
X50699Y128688D01*
X50748Y128653D01*
X50810Y128605D01*
X50873Y128563D01*
X50949Y128515D01*
X51033Y128473D01*
X51123Y128424D01*
X51220Y128376D01*
X51324Y128334D01*
X51435Y128293D01*
X51442D01*
X51463Y128286D01*
X51498Y128272D01*
X51539Y128258D01*
X51595Y128244D01*
X51657Y128223D01*
X51733Y128202D01*
X51810Y128181D01*
X51983Y128140D01*
X52178Y128105D01*
X52372Y128077D01*
X52573Y128070D01*
X52580D01*
X52601D01*
X52629D01*
X52670Y128077D01*
X52719D01*
X52774Y128084D01*
X52906Y128105D01*
X53052Y128140D01*
X53205Y128188D01*
X53350Y128258D01*
X53482Y128348D01*
X53489D01*
X53496Y128362D01*
X53531Y128397D01*
X53586Y128452D01*
X53649Y128535D01*
X53704Y128632D01*
X53760Y128744D01*
X53795Y128875D01*
X53808Y128945D01*
Y129063D01*
X53802Y129091D01*
X53795Y129167D01*
X53767Y129271D01*
X53725Y129389D01*
X53670Y129514D01*
X53586Y129646D01*
X53531Y129715D01*
X53475Y129778D01*
X53468Y129785D01*
X53461Y129791D01*
X53441Y129812D01*
X53413Y129833D01*
X53378Y129868D01*
X53337Y129903D01*
X53281Y129937D01*
X53225Y129979D01*
X53156Y130027D01*
X53080Y130069D01*
X52996Y130118D01*
X52906Y130166D01*
X52802Y130215D01*
X52698Y130263D01*
X52580Y130312D01*
X52455Y130354D01*
X52448D01*
X52434Y130361D01*
X52407Y130368D01*
X52372Y130381D01*
X52323Y130395D01*
X52275Y130416D01*
X52157Y130444D01*
X52018Y130479D01*
X51879Y130513D01*
X51733Y130534D01*
X51595Y130541D01*
X51449Y130548D01*
D02*
G37*
G36*
X51539Y103947D02*
X51532D01*
X51511D01*
X51477D01*
X51428Y103940D01*
X51380D01*
X51310Y103933D01*
X51164Y103905D01*
X51005Y103871D01*
X50838Y103815D01*
X50678Y103739D01*
X50609Y103690D01*
X50540Y103635D01*
X50533Y103628D01*
X50526Y103621D01*
X50491Y103579D01*
X50436Y103510D01*
X50373Y103419D01*
X50311Y103302D01*
X50262Y103163D01*
X50221Y103010D01*
X50214Y102927D01*
X50207Y102837D01*
Y102795D01*
X50214Y102739D01*
X50221Y102677D01*
X50227Y102601D01*
X50248Y102517D01*
X50269Y102420D01*
X50304Y102330D01*
X50311Y102316D01*
X50325Y102288D01*
X50345Y102240D01*
X50380Y102177D01*
X50429Y102108D01*
X50477Y102032D01*
X50540Y101948D01*
X50616Y101872D01*
X50623Y101865D01*
X50651Y101837D01*
X50699Y101795D01*
X50755Y101747D01*
X50831Y101684D01*
X50908Y101629D01*
X50998Y101567D01*
X51095Y101504D01*
X51109Y101497D01*
X51143Y101476D01*
X51199Y101449D01*
X51268Y101414D01*
X51359Y101379D01*
X51456Y101338D01*
X51567Y101296D01*
X51678Y101261D01*
X51685D01*
X51699Y101254D01*
X51719Y101247D01*
X51754Y101240D01*
X51789Y101226D01*
X51837Y101219D01*
X51942Y101192D01*
X52074Y101164D01*
X52212Y101143D01*
X52358Y101129D01*
X52511Y101122D01*
X52518D01*
X52539D01*
X52573D01*
X52615Y101129D01*
X52663D01*
X52726Y101136D01*
X52865Y101164D01*
X53024Y101199D01*
X53184Y101254D01*
X53343Y101338D01*
X53413Y101386D01*
X53482Y101442D01*
X53489Y101449D01*
X53496Y101455D01*
X53517Y101476D01*
X53538Y101497D01*
X53593Y101567D01*
X53663Y101664D01*
X53725Y101775D01*
X53781Y101913D01*
X53822Y102066D01*
X53829Y102149D01*
X53836Y102240D01*
Y102302D01*
X53829Y102372D01*
X53815Y102462D01*
X53795Y102573D01*
X53760Y102684D01*
X53718Y102802D01*
X53656Y102920D01*
X53649Y102934D01*
X53621Y102968D01*
X53579Y103031D01*
X53524Y103100D01*
X53448Y103191D01*
X53357Y103281D01*
X53253Y103378D01*
X53135Y103475D01*
X53128D01*
X53121Y103489D01*
X53101Y103496D01*
X53073Y103517D01*
X53003Y103558D01*
X52906Y103614D01*
X52795Y103669D01*
X52656Y103732D01*
X52511Y103787D01*
X52344Y103836D01*
X52337D01*
X52323Y103843D01*
X52302D01*
X52268Y103850D01*
X52226Y103864D01*
X52184Y103871D01*
X52074Y103891D01*
X51949Y103912D01*
X51817Y103926D01*
X51678Y103940D01*
X51539Y103947D01*
D02*
G37*
%LPD*%
D10*
X74584Y282600D02*
G03*
X74584Y282600I-984J0D01*
G01*
X114484Y178039D02*
G03*
X114484Y178039I-984J0D01*
G01*
X108784Y282600D02*
G03*
X108784Y282600I-984J0D01*
G01*
D11*
X119642Y98211D02*
G03*
X119642Y98211I-492J0D01*
G01*
X111992Y334296D02*
G03*
X111992Y334296I-492J0D01*
G01*
X94392Y321296D02*
G03*
X94392Y321296I-492J0D01*
G01*
D12*
X94213Y175975D02*
G03*
X94213Y175975I-591J0D01*
G01*
D13*
X100070Y321750D02*
Y326700D01*
X105270Y321750D02*
Y326700D01*
X100070Y330300D02*
Y335250D01*
X105270Y330300D02*
Y335250D01*
X100070D02*
X105270D01*
X100070Y321750D02*
X105270D01*
X131730Y43200D02*
Y48400D01*
X118230Y43200D02*
Y48400D01*
X123180D01*
X118230Y43200D02*
X123180D01*
X126780Y48400D02*
X131730D01*
X126780Y43200D02*
X131730D01*
X102800Y117553D02*
X108000D01*
X102800Y131053D02*
X108000D01*
Y126103D02*
Y131053D01*
X102800Y126103D02*
Y131053D01*
X108000Y117553D02*
Y122503D01*
X102800Y117553D02*
Y122503D01*
X58900Y20880D02*
Y27880D01*
X51900D02*
X58900D01*
X51900Y20880D02*
Y27880D01*
X58900Y8380D02*
Y16880D01*
X51900Y8380D02*
X58900D01*
X51900D02*
Y16880D01*
Y9880D02*
X58900D01*
X161100Y20880D02*
Y27880D01*
X154100D02*
X161100D01*
X154100Y20880D02*
Y27880D01*
X161100Y8380D02*
Y16880D01*
X154100Y8380D02*
X161100D01*
X154100D02*
Y16880D01*
Y9880D02*
X161100D01*
X135492Y50247D02*
X140691D01*
X135492Y63747D02*
X140691D01*
Y58797D02*
Y63747D01*
X135492Y58797D02*
Y63747D01*
X140691Y50247D02*
Y55197D01*
X135492Y50247D02*
Y55197D01*
X95600Y124056D02*
X100800D01*
X95600Y110556D02*
X100800D01*
X95600D02*
Y115506D01*
X100800Y110556D02*
Y115506D01*
X95600Y119106D02*
Y124056D01*
X100800Y119106D02*
Y124056D01*
X87300Y123953D02*
X92500D01*
X87300Y110453D02*
X92500D01*
X87300D02*
Y115403D01*
X92500Y110453D02*
Y115403D01*
X87300Y119003D02*
Y123953D01*
X92500Y119003D02*
Y123953D01*
X73300Y117600D02*
X78500D01*
X73300Y131100D02*
X78500D01*
Y126150D02*
Y131100D01*
X73300Y126150D02*
Y131100D01*
X78500Y117600D02*
Y122550D01*
X73300Y117600D02*
Y122550D01*
X80284Y117600D02*
X85484D01*
X80284Y131100D02*
X85484D01*
Y126150D02*
Y131100D01*
X80284Y126150D02*
Y131100D01*
X85484Y117600D02*
Y122550D01*
X80284Y117600D02*
Y122550D01*
X109957Y120100D02*
X115157D01*
X109957Y106600D02*
X115157D01*
X109957D02*
Y111550D01*
X115157Y106600D02*
Y111550D01*
X109957Y115150D02*
Y120100D01*
X115157Y115150D02*
Y120100D01*
X117000Y106700D02*
X122200D01*
X117000Y120200D02*
X122200D01*
Y115250D02*
Y120200D01*
X117000Y115250D02*
Y120200D01*
X122200Y106700D02*
Y111650D01*
X117000Y106700D02*
Y111650D01*
X124000Y120303D02*
X129200D01*
X124000Y106803D02*
X129200D01*
X124000D02*
Y111753D01*
X129200Y106803D02*
Y111753D01*
X124000Y115353D02*
Y120303D01*
X129200Y115353D02*
Y120303D01*
X131000Y106700D02*
X136200D01*
X131000Y120200D02*
X136200D01*
Y115250D02*
Y120200D01*
X131000Y115250D02*
Y120200D01*
X136200Y106700D02*
Y111650D01*
X131000Y106700D02*
Y111650D01*
X59300Y184700D02*
X64500D01*
X59300Y198200D02*
X64500D01*
Y193250D02*
Y198200D01*
X59300Y193250D02*
Y198200D01*
X64500Y184700D02*
Y189650D01*
X59300Y184700D02*
Y189650D01*
X88550Y237500D02*
X93750D01*
X88550Y224000D02*
X93750D01*
X88550D02*
Y228950D01*
X93750Y224000D02*
Y228950D01*
X88550Y232550D02*
Y237500D01*
X93750Y232550D02*
Y237500D01*
X102200Y224000D02*
X107400D01*
X102200Y237500D02*
X107400D01*
Y232550D02*
Y237500D01*
X102200Y232550D02*
Y237500D01*
X107400Y224000D02*
Y228950D01*
X102200Y224000D02*
Y228950D01*
X102150Y239100D02*
X107350D01*
X102150Y252600D02*
X107350D01*
Y247650D02*
Y252600D01*
X102150Y247650D02*
Y252600D01*
X107350Y239100D02*
Y244050D01*
X102150Y239100D02*
Y244050D01*
X100500Y234975D02*
Y237475D01*
X95500D02*
X100500D01*
X95500Y234975D02*
Y237475D01*
X100500Y224475D02*
Y226975D01*
X95500Y224475D02*
X100500D01*
X95500D02*
Y226975D01*
X100500Y228975D02*
Y232975D01*
X95500Y228975D02*
Y232975D01*
X80200Y208550D02*
X85400D01*
X80200Y222050D02*
X85400D01*
Y217100D02*
Y222050D01*
X80200Y217100D02*
Y222050D01*
X85400Y208550D02*
Y213500D01*
X80200Y208550D02*
Y213500D01*
X99000Y198200D02*
X104200D01*
X99000Y184700D02*
X104200D01*
X99000D02*
Y189650D01*
X104200Y184700D02*
Y189650D01*
X99000Y193250D02*
Y198200D01*
X104200Y193250D02*
Y198200D01*
X91600Y184700D02*
X96800D01*
X91600Y198200D02*
X96800D01*
Y193250D02*
Y198200D01*
X91600Y193250D02*
Y198200D01*
X96800Y184700D02*
Y189650D01*
X91600Y184700D02*
Y189650D01*
X66300Y184700D02*
X71500D01*
X66300Y198200D02*
X71500D01*
Y193250D02*
Y198200D01*
X66300Y193250D02*
Y198200D01*
X71500Y184700D02*
Y189650D01*
X66300Y184700D02*
Y189650D01*
X73300Y221950D02*
X78500D01*
X73300Y208450D02*
X78500D01*
X73300D02*
Y213400D01*
X78500Y208450D02*
Y213400D01*
X73300Y217000D02*
Y221950D01*
X78500Y217000D02*
Y221950D01*
X58500Y208600D02*
X63700D01*
X58500Y222100D02*
X63700D01*
Y217150D02*
Y222100D01*
X58500Y217150D02*
Y222100D01*
X63700Y208600D02*
Y213550D01*
X58500Y208600D02*
Y213550D01*
X71500Y235000D02*
Y237500D01*
X66500D02*
X71500D01*
X66500Y235000D02*
Y237500D01*
X71500Y224500D02*
Y227000D01*
X66500Y224500D02*
X71500D01*
X66500D02*
Y227000D01*
X71500Y229000D02*
Y233000D01*
X66500Y229000D02*
Y233000D01*
X73300Y237500D02*
X78500D01*
X73300Y224000D02*
X78500D01*
X73300D02*
Y228950D01*
X78500Y224000D02*
Y228950D01*
X73300Y232550D02*
Y237500D01*
X78500Y232550D02*
Y237500D01*
X93800Y250100D02*
Y252600D01*
X88800D02*
X93800D01*
X88800Y250100D02*
Y252600D01*
X93800Y239600D02*
Y242100D01*
X88800Y239600D02*
X93800D01*
X88800D02*
Y242100D01*
X93800Y244100D02*
Y248100D01*
X88800Y244100D02*
Y248100D01*
X95400Y252550D02*
X100600D01*
X95400Y239050D02*
X100600D01*
X95400D02*
Y244000D01*
X100600Y239050D02*
Y244000D01*
X95400Y247600D02*
Y252550D01*
X100600Y247600D02*
Y252550D01*
X110397Y239100D02*
X115597D01*
X110397Y252600D02*
X115597D01*
Y247650D02*
Y252600D01*
X110397Y247650D02*
Y252600D01*
X115597Y239100D02*
Y244050D01*
X110397Y239100D02*
Y244050D01*
X117500Y224050D02*
X122700D01*
X117500Y237550D02*
X122700D01*
Y232600D02*
Y237550D01*
X117500Y232600D02*
Y237550D01*
X122700Y224050D02*
Y229000D01*
X117500Y224050D02*
Y229000D01*
X138800Y224053D02*
X144000D01*
X138800Y237553D02*
X144000D01*
Y232603D02*
Y237553D01*
X138800Y232603D02*
Y237553D01*
X144000Y224053D02*
Y229003D01*
X138800Y224053D02*
Y229003D01*
X153900Y239100D02*
X159100D01*
X153900Y252600D02*
X159100D01*
Y247650D02*
Y252600D01*
X153900Y247650D02*
Y252600D01*
X159100Y239100D02*
Y244050D01*
X153900Y239100D02*
Y244050D01*
X160500Y252600D02*
X165700D01*
X160500Y239100D02*
X165700D01*
X160500D02*
Y244050D01*
X165700Y239100D02*
Y244050D01*
X160500Y247650D02*
Y252600D01*
X165700Y247650D02*
Y252600D01*
X124397Y239100D02*
X129597D01*
X124397Y252600D02*
X129597D01*
Y247650D02*
Y252600D01*
X124397Y247650D02*
Y252600D01*
X129597Y239100D02*
Y244050D01*
X124397Y239100D02*
Y244050D01*
X132300Y239100D02*
X137500D01*
X132300Y252600D02*
X137500D01*
Y247650D02*
Y252600D01*
X132300Y247650D02*
Y252600D01*
X137500Y239100D02*
Y244050D01*
X132300Y239100D02*
Y244050D01*
X145800Y239100D02*
X151000D01*
X145800Y252600D02*
X151000D01*
Y247650D02*
Y252600D01*
X145800Y247650D02*
Y252600D01*
X151000Y239100D02*
Y244050D01*
X145800Y239100D02*
Y244050D01*
X139000Y244100D02*
Y248100D01*
X144000Y244100D02*
Y248100D01*
X139000Y239600D02*
Y242100D01*
Y239600D02*
X144000D01*
Y242100D01*
X139000Y250100D02*
Y252600D01*
X144000D01*
Y250100D02*
Y252600D01*
X117597Y244100D02*
Y248100D01*
X122597Y244100D02*
Y248100D01*
X117597Y239600D02*
Y242100D01*
Y239600D02*
X122597D01*
Y242100D01*
X117597Y250100D02*
Y252600D01*
X122597D01*
Y250100D02*
Y252600D01*
X80500Y229000D02*
Y233000D01*
X85500Y229000D02*
Y233000D01*
X80500Y224500D02*
Y227000D01*
Y224500D02*
X85500D01*
Y227000D01*
X80500Y235000D02*
Y237500D01*
X85500D01*
Y235000D02*
Y237500D01*
X80200Y239100D02*
Y244050D01*
X85400Y239100D02*
Y244050D01*
X80200Y247650D02*
Y252600D01*
X85400Y247650D02*
Y252600D01*
X80200D02*
X85400D01*
X80200Y239100D02*
X85400D01*
X56900Y247650D02*
Y252600D01*
X51700Y247650D02*
Y252600D01*
X56900Y239100D02*
Y244050D01*
X51700Y239100D02*
Y244050D01*
Y239100D02*
X56900D01*
X51700Y252600D02*
X56900D01*
X58600Y244200D02*
Y248200D01*
X63600Y244200D02*
Y248200D01*
X58600Y239700D02*
Y242200D01*
Y239700D02*
X63600D01*
Y242200D01*
X58600Y250200D02*
Y252700D01*
X63600D01*
Y250200D02*
Y252700D01*
X56900Y229000D02*
Y233000D01*
X51900Y229000D02*
Y233000D01*
X56900Y235000D02*
Y237500D01*
X51900D02*
X56900D01*
X51900Y235000D02*
Y237500D01*
X56900Y224500D02*
Y227000D01*
X51900Y224500D02*
X56900D01*
X51900D02*
Y227000D01*
X58500Y224000D02*
Y228950D01*
X63700Y224000D02*
Y228950D01*
X58500Y232550D02*
Y237500D01*
X63700Y232550D02*
Y237500D01*
X58500D02*
X63700D01*
X58500Y224000D02*
X63700D01*
X83200Y184700D02*
Y189650D01*
X88400Y184700D02*
Y189650D01*
X83200Y193250D02*
Y198200D01*
X88400Y193250D02*
Y198200D01*
X83200D02*
X88400D01*
X83200Y184700D02*
X88400D01*
X79000Y193250D02*
Y198200D01*
X73800Y193250D02*
Y198200D01*
X79000Y184700D02*
Y189650D01*
X73800Y184700D02*
Y189650D01*
Y184700D02*
X79000D01*
X73800Y198200D02*
X79000D01*
X100800Y125853D02*
Y131053D01*
X87300Y125853D02*
X100800D01*
X87300D02*
Y131053D01*
X100800D01*
X63500Y36330D02*
X68450D01*
X63500Y31130D02*
X68450D01*
X72050Y36330D02*
X77000D01*
X72050Y31130D02*
X77000D01*
Y36330D01*
X63500Y31130D02*
Y36330D01*
X146900Y30230D02*
X151850D01*
X146900Y35430D02*
X151850D01*
X138350Y30230D02*
X143300D01*
X138350Y35430D02*
X143300D01*
X138350Y30230D02*
Y35430D01*
X151850Y30230D02*
Y35430D01*
X110100Y49700D02*
X115300D01*
X110100D02*
Y63200D01*
X115300D01*
Y49700D02*
Y63200D01*
X51900Y43500D02*
X57100D01*
Y30000D02*
Y43500D01*
X51900Y30000D02*
X57100D01*
X51900D02*
Y43500D01*
X63500Y13580D02*
X68450D01*
X63500Y8380D02*
X68450D01*
X72050Y13580D02*
X77000D01*
X72050Y8380D02*
X77000D01*
Y13580D01*
X63500Y8380D02*
Y13580D01*
X85000Y16880D02*
Y21830D01*
X79800Y16880D02*
Y21830D01*
X85000Y8330D02*
Y13280D01*
X79800Y8330D02*
Y13280D01*
Y8330D02*
X85000D01*
X79800Y21830D02*
X85000D01*
X70250Y53900D02*
X75200D01*
X70250Y48700D02*
X75200D01*
X78800Y53900D02*
X83750D01*
X78800Y48700D02*
X83750D01*
Y53900D01*
X70250Y48700D02*
Y53900D01*
Y60600D02*
X75200D01*
X70250Y55400D02*
X75200D01*
X78800Y60600D02*
X83750D01*
X78800Y55400D02*
X83750D01*
Y60600D01*
X70250Y55400D02*
Y60600D01*
Y67800D02*
X75200D01*
X70250Y62600D02*
X75200D01*
X78800Y67800D02*
X83750D01*
X78800Y62600D02*
X83750D01*
Y67800D01*
X70250Y62600D02*
Y67800D01*
X70200Y88100D02*
X75150D01*
X70200Y82900D02*
X75150D01*
X78750Y88100D02*
X83700D01*
X78750Y82900D02*
X83700D01*
Y88100D01*
X70200Y82900D02*
Y88100D01*
X154100Y43400D02*
X159300D01*
Y29900D02*
Y43400D01*
X154100Y29900D02*
X159300D01*
X154100D02*
Y43400D01*
X146950Y8330D02*
X151900D01*
X146950Y13530D02*
X151900D01*
X138400Y8330D02*
X143350D01*
X138400Y13530D02*
X143350D01*
X138400Y8330D02*
Y13530D01*
X151900Y8330D02*
Y13530D01*
X130000Y22280D02*
Y27230D01*
X135200Y22280D02*
Y27230D01*
X130000Y30830D02*
Y35780D01*
X135200Y30830D02*
Y35780D01*
X130000D02*
X135200D01*
X130000Y22280D02*
X135200D01*
X70300Y74700D02*
X75250D01*
X70300Y69500D02*
X75250D01*
X78850Y74700D02*
X83800D01*
X78850Y69500D02*
X83800D01*
Y74700D01*
X70300Y69500D02*
Y74700D01*
X70200Y81500D02*
X75150D01*
X70200Y76300D02*
X75150D01*
X78750Y81500D02*
X83700D01*
X78750Y76300D02*
X83700D01*
Y81500D01*
X70200Y76300D02*
Y81500D01*
X109197Y158000D02*
X114147D01*
X109197Y152800D02*
X114147D01*
X117747Y158000D02*
X122697D01*
X117747Y152800D02*
X122697D01*
Y158000D01*
X109197Y152800D02*
Y158000D01*
X117747Y159800D02*
X122697D01*
X117747Y165000D02*
X122697D01*
X109197Y159800D02*
X114147D01*
X109197Y165000D02*
X114147D01*
X109197Y159800D02*
Y165000D01*
X122697Y159800D02*
Y165000D01*
X117747Y145800D02*
X122697D01*
X117747Y151000D02*
X122697D01*
X109197Y145800D02*
X114147D01*
X109197Y151000D02*
X114147D01*
X109197Y145800D02*
Y151000D01*
X122697Y145800D02*
Y151000D01*
X117747Y166800D02*
X122697D01*
X117747Y172000D02*
X122697D01*
X109197Y166800D02*
X114147D01*
X109197Y172000D02*
X114147D01*
X109197Y166800D02*
Y172000D01*
X122697Y166800D02*
Y172000D01*
X109350Y143800D02*
X114300D01*
X109350Y138600D02*
X114300D01*
X117900Y143800D02*
X122850D01*
X117900Y138600D02*
X122850D01*
Y143800D01*
X109350Y138600D02*
Y143800D01*
X42500Y155500D02*
X47450D01*
X42500Y150300D02*
X47450D01*
X51050Y155500D02*
X56000D01*
X51050Y150300D02*
X56000D01*
Y155500D01*
X42500Y150300D02*
Y155500D01*
Y167400D02*
X47450D01*
X42500Y162200D02*
X47450D01*
X51050Y167400D02*
X56000D01*
X51050Y162200D02*
X56000D01*
Y167400D01*
X42500Y162200D02*
Y167400D01*
X160500Y254400D02*
Y259350D01*
X165700Y254400D02*
Y259350D01*
X160500Y262950D02*
Y267900D01*
X165700Y262950D02*
Y267900D01*
X160500D02*
X165700D01*
X160500Y254400D02*
X165700D01*
X154000Y259400D02*
Y263400D01*
X159000Y259400D02*
Y263400D01*
X154000Y254900D02*
Y257400D01*
Y254900D02*
X159000D01*
Y257400D01*
X154000Y265400D02*
Y267900D01*
X159000D01*
Y265400D02*
Y267900D01*
X58400Y259000D02*
Y263000D01*
X63400Y259000D02*
Y263000D01*
X58400Y254500D02*
Y257000D01*
Y254500D02*
X63400D01*
Y257000D01*
X58400Y265000D02*
Y267500D01*
X63400D01*
Y265000D02*
Y267500D01*
X139000Y258900D02*
Y262900D01*
X144000Y258900D02*
Y262900D01*
X139000Y254400D02*
Y256900D01*
Y254400D02*
X144000D01*
Y256900D01*
X139000Y264900D02*
Y267400D01*
X144000D01*
Y264900D02*
Y267400D01*
X117597Y258900D02*
Y262900D01*
X122597Y258900D02*
Y262900D01*
X117597Y254400D02*
Y256900D01*
Y254400D02*
X122597D01*
Y256900D01*
X117597Y264900D02*
Y267400D01*
X122597D01*
Y264900D02*
Y267400D01*
X80400Y259000D02*
Y263000D01*
X85400Y259000D02*
Y263000D01*
X80400Y254500D02*
Y257000D01*
Y254500D02*
X85400D01*
Y257000D01*
X80400Y265000D02*
Y267500D01*
X85400D01*
Y265000D02*
Y267500D01*
X102350Y258900D02*
Y262900D01*
X107350Y258900D02*
Y262900D01*
X102350Y254400D02*
Y256900D01*
Y254400D02*
X107350D01*
Y256900D01*
X102350Y264900D02*
Y267400D01*
X107350D01*
Y264900D02*
Y267400D01*
D14*
X101670Y329000D02*
X103670D01*
X101670Y328000D02*
X103670D01*
X102670Y327500D02*
Y328000D01*
Y329000D02*
Y329500D01*
X123980Y45800D02*
X124480D01*
X125480D02*
X125980D01*
X125480Y44800D02*
Y46800D01*
X124480Y44800D02*
Y46800D01*
X105400Y124803D02*
Y125303D01*
Y123303D02*
Y123803D01*
X104400D02*
X106400D01*
X104400Y124803D02*
X106400D01*
X138092Y57497D02*
Y57997D01*
Y55997D02*
Y56497D01*
X137092D02*
X139092D01*
X137092Y57497D02*
X139092D01*
X98200Y116306D02*
Y116806D01*
Y117806D02*
Y118306D01*
X97200Y117806D02*
X99200D01*
X97200Y116806D02*
X99200D01*
X89900Y116203D02*
Y116703D01*
Y117703D02*
Y118203D01*
X88900Y117703D02*
X90900D01*
X88900Y116703D02*
X90900D01*
X75900Y124850D02*
Y125350D01*
Y123350D02*
Y123850D01*
X74900D02*
X76900D01*
X74900Y124850D02*
X76900D01*
X82884D02*
Y125350D01*
Y123350D02*
Y123850D01*
X81884D02*
X83884D01*
X81884Y124850D02*
X83884D01*
X112557Y112350D02*
Y112850D01*
Y113850D02*
Y114350D01*
X111557Y113850D02*
X113557D01*
X111557Y112850D02*
X113557D01*
X119600Y113950D02*
Y114450D01*
Y112450D02*
Y112950D01*
X118600D02*
X120600D01*
X118600Y113950D02*
X120600D01*
X126600Y112553D02*
Y113053D01*
Y114053D02*
Y114553D01*
X125600Y114053D02*
X127600D01*
X125600Y113053D02*
X127600D01*
X133600Y113950D02*
Y114450D01*
Y112450D02*
Y112950D01*
X132600D02*
X134600D01*
X132600Y113950D02*
X134600D01*
X61900Y191950D02*
Y192450D01*
Y190450D02*
Y190950D01*
X60900D02*
X62900D01*
X60900Y191950D02*
X62900D01*
X91150Y229750D02*
Y230250D01*
Y231250D02*
Y231750D01*
X90150Y231250D02*
X92150D01*
X90150Y230250D02*
X92150D01*
X104800Y231250D02*
Y231750D01*
Y229750D02*
Y230250D01*
X103800D02*
X105800D01*
X103800Y231250D02*
X105800D01*
X104750Y246350D02*
Y246850D01*
Y244850D02*
Y245350D01*
X103750D02*
X105750D01*
X103750Y246350D02*
X105750D01*
X82800Y215800D02*
Y216300D01*
Y214300D02*
Y214800D01*
X81800D02*
X83800D01*
X81800Y215800D02*
X83800D01*
X101600Y190450D02*
Y190950D01*
Y191950D02*
Y192450D01*
X100600Y191950D02*
X102600D01*
X100600Y190950D02*
X102600D01*
X94200Y191950D02*
Y192450D01*
Y190450D02*
Y190950D01*
X93200D02*
X95200D01*
X93200Y191950D02*
X95200D01*
X68900D02*
Y192450D01*
Y190450D02*
Y190950D01*
X67900D02*
X69900D01*
X67900Y191950D02*
X69900D01*
X75900Y214200D02*
Y214700D01*
Y215700D02*
Y216200D01*
X74900Y215700D02*
X76900D01*
X74900Y214700D02*
X76900D01*
X61100Y215850D02*
Y216350D01*
Y214350D02*
Y214850D01*
X60100D02*
X62100D01*
X60100Y215850D02*
X62100D01*
X75900Y229750D02*
Y230250D01*
Y231250D02*
Y231750D01*
X74900Y231250D02*
X76900D01*
X74900Y230250D02*
X76900D01*
X98000Y244800D02*
Y245300D01*
Y246300D02*
Y246800D01*
X97000Y246300D02*
X99000D01*
X97000Y245300D02*
X99000D01*
X112997Y246350D02*
Y246850D01*
Y244850D02*
Y245350D01*
X111997D02*
X113997D01*
X111997Y246350D02*
X113997D01*
X120100Y231300D02*
Y231800D01*
Y229800D02*
Y230300D01*
X119100D02*
X121100D01*
X119100Y231300D02*
X121100D01*
X141400Y231303D02*
Y231803D01*
Y229803D02*
Y230303D01*
X140400D02*
X142400D01*
X140400Y231303D02*
X142400D01*
X156500Y246350D02*
Y246850D01*
Y244850D02*
Y245350D01*
X155500D02*
X157500D01*
X155500Y246350D02*
X157500D01*
X163100Y244850D02*
Y245350D01*
Y246350D02*
Y246850D01*
X162100Y246350D02*
X164100D01*
X162100Y245350D02*
X164100D01*
X126997Y246350D02*
Y246850D01*
Y244850D02*
Y245350D01*
X125997D02*
X127997D01*
X125997Y246350D02*
X127997D01*
X134900D02*
Y246850D01*
Y244850D02*
Y245350D01*
X133900D02*
X135900D01*
X133900Y246350D02*
X135900D01*
X148400D02*
Y246850D01*
Y244850D02*
Y245350D01*
X147400D02*
X149400D01*
X147400Y246350D02*
X149400D01*
X81800D02*
X83800D01*
X81800Y245350D02*
X83800D01*
X82800Y244850D02*
Y245350D01*
Y246350D02*
Y246850D01*
X53300Y245350D02*
X55300D01*
X53300Y246350D02*
X55300D01*
X54300D02*
Y246850D01*
Y244850D02*
Y245350D01*
X60100Y231250D02*
X62100D01*
X60100Y230250D02*
X62100D01*
X61100Y229750D02*
Y230250D01*
Y231250D02*
Y231750D01*
X84800Y191950D02*
X86800D01*
X84800Y190950D02*
X86800D01*
X85800Y190450D02*
Y190950D01*
Y191950D02*
Y192450D01*
X75400Y190950D02*
X77400D01*
X75400Y191950D02*
X77400D01*
X76400D02*
Y192450D01*
Y190450D02*
Y190950D01*
X70750Y32730D02*
Y34730D01*
X69750Y32730D02*
Y34730D01*
X69250Y33730D02*
X69750D01*
X70750D02*
X71250D01*
X144600Y31830D02*
Y33830D01*
X145600Y31830D02*
Y33830D01*
Y32830D02*
X146100D01*
X144100D02*
X144600D01*
X70750Y9980D02*
Y11980D01*
X69750Y9980D02*
Y11980D01*
X69250Y10980D02*
X69750D01*
X70750D02*
X71250D01*
X81400Y14580D02*
X83400D01*
X81400Y15580D02*
X83400D01*
X82400D02*
Y16080D01*
Y14080D02*
Y14580D01*
X77500Y50300D02*
Y52300D01*
X76500Y50300D02*
Y52300D01*
X76000Y51300D02*
X76500D01*
X77500D02*
X78000D01*
X77500Y57000D02*
Y59000D01*
X76500Y57000D02*
Y59000D01*
X76000Y58000D02*
X76500D01*
X77500D02*
X78000D01*
X77500Y64200D02*
Y66200D01*
X76500Y64200D02*
Y66200D01*
X76000Y65200D02*
X76500D01*
X77500D02*
X78000D01*
X77450Y84500D02*
Y86500D01*
X76450Y84500D02*
Y86500D01*
X75950Y85500D02*
X76450D01*
X77450D02*
X77950D01*
X144650Y9930D02*
Y11930D01*
X145650Y9930D02*
Y11930D01*
Y10930D02*
X146150D01*
X144150D02*
X144650D01*
X131600Y29530D02*
X133600D01*
X131600Y28530D02*
X133600D01*
X132600Y28030D02*
Y28530D01*
Y29530D02*
Y30030D01*
X77550Y71100D02*
Y73100D01*
X76550Y71100D02*
Y73100D01*
X76050Y72100D02*
X76550D01*
X77550D02*
X78050D01*
X77450Y77900D02*
Y79900D01*
X76450Y77900D02*
Y79900D01*
X75950Y78900D02*
X76450D01*
X77450D02*
X77950D01*
X116447Y154400D02*
Y156400D01*
X115447Y154400D02*
Y156400D01*
X114947Y155400D02*
X115447D01*
X116447D02*
X116947D01*
X115447Y161400D02*
Y163400D01*
X116447Y161400D02*
Y163400D01*
Y162400D02*
X116947D01*
X114947D02*
X115447D01*
Y147400D02*
Y149400D01*
X116447Y147400D02*
Y149400D01*
Y148400D02*
X116947D01*
X114947D02*
X115447D01*
Y168400D02*
Y170400D01*
X116447Y168400D02*
Y170400D01*
Y169400D02*
X116947D01*
X114947D02*
X115447D01*
X116600Y140200D02*
Y142200D01*
X115600Y140200D02*
Y142200D01*
X115100Y141200D02*
X115600D01*
X116600D02*
X117100D01*
X49750Y151900D02*
Y153900D01*
X48750Y151900D02*
Y153900D01*
X48250Y152900D02*
X48750D01*
X49750D02*
X50250D01*
X49750Y163800D02*
Y165800D01*
X48750Y163800D02*
Y165800D01*
X48250Y164800D02*
X48750D01*
X49750D02*
X50250D01*
X162100Y261650D02*
X164100D01*
X162100Y260650D02*
X164100D01*
X163100Y260150D02*
Y260650D01*
Y261650D02*
Y262150D01*
X76700Y308638D02*
X75633D01*
X75100Y308104D01*
Y305972D01*
X75633Y305439D01*
X76700D01*
X77233Y305972D01*
Y308104D01*
X76700Y308638D01*
X78299Y305439D02*
Y308638D01*
X80432Y305439D01*
Y308638D01*
X142200Y186266D02*
X142733Y186799D01*
X143799D01*
X144333Y186266D01*
Y184133D01*
X143799Y183600D01*
X142733D01*
X142200Y184133D01*
Y186266D01*
X145399Y185199D02*
X147532D01*
X148598Y183600D02*
X149664D01*
X149131D01*
Y186799D01*
X148598Y186266D01*
X153396Y183600D02*
X151264D01*
X153396Y185733D01*
Y186266D01*
X152863Y186799D01*
X151797D01*
X151264Y186266D01*
X154463Y183600D02*
Y186799D01*
X155529Y185733D01*
X156595Y186799D01*
Y183600D01*
X142200Y189950D02*
X143266D01*
X142733D01*
Y193149D01*
X142200Y192616D01*
X146998Y189950D02*
X144866D01*
X146998Y192083D01*
Y192616D01*
X146465Y193149D01*
X145399D01*
X144866Y192616D01*
X148065Y191550D02*
X150197D01*
X151264Y192616D02*
X151797Y193149D01*
X152863D01*
X153396Y192616D01*
Y192083D01*
X152863Y191550D01*
X152330D01*
X152863D01*
X153396Y191016D01*
Y190483D01*
X152863Y189950D01*
X151797D01*
X151264Y190483D01*
X154463Y192616D02*
X154996Y193149D01*
X156062D01*
X156595Y192616D01*
Y190483D01*
X156062Y189950D01*
X154996D01*
X154463Y190483D01*
Y192616D01*
X157662Y189950D02*
Y193149D01*
X158728Y192083D01*
X159794Y193149D01*
Y189950D01*
X142200Y198966D02*
X142733Y199499D01*
X143799D01*
X144333Y198966D01*
Y198433D01*
X143799Y197899D01*
X143266D01*
X143799D01*
X144333Y197366D01*
Y196833D01*
X143799Y196300D01*
X142733D01*
X142200Y196833D01*
X145399Y198966D02*
X145932Y199499D01*
X146999D01*
X147532Y198966D01*
Y196833D01*
X146999Y196300D01*
X145932D01*
X145399Y196833D01*
Y198966D01*
X148598Y197899D02*
X150731D01*
X153929Y199499D02*
X152863Y198966D01*
X151797Y197899D01*
Y196833D01*
X152330Y196300D01*
X153396D01*
X153929Y196833D01*
Y197366D01*
X153396Y197899D01*
X151797D01*
X154996Y198966D02*
X155529Y199499D01*
X156595D01*
X157129Y198966D01*
Y196833D01*
X156595Y196300D01*
X155529D01*
X154996Y196833D01*
Y198966D01*
X158195Y196300D02*
Y199499D01*
X159261Y198433D01*
X160327Y199499D01*
Y196300D01*
X144333Y202650D02*
X142200D01*
X144333Y204783D01*
Y205316D01*
X143799Y205849D01*
X142733D01*
X142200Y205316D01*
X147532Y205849D02*
X145399D01*
Y204250D01*
X146465Y204783D01*
X146999D01*
X147532Y204250D01*
Y203183D01*
X146999Y202650D01*
X145932D01*
X145399Y203183D01*
X148598Y205316D02*
X149131Y205849D01*
X150197D01*
X150731Y205316D01*
Y203183D01*
X150197Y202650D01*
X149131D01*
X148598Y203183D01*
Y205316D01*
X151797Y204250D02*
X153929D01*
X154996Y205316D02*
X155529Y205849D01*
X156595D01*
X157129Y205316D01*
Y204783D01*
X156595Y204250D01*
X156062D01*
X156595D01*
X157129Y203716D01*
Y203183D01*
X156595Y202650D01*
X155529D01*
X154996Y203183D01*
X158195Y205316D02*
X158728Y205849D01*
X159794D01*
X160327Y205316D01*
Y204783D01*
X159794Y204250D01*
X160327Y203716D01*
Y203183D01*
X159794Y202650D01*
X158728D01*
X158195Y203183D01*
Y203716D01*
X158728Y204250D01*
X158195Y204783D01*
Y205316D01*
X158728Y204250D02*
X159794D01*
X161394Y205316D02*
X161927Y205849D01*
X162993D01*
X163526Y205316D01*
Y203183D01*
X162993Y202650D01*
X161927D01*
X161394Y203183D01*
Y205316D01*
X164593Y202650D02*
Y205849D01*
X165659Y204783D01*
X166725Y205849D01*
Y202650D01*
X42400Y289700D02*
X43466D01*
X42933D01*
Y292899D01*
X42400Y292366D01*
X47198Y289700D02*
X45066D01*
X47198Y291833D01*
Y292366D01*
X46665Y292899D01*
X45599D01*
X45066Y292366D01*
X48265D02*
X48798Y292899D01*
X49864D01*
X50397Y292366D01*
Y290233D01*
X49864Y289700D01*
X48798D01*
X48265Y290233D01*
Y292366D01*
X51464Y291300D02*
X53596D01*
X56795Y289700D02*
X54663D01*
X56795Y291833D01*
Y292366D01*
X56262Y292899D01*
X55196D01*
X54663Y292366D01*
X59994Y292899D02*
X57862D01*
Y291300D01*
X58928Y291833D01*
X59461D01*
X59994Y291300D01*
Y290233D01*
X59461Y289700D01*
X58395D01*
X57862Y290233D01*
X61061Y292366D02*
X61594Y292899D01*
X62660D01*
X63193Y292366D01*
Y290233D01*
X62660Y289700D01*
X61594D01*
X61061Y290233D01*
Y292366D01*
X64260Y289700D02*
Y292899D01*
X65326Y291833D01*
X66392Y292899D01*
Y289700D01*
X43999Y295167D02*
Y298366D01*
X42400Y296766D01*
X44533D01*
X45599Y297832D02*
X46132Y298366D01*
X47199D01*
X47732Y297832D01*
Y295700D01*
X47199Y295167D01*
X46132D01*
X45599Y295700D01*
Y297832D01*
X48798D02*
X49331Y298366D01*
X50397D01*
X50931Y297832D01*
Y295700D01*
X50397Y295167D01*
X49331D01*
X48798Y295700D01*
Y297832D01*
X51997Y296766D02*
X54129D01*
X55196Y295167D02*
X56262D01*
X55729D01*
Y298366D01*
X55196Y297832D01*
X57862D02*
X58395Y298366D01*
X59461D01*
X59994Y297832D01*
Y295700D01*
X59461Y295167D01*
X58395D01*
X57862Y295700D01*
Y297832D01*
X61061D02*
X61594Y298366D01*
X62660D01*
X63193Y297832D01*
Y295700D01*
X62660Y295167D01*
X61594D01*
X61061Y295700D01*
Y297832D01*
X64260D02*
X64793Y298366D01*
X65859D01*
X66392Y297832D01*
Y295700D01*
X65859Y295167D01*
X64793D01*
X64260Y295700D01*
Y297832D01*
X67459Y295167D02*
Y298366D01*
X68525Y297299D01*
X69591Y298366D01*
Y295167D01*
X44533Y303832D02*
X42400D01*
Y302233D01*
X43466Y302766D01*
X43999D01*
X44533Y302233D01*
Y301167D01*
X43999Y300633D01*
X42933D01*
X42400Y301167D01*
X45599Y303299D02*
X46132Y303832D01*
X47199D01*
X47732Y303299D01*
Y301167D01*
X47199Y300633D01*
X46132D01*
X45599Y301167D01*
Y303299D01*
X48798Y302233D02*
X50931D01*
X51997Y300633D02*
X53063D01*
X52530D01*
Y303832D01*
X51997Y303299D01*
X56795Y300633D02*
X54663D01*
X56795Y302766D01*
Y303299D01*
X56262Y303832D01*
X55196D01*
X54663Y303299D01*
X57862D02*
X58395Y303832D01*
X59461D01*
X59994Y303299D01*
Y301167D01*
X59461Y300633D01*
X58395D01*
X57862Y301167D01*
Y303299D01*
X61061Y300633D02*
Y303832D01*
X62127Y302766D01*
X63193Y303832D01*
Y300633D01*
X42400Y306100D02*
X43466D01*
X42933D01*
Y309299D01*
X42400Y308766D01*
X45066D02*
X45599Y309299D01*
X46665D01*
X47198Y308766D01*
Y306633D01*
X46665Y306100D01*
X45599D01*
X45066Y306633D01*
Y308766D01*
X48265D02*
X48798Y309299D01*
X49864D01*
X50397Y308766D01*
Y306633D01*
X49864Y306100D01*
X48798D01*
X48265Y306633D01*
Y308766D01*
X51464D02*
X51997Y309299D01*
X53063D01*
X53596Y308766D01*
Y306633D01*
X53063Y306100D01*
X51997D01*
X51464Y306633D01*
Y308766D01*
X54663Y306100D02*
Y309299D01*
X55729Y308233D01*
X56795Y309299D01*
Y306100D01*
X137933Y306500D02*
X135800D01*
X137933Y308633D01*
Y309166D01*
X137399Y309699D01*
X136333D01*
X135800Y309166D01*
X141132Y309699D02*
X138999D01*
Y308100D01*
X140065Y308633D01*
X140598D01*
X141132Y308100D01*
Y307033D01*
X140598Y306500D01*
X139532D01*
X138999Y307033D01*
X142198Y309166D02*
X142731Y309699D01*
X143797D01*
X144331Y309166D01*
Y307033D01*
X143797Y306500D01*
X142731D01*
X142198Y307033D01*
Y309166D01*
X145397Y308100D02*
X147529D01*
X148596Y309166D02*
X149129Y309699D01*
X150195D01*
X150728Y309166D01*
Y308633D01*
X150195Y308100D01*
X149662D01*
X150195D01*
X150728Y307566D01*
Y307033D01*
X150195Y306500D01*
X149129D01*
X148596Y307033D01*
X151795Y309166D02*
X152328Y309699D01*
X153394D01*
X153928Y309166D01*
Y308633D01*
X153394Y308100D01*
X153928Y307566D01*
Y307033D01*
X153394Y306500D01*
X152328D01*
X151795Y307033D01*
Y307566D01*
X152328Y308100D01*
X151795Y308633D01*
Y309166D01*
X152328Y308100D02*
X153394D01*
X154994Y309166D02*
X155527Y309699D01*
X156593D01*
X157126Y309166D01*
Y307033D01*
X156593Y306500D01*
X155527D01*
X154994Y307033D01*
Y309166D01*
X158193Y306500D02*
Y309699D01*
X159259Y308633D01*
X160325Y309699D01*
Y306500D01*
X135800Y303066D02*
X136333Y303599D01*
X137399D01*
X137933Y303066D01*
Y302533D01*
X137399Y301999D01*
X136866D01*
X137399D01*
X137933Y301466D01*
Y300933D01*
X137399Y300400D01*
X136333D01*
X135800Y300933D01*
X138999Y303066D02*
X139532Y303599D01*
X140598D01*
X141132Y303066D01*
Y300933D01*
X140598Y300400D01*
X139532D01*
X138999Y300933D01*
Y303066D01*
X142198Y301999D02*
X144331D01*
X147529Y303599D02*
X146463Y303066D01*
X145397Y301999D01*
Y300933D01*
X145930Y300400D01*
X146996D01*
X147529Y300933D01*
Y301466D01*
X146996Y301999D01*
X145397D01*
X148596Y303066D02*
X149129Y303599D01*
X150195D01*
X150728Y303066D01*
Y300933D01*
X150195Y300400D01*
X149129D01*
X148596Y300933D01*
Y303066D01*
X151795Y300400D02*
Y303599D01*
X152861Y302533D01*
X153928Y303599D01*
Y300400D01*
X135800Y294300D02*
X136866D01*
X136333D01*
Y297499D01*
X135800Y296966D01*
X140598Y294300D02*
X138466D01*
X140598Y296433D01*
Y296966D01*
X140065Y297499D01*
X138999D01*
X138466Y296966D01*
X141665Y295900D02*
X143797D01*
X144864Y296966D02*
X145397Y297499D01*
X146463D01*
X146996Y296966D01*
Y296433D01*
X146463Y295900D01*
X145930D01*
X146463D01*
X146996Y295366D01*
Y294833D01*
X146463Y294300D01*
X145397D01*
X144864Y294833D01*
X148063Y296966D02*
X148596Y297499D01*
X149662D01*
X150195Y296966D01*
Y294833D01*
X149662Y294300D01*
X148596D01*
X148063Y294833D01*
Y296966D01*
X151262Y294300D02*
Y297499D01*
X152328Y296433D01*
X153394Y297499D01*
Y294300D01*
X135800Y290866D02*
X136333Y291399D01*
X137399D01*
X137933Y290866D01*
Y288733D01*
X137399Y288200D01*
X136333D01*
X135800Y288733D01*
Y290866D01*
X138999Y289799D02*
X141132D01*
X142198Y288200D02*
X143264D01*
X142731D01*
Y291399D01*
X142198Y290866D01*
X146996Y288200D02*
X144864D01*
X146996Y290333D01*
Y290866D01*
X146463Y291399D01*
X145397D01*
X144864Y290866D01*
X148063Y288200D02*
Y291399D01*
X149129Y290333D01*
X150195Y291399D01*
Y288200D01*
X116600Y204076D02*
X115533D01*
X115000Y203543D01*
Y201410D01*
X115533Y200877D01*
X116600D01*
X117133Y201410D01*
Y203543D01*
X116600Y204076D01*
X118199Y200877D02*
Y204076D01*
X120332Y200877D01*
Y204076D01*
X110899Y308638D02*
X109833D01*
X109300Y308104D01*
Y305972D01*
X109833Y305439D01*
X110899D01*
X111433Y305972D01*
Y308104D01*
X110899Y308638D01*
X112499Y305439D02*
Y308638D01*
X114632Y305439D01*
Y308638D01*
X73533Y324366D02*
X73000Y324899D01*
X71933D01*
X71400Y324366D01*
Y323833D01*
X71933Y323300D01*
X73000D01*
X73533Y322766D01*
Y322233D01*
X73000Y321700D01*
X71933D01*
X71400Y322233D01*
X74599Y324899D02*
Y321700D01*
X75665Y322766D01*
X76732Y321700D01*
Y324899D01*
X77798Y324366D02*
X78331Y324899D01*
X79397D01*
X79931Y324366D01*
Y323833D01*
X79397Y323300D01*
X78864D01*
X79397D01*
X79931Y322766D01*
Y322233D01*
X79397Y321700D01*
X78331D01*
X77798Y322233D01*
X123800Y69899D02*
X125933Y66700D01*
Y69899D02*
X123800Y66700D01*
X126999D02*
X128065D01*
X127532D01*
Y69899D01*
X126999Y69366D01*
X88500Y39899D02*
Y37233D01*
X89033Y36700D01*
X90100D01*
X90633Y37233D01*
Y39899D01*
X93832Y39366D02*
X93299Y39899D01*
X92232D01*
X91699Y39366D01*
Y38833D01*
X92232Y38300D01*
X93299D01*
X93832Y37766D01*
Y37233D01*
X93299Y36700D01*
X92232D01*
X91699Y37233D01*
X94898Y39899D02*
Y36700D01*
X96497D01*
X97031Y37233D01*
Y37766D01*
X96497Y38300D01*
X94898D01*
X96497D01*
X97031Y38833D01*
Y39366D01*
X96497Y39899D01*
X94898D01*
X100230Y39366D02*
X99696Y39899D01*
X98630D01*
X98097Y39366D01*
Y37233D01*
X98630Y36700D01*
X99696D01*
X100230Y37233D01*
X101296Y36700D02*
X102362D01*
X101829D01*
Y39899D01*
X101296Y39366D01*
X138800Y40299D02*
Y37633D01*
X139333Y37100D01*
X140400D01*
X140933Y37633D01*
Y40299D01*
X143598Y37100D02*
Y40299D01*
X141999Y38699D01*
X144132D01*
X64100Y41099D02*
Y38433D01*
X64633Y37900D01*
X65699D01*
X66233Y38433D01*
Y41099D01*
X67299Y40566D02*
X67832Y41099D01*
X68898D01*
X69432Y40566D01*
Y40033D01*
X68898Y39500D01*
X68365D01*
X68898D01*
X69432Y38966D01*
Y38433D01*
X68898Y37900D01*
X67832D01*
X67299Y38433D01*
X117100Y105399D02*
Y102733D01*
X117633Y102200D01*
X118700D01*
X119233Y102733D01*
Y105399D01*
X122432Y102200D02*
X120299D01*
X122432Y104333D01*
Y104866D01*
X121898Y105399D01*
X120832D01*
X120299Y104866D01*
X67900Y182999D02*
Y180333D01*
X68433Y179800D01*
X69499D01*
X70033Y180333D01*
Y182999D01*
X71099Y179800D02*
X72165D01*
X71632D01*
Y182999D01*
X71099Y182466D01*
X127633Y324327D02*
X127100Y324860D01*
X126033D01*
X125500Y324327D01*
Y323794D01*
X126033Y323261D01*
X127100D01*
X127633Y322728D01*
Y322195D01*
X127100Y321661D01*
X126033D01*
X125500Y322195D01*
X128699Y324860D02*
Y321661D01*
X129765Y322728D01*
X130832Y321661D01*
Y324860D01*
X134031Y321661D02*
X131898D01*
X134031Y323794D01*
Y324327D01*
X133497Y324860D01*
X132431D01*
X131898Y324327D01*
X113433Y219766D02*
X112899Y220299D01*
X111833D01*
X111300Y219766D01*
Y219233D01*
X111833Y218700D01*
X112899D01*
X113433Y218166D01*
Y217633D01*
X112899Y217100D01*
X111833D01*
X111300Y217633D01*
X114499Y220299D02*
Y217100D01*
X115565Y218166D01*
X116632Y217100D01*
Y220299D01*
X117698Y217100D02*
X118764D01*
X118231D01*
Y220299D01*
X117698Y219766D01*
X154300Y46400D02*
Y49599D01*
X155900D01*
X156433Y49066D01*
Y48000D01*
X155900Y47466D01*
X154300D01*
X155366D02*
X156433Y46400D01*
X159098D02*
Y49599D01*
X157499Y48000D01*
X159632D01*
X52100Y46550D02*
Y49749D01*
X53699D01*
X54233Y49216D01*
Y48149D01*
X53699Y47616D01*
X52100D01*
X53166D02*
X54233Y46550D01*
X55299Y49216D02*
X55832Y49749D01*
X56898D01*
X57432Y49216D01*
Y48683D01*
X56898Y48149D01*
X56365D01*
X56898D01*
X57432Y47616D01*
Y47083D01*
X56898Y46550D01*
X55832D01*
X55299Y47083D01*
X110300Y66200D02*
Y69399D01*
X111899D01*
X112433Y68866D01*
Y67800D01*
X111899Y67266D01*
X110300D01*
X111366D02*
X112433Y66200D01*
X115632D02*
X113499D01*
X115632Y68333D01*
Y68866D01*
X115099Y69399D01*
X114032D01*
X113499Y68866D01*
X91900Y134100D02*
Y137299D01*
X93499D01*
X94033Y136766D01*
Y135699D01*
X93499Y135166D01*
X91900D01*
X92966D02*
X94033Y134100D01*
X95099D02*
X96165D01*
X95632D01*
Y137299D01*
X95099Y136766D01*
X167299Y24000D02*
X164100D01*
Y21867D01*
X167299Y18668D02*
Y20801D01*
X164100D01*
Y18668D01*
X165700Y20801D02*
Y19735D01*
X167299Y17602D02*
X164100D01*
Y16003D01*
X164633Y15469D01*
X166766D01*
X167299Y16003D01*
Y17602D01*
X164100Y12270D02*
Y14403D01*
X166233Y12270D01*
X166766D01*
X167299Y12804D01*
Y13870D01*
X166766Y14403D01*
X48899Y23500D02*
X45700D01*
Y21367D01*
X48899Y18168D02*
Y20301D01*
X45700D01*
Y18168D01*
X47300Y20301D02*
Y19235D01*
X48899Y17102D02*
X45700D01*
Y15503D01*
X46233Y14969D01*
X48366D01*
X48899Y15503D01*
Y17102D01*
X45700Y13903D02*
Y12837D01*
Y13370D01*
X48899D01*
X48366Y13903D01*
X99599Y221500D02*
X96400D01*
Y219367D01*
Y218301D02*
Y217235D01*
Y217768D01*
X99599D01*
X99066Y218301D01*
X96400Y214036D02*
X99599D01*
X98000Y215635D01*
Y213503D01*
X92899Y263600D02*
X89700D01*
Y261467D01*
Y260401D02*
Y259335D01*
Y259868D01*
X92899D01*
X92366Y260401D01*
Y257735D02*
X92899Y257202D01*
Y256136D01*
X92366Y255603D01*
X91833D01*
X91299Y256136D01*
Y256669D01*
Y256136D01*
X90766Y255603D01*
X90233D01*
X89700Y256136D01*
Y257202D01*
X90233Y257735D01*
X102550Y273599D02*
Y270400D01*
X104683D01*
X105749D02*
X106815D01*
X106282D01*
Y273599D01*
X105749Y273066D01*
X110547Y270400D02*
X108415D01*
X110547Y272533D01*
Y273066D01*
X110014Y273599D01*
X108948D01*
X108415Y273066D01*
X70599Y247400D02*
X67400D01*
Y245267D01*
Y244201D02*
Y243135D01*
Y243668D01*
X70599D01*
X70066Y244201D01*
X67400Y241535D02*
Y240469D01*
Y241002D01*
X70599D01*
X70066Y241535D01*
X80600Y273699D02*
Y270500D01*
X82733D01*
X83799Y271033D02*
X84332Y270500D01*
X85399D01*
X85932Y271033D01*
Y273166D01*
X85399Y273699D01*
X84332D01*
X83799Y273166D01*
Y272633D01*
X84332Y272099D01*
X85932D01*
X117797Y273599D02*
Y270400D01*
X119930D01*
X120996Y273599D02*
X123128D01*
Y273066D01*
X120996Y270933D01*
Y270400D01*
X45199Y233300D02*
X42000D01*
Y231167D01*
X45199Y227968D02*
X44666Y229035D01*
X43600Y230101D01*
X42533D01*
X42000Y229568D01*
Y228502D01*
X42533Y227968D01*
X43066D01*
X43600Y228502D01*
Y230101D01*
X139200Y273599D02*
Y270400D01*
X141333D01*
X143999D02*
Y273599D01*
X142399Y272000D01*
X144532D01*
X50199Y249000D02*
X47000D01*
Y246867D01*
X49666Y245801D02*
X50199Y245268D01*
Y244201D01*
X49666Y243668D01*
X49133D01*
X48599Y244201D01*
Y244735D01*
Y244201D01*
X48066Y243668D01*
X47533D01*
X47000Y244201D01*
Y245268D01*
X47533Y245801D01*
X58600Y273699D02*
Y270500D01*
X60733D01*
X63932D02*
X61799D01*
X63932Y272633D01*
Y273166D01*
X63398Y273699D01*
X62332D01*
X61799Y273166D01*
X154200Y274099D02*
Y270900D01*
X156333D01*
X157399D02*
X158465D01*
X157932D01*
Y274099D01*
X157399Y273566D01*
X78233Y348499D02*
X77166D01*
X77700D01*
Y345833D01*
X77166Y345300D01*
X76633D01*
X76100Y345833D01*
X79299Y345300D02*
Y348499D01*
X80898D01*
X81432Y347966D01*
Y346900D01*
X80898Y346366D01*
X79299D01*
X82498Y345300D02*
X83564D01*
X83031D01*
Y348499D01*
X82498Y347966D01*
X78800Y340095D02*
Y336896D01*
X80400D01*
X80933Y337429D01*
Y339562D01*
X80400Y340095D01*
X78800D01*
X84132Y336896D02*
X81999D01*
X84132Y339029D01*
Y339562D01*
X83599Y340095D01*
X82532D01*
X81999Y339562D01*
X122306Y341099D02*
Y337900D01*
X123906D01*
X124439Y338433D01*
Y340566D01*
X123906Y341099D01*
X122306D01*
X125505Y337900D02*
X126572D01*
X126038D01*
Y341099D01*
X125505Y340566D01*
X88933Y73166D02*
X88399Y73699D01*
X87333D01*
X86800Y73166D01*
Y71033D01*
X87333Y70500D01*
X88399D01*
X88933Y71033D01*
X92132Y73699D02*
X89999D01*
Y72100D01*
X91065Y72633D01*
X91598D01*
X92132Y72100D01*
Y71033D01*
X91598Y70500D01*
X90532D01*
X89999Y71033D01*
X93198Y73699D02*
X95331D01*
Y73166D01*
X93198Y71033D01*
Y70500D01*
X88833Y79966D02*
X88300Y80499D01*
X87233D01*
X86700Y79966D01*
Y77833D01*
X87233Y77300D01*
X88300D01*
X88833Y77833D01*
X92032Y80499D02*
X89899D01*
Y78900D01*
X90965Y79433D01*
X91499D01*
X92032Y78900D01*
Y77833D01*
X91499Y77300D01*
X90432D01*
X89899Y77833D01*
X95231Y80499D02*
X94164Y79966D01*
X93098Y78900D01*
Y77833D01*
X93631Y77300D01*
X94697D01*
X95231Y77833D01*
Y78366D01*
X94697Y78900D01*
X93098D01*
X130433Y18766D02*
X129900Y19299D01*
X128833D01*
X128300Y18766D01*
Y16633D01*
X128833Y16100D01*
X129900D01*
X130433Y16633D01*
X133632Y19299D02*
X131499D01*
Y17699D01*
X132565Y18233D01*
X133098D01*
X133632Y17699D01*
Y16633D01*
X133098Y16100D01*
X132032D01*
X131499Y16633D01*
X136831Y19299D02*
X134698D01*
Y17699D01*
X135764Y18233D01*
X136297D01*
X136831Y17699D01*
Y16633D01*
X136297Y16100D01*
X135231D01*
X134698Y16633D01*
X140633Y44766D02*
X140100Y45299D01*
X139033D01*
X138500Y44766D01*
Y42633D01*
X139033Y42100D01*
X140100D01*
X140633Y42633D01*
X143832Y45299D02*
X141699D01*
Y43699D01*
X142765Y44233D01*
X143298D01*
X143832Y43699D01*
Y42633D01*
X143298Y42100D01*
X142232D01*
X141699Y42633D01*
X146497Y42100D02*
Y45299D01*
X144898Y43699D01*
X147031D01*
X140733Y4766D02*
X140199Y5299D01*
X139133D01*
X138600Y4766D01*
Y2633D01*
X139133Y2100D01*
X140199D01*
X140733Y2633D01*
X143932Y5299D02*
X141799D01*
Y3700D01*
X142865Y4233D01*
X143398D01*
X143932Y3700D01*
Y2633D01*
X143398Y2100D01*
X142332D01*
X141799Y2633D01*
X144998Y4766D02*
X145531Y5299D01*
X146597D01*
X147131Y4766D01*
Y4233D01*
X146597Y3700D01*
X146064D01*
X146597D01*
X147131Y3166D01*
Y2633D01*
X146597Y2100D01*
X145531D01*
X144998Y2633D01*
X88933Y66266D02*
X88399Y66799D01*
X87333D01*
X86800Y66266D01*
Y64133D01*
X87333Y63600D01*
X88399D01*
X88933Y64133D01*
X92132Y66799D02*
X89999D01*
Y65200D01*
X91065Y65733D01*
X91598D01*
X92132Y65200D01*
Y64133D01*
X91598Y63600D01*
X90532D01*
X89999Y64133D01*
X95331Y63600D02*
X93198D01*
X95331Y65733D01*
Y66266D01*
X94797Y66799D01*
X93731D01*
X93198Y66266D01*
X88833Y86566D02*
X88300Y87099D01*
X87233D01*
X86700Y86566D01*
Y84433D01*
X87233Y83900D01*
X88300D01*
X88833Y84433D01*
X92032Y87099D02*
X89899D01*
Y85500D01*
X90965Y86033D01*
X91499D01*
X92032Y85500D01*
Y84433D01*
X91499Y83900D01*
X90432D01*
X89899Y84433D01*
X93098Y83900D02*
X94164D01*
X93631D01*
Y87099D01*
X93098Y86566D01*
X88933Y52366D02*
X88399Y52899D01*
X87333D01*
X86800Y52366D01*
Y50233D01*
X87333Y49700D01*
X88399D01*
X88933Y50233D01*
X92132Y52899D02*
X89999D01*
Y51300D01*
X91065Y51833D01*
X91598D01*
X92132Y51300D01*
Y50233D01*
X91598Y49700D01*
X90532D01*
X89999Y50233D01*
X93198Y52366D02*
X93731Y52899D01*
X94797D01*
X95331Y52366D01*
Y50233D01*
X94797Y49700D01*
X93731D01*
X93198Y50233D01*
Y52366D01*
X88933Y59066D02*
X88399Y59599D01*
X87333D01*
X86800Y59066D01*
Y56933D01*
X87333Y56400D01*
X88399D01*
X88933Y56933D01*
X91598Y56400D02*
Y59599D01*
X89999Y57999D01*
X92132D01*
X93198Y56933D02*
X93731Y56400D01*
X94797D01*
X95331Y56933D01*
Y59066D01*
X94797Y59599D01*
X93731D01*
X93198Y59066D01*
Y58533D01*
X93731Y57999D01*
X95331D01*
X82133Y4766D02*
X81599Y5299D01*
X80533D01*
X80000Y4766D01*
Y2633D01*
X80533Y2100D01*
X81599D01*
X82133Y2633D01*
X84799Y2100D02*
Y5299D01*
X83199Y3700D01*
X85332D01*
X86398Y4766D02*
X86931Y5299D01*
X87997D01*
X88531Y4766D01*
Y4233D01*
X87997Y3700D01*
X88531Y3166D01*
Y2633D01*
X87997Y2100D01*
X86931D01*
X86398Y2633D01*
Y3166D01*
X86931Y3700D01*
X86398Y4233D01*
Y4766D01*
X86931Y3700D02*
X87997D01*
X65833Y4866D02*
X65299Y5399D01*
X64233D01*
X63700Y4866D01*
Y2733D01*
X64233Y2200D01*
X65299D01*
X65833Y2733D01*
X68498Y2200D02*
Y5399D01*
X66899Y3799D01*
X69032D01*
X70098Y5399D02*
X72231D01*
Y4866D01*
X70098Y2733D01*
Y2200D01*
X66033Y45066D02*
X65500Y45599D01*
X64433D01*
X63900Y45066D01*
Y42933D01*
X64433Y42400D01*
X65500D01*
X66033Y42933D01*
X68699Y42400D02*
Y45599D01*
X67099Y43999D01*
X69232D01*
X72431Y45599D02*
X71364Y45066D01*
X70298Y43999D01*
Y42933D01*
X70831Y42400D01*
X71897D01*
X72431Y42933D01*
Y43466D01*
X71897Y43999D01*
X70298D01*
X113666Y129467D02*
X114199Y130000D01*
Y131067D01*
X113666Y131600D01*
X111533D01*
X111000Y131067D01*
Y130000D01*
X111533Y129467D01*
X111000Y126802D02*
X114199D01*
X112600Y128401D01*
Y126268D01*
X114199Y123069D02*
Y125202D01*
X112600D01*
X113133Y124136D01*
Y123603D01*
X112600Y123069D01*
X111533D01*
X111000Y123603D01*
Y124669D01*
X111533Y125202D01*
X146366Y59167D02*
X146899Y59701D01*
Y60767D01*
X146366Y61300D01*
X144233D01*
X143700Y60767D01*
Y59701D01*
X144233Y59167D01*
X143700Y56502D02*
X146899D01*
X145299Y58101D01*
Y55968D01*
X143700Y53303D02*
X146899D01*
X145299Y54902D01*
Y52769D01*
X108833Y46866D02*
X108300Y47399D01*
X107233D01*
X106700Y46866D01*
Y44733D01*
X107233Y44200D01*
X108300D01*
X108833Y44733D01*
X111498Y44200D02*
Y47399D01*
X109899Y45799D01*
X112032D01*
X113098Y46866D02*
X113631Y47399D01*
X114697D01*
X115231Y46866D01*
Y46333D01*
X114697Y45799D01*
X114164D01*
X114697D01*
X115231Y45266D01*
Y44733D01*
X114697Y44200D01*
X113631D01*
X113098Y44733D01*
X120666Y129567D02*
X121199Y130101D01*
Y131167D01*
X120666Y131700D01*
X118533D01*
X118000Y131167D01*
Y130101D01*
X118533Y129567D01*
X118000Y126901D02*
X121199D01*
X119599Y128501D01*
Y126368D01*
X118000Y123169D02*
Y125302D01*
X120133Y123169D01*
X120666D01*
X121199Y123703D01*
Y124769D01*
X120666Y125302D01*
X127666Y128667D02*
X128199Y129200D01*
Y130267D01*
X127666Y130800D01*
X125533D01*
X125000Y130267D01*
Y129200D01*
X125533Y128667D01*
X125000Y126002D02*
X128199D01*
X126600Y127601D01*
Y125468D01*
X125000Y124402D02*
Y123336D01*
Y123869D01*
X128199D01*
X127666Y124402D01*
X134666Y129567D02*
X135199Y130101D01*
Y131167D01*
X134666Y131700D01*
X132533D01*
X132000Y131167D01*
Y130101D01*
X132533Y129567D01*
X132000Y126901D02*
X135199D01*
X133599Y128501D01*
Y126368D01*
X134666Y125302D02*
X135199Y124769D01*
Y123703D01*
X134666Y123169D01*
X132533D01*
X132000Y123703D01*
Y124769D01*
X132533Y125302D01*
X134666D01*
X47133Y173066D02*
X46600Y173599D01*
X45533D01*
X45000Y173066D01*
Y170933D01*
X45533Y170400D01*
X46600D01*
X47133Y170933D01*
X48199Y173066D02*
X48732Y173599D01*
X49799D01*
X50332Y173066D01*
Y172533D01*
X49799Y172000D01*
X49265D01*
X49799D01*
X50332Y171466D01*
Y170933D01*
X49799Y170400D01*
X48732D01*
X48199Y170933D01*
X51398D02*
X51931Y170400D01*
X52997D01*
X53531Y170933D01*
Y173066D01*
X52997Y173599D01*
X51931D01*
X51398Y173066D01*
Y172533D01*
X51931Y172000D01*
X53531D01*
X47133Y146766D02*
X46600Y147299D01*
X45533D01*
X45000Y146766D01*
Y144633D01*
X45533Y144100D01*
X46600D01*
X47133Y144633D01*
X48199Y146766D02*
X48732Y147299D01*
X49799D01*
X50332Y146766D01*
Y146233D01*
X49799Y145700D01*
X49265D01*
X49799D01*
X50332Y145166D01*
Y144633D01*
X49799Y144100D01*
X48732D01*
X48199Y144633D01*
X51398Y146766D02*
X51931Y147299D01*
X52997D01*
X53531Y146766D01*
Y146233D01*
X52997Y145700D01*
X53531Y145166D01*
Y144633D01*
X52997Y144100D01*
X51931D01*
X51398Y144633D01*
Y145166D01*
X51931Y145700D01*
X51398Y146233D01*
Y146766D01*
X51931Y145700D02*
X52997D01*
X55766Y193567D02*
X56299Y194100D01*
Y195167D01*
X55766Y195700D01*
X53633D01*
X53100Y195167D01*
Y194100D01*
X53633Y193567D01*
X55766Y192501D02*
X56299Y191968D01*
Y190902D01*
X55766Y190368D01*
X55233D01*
X54699Y190902D01*
Y191435D01*
Y190902D01*
X54166Y190368D01*
X53633D01*
X53100Y190902D01*
Y191968D01*
X53633Y192501D01*
X56299Y189302D02*
Y187169D01*
X55766D01*
X53633Y189302D01*
X53100D01*
X69966Y207567D02*
X70499Y208101D01*
Y209167D01*
X69966Y209700D01*
X67833D01*
X67300Y209167D01*
Y208101D01*
X67833Y207567D01*
X69966Y206501D02*
X70499Y205968D01*
Y204902D01*
X69966Y204368D01*
X69433D01*
X68900Y204902D01*
Y205435D01*
Y204902D01*
X68366Y204368D01*
X67833D01*
X67300Y204902D01*
Y205968D01*
X67833Y206501D01*
X70499Y201169D02*
X69966Y202236D01*
X68900Y203302D01*
X67833D01*
X67300Y202769D01*
Y201703D01*
X67833Y201169D01*
X68366D01*
X68900Y201703D01*
Y203302D01*
X74233Y203866D02*
X73699Y204399D01*
X72633D01*
X72100Y203866D01*
Y201733D01*
X72633Y201200D01*
X73699D01*
X74233Y201733D01*
X75299Y203866D02*
X75832Y204399D01*
X76898D01*
X77432Y203866D01*
Y203333D01*
X76898Y202800D01*
X76365D01*
X76898D01*
X77432Y202266D01*
Y201733D01*
X76898Y201200D01*
X75832D01*
X75299Y201733D01*
X80631Y204399D02*
X78498D01*
Y202800D01*
X79564Y203333D01*
X80097D01*
X80631Y202800D01*
Y201733D01*
X80097Y201200D01*
X79031D01*
X78498Y201733D01*
X83633Y203866D02*
X83100Y204399D01*
X82033D01*
X81500Y203866D01*
Y201733D01*
X82033Y201200D01*
X83100D01*
X83633Y201733D01*
X84699Y203866D02*
X85232Y204399D01*
X86299D01*
X86832Y203866D01*
Y203333D01*
X86299Y202800D01*
X85765D01*
X86299D01*
X86832Y202266D01*
Y201733D01*
X86299Y201200D01*
X85232D01*
X84699Y201733D01*
X89497Y201200D02*
Y204399D01*
X87898Y202800D01*
X90031D01*
X95266Y207567D02*
X95799Y208101D01*
Y209167D01*
X95266Y209700D01*
X93133D01*
X92600Y209167D01*
Y208101D01*
X93133Y207567D01*
X95266Y206501D02*
X95799Y205968D01*
Y204902D01*
X95266Y204368D01*
X94733D01*
X94200Y204902D01*
Y205435D01*
Y204902D01*
X93666Y204368D01*
X93133D01*
X92600Y204902D01*
Y205968D01*
X93133Y206501D01*
X95266Y203302D02*
X95799Y202769D01*
Y201703D01*
X95266Y201169D01*
X94733D01*
X94200Y201703D01*
Y202236D01*
Y201703D01*
X93666Y201169D01*
X93133D01*
X92600Y201703D01*
Y202769D01*
X93133Y203302D01*
X76966Y112467D02*
X77499Y113001D01*
Y114067D01*
X76966Y114600D01*
X74833D01*
X74300Y114067D01*
Y113001D01*
X74833Y112467D01*
X76966Y111401D02*
X77499Y110868D01*
Y109801D01*
X76966Y109268D01*
X76433D01*
X75899Y109801D01*
Y110335D01*
Y109801D01*
X75366Y109268D01*
X74833D01*
X74300Y109801D01*
Y110868D01*
X74833Y111401D01*
X74300Y106069D02*
Y108202D01*
X76433Y106069D01*
X76966D01*
X77499Y106603D01*
Y107669D01*
X76966Y108202D01*
X83966Y112467D02*
X84499Y113001D01*
Y114067D01*
X83966Y114600D01*
X81833D01*
X81300Y114067D01*
Y113001D01*
X81833Y112467D01*
X83966Y111401D02*
X84499Y110868D01*
Y109801D01*
X83966Y109268D01*
X83433D01*
X82899Y109801D01*
Y110335D01*
Y109801D01*
X82366Y109268D01*
X81833D01*
X81300Y109801D01*
Y110868D01*
X81833Y111401D01*
X81300Y108202D02*
Y107136D01*
Y107669D01*
X84499D01*
X83966Y108202D01*
X90966Y105367D02*
X91499Y105901D01*
Y106967D01*
X90966Y107500D01*
X88833D01*
X88300Y106967D01*
Y105901D01*
X88833Y105367D01*
X90966Y104301D02*
X91499Y103768D01*
Y102701D01*
X90966Y102168D01*
X90433D01*
X89899Y102701D01*
Y103235D01*
Y102701D01*
X89366Y102168D01*
X88833D01*
X88300Y102701D01*
Y103768D01*
X88833Y104301D01*
X90966Y101102D02*
X91499Y100569D01*
Y99503D01*
X90966Y98969D01*
X88833D01*
X88300Y99503D01*
Y100569D01*
X88833Y101102D01*
X90966D01*
X106466Y112467D02*
X106999Y113001D01*
Y114067D01*
X106466Y114600D01*
X104333D01*
X103800Y114067D01*
Y113001D01*
X104333Y112467D01*
X103800Y109268D02*
Y111401D01*
X105933Y109268D01*
X106466D01*
X106999Y109801D01*
Y110868D01*
X106466Y111401D01*
X104333Y108202D02*
X103800Y107669D01*
Y106603D01*
X104333Y106069D01*
X106466D01*
X106999Y106603D01*
Y107669D01*
X106466Y108202D01*
X105933D01*
X105400Y107669D01*
Y106069D01*
X99266Y105467D02*
X99799Y106000D01*
Y107067D01*
X99266Y107600D01*
X97133D01*
X96600Y107067D01*
Y106000D01*
X97133Y105467D01*
X96600Y102268D02*
Y104401D01*
X98733Y102268D01*
X99266D01*
X99799Y102802D01*
Y103868D01*
X99266Y104401D01*
Y101202D02*
X99799Y100669D01*
Y99603D01*
X99266Y99069D01*
X98733D01*
X98199Y99603D01*
X97666Y99069D01*
X97133D01*
X96600Y99603D01*
Y100669D01*
X97133Y101202D01*
X97666D01*
X98199Y100669D01*
X98733Y101202D01*
X99266D01*
X98199Y100669D02*
Y99603D01*
X127933Y142266D02*
X127400Y142799D01*
X126333D01*
X125800Y142266D01*
Y140133D01*
X126333Y139600D01*
X127400D01*
X127933Y140133D01*
X131132Y139600D02*
X128999D01*
X131132Y141733D01*
Y142266D01*
X130598Y142799D01*
X129532D01*
X128999Y142266D01*
X132198Y142799D02*
X134331D01*
Y142266D01*
X132198Y140133D01*
Y139600D01*
X127833Y170466D02*
X127299Y170999D01*
X126233D01*
X125700Y170466D01*
Y168333D01*
X126233Y167800D01*
X127299D01*
X127833Y168333D01*
X131032Y167800D02*
X128899D01*
X131032Y169933D01*
Y170466D01*
X130499Y170999D01*
X129432D01*
X128899Y170466D01*
X134231Y170999D02*
X133164Y170466D01*
X132098Y169399D01*
Y168333D01*
X132631Y167800D01*
X133697D01*
X134231Y168333D01*
Y168866D01*
X133697Y169399D01*
X132098D01*
X102666Y207567D02*
X103199Y208101D01*
Y209167D01*
X102666Y209700D01*
X100533D01*
X100000Y209167D01*
Y208101D01*
X100533Y207567D01*
X100000Y204368D02*
Y206501D01*
X102133Y204368D01*
X102666D01*
X103199Y204902D01*
Y205968D01*
X102666Y206501D01*
X103199Y201169D02*
Y203302D01*
X101600D01*
X102133Y202236D01*
Y201703D01*
X101600Y201169D01*
X100533D01*
X100000Y201703D01*
Y202769D01*
X100533Y203302D01*
X127833Y149466D02*
X127299Y149999D01*
X126233D01*
X125700Y149466D01*
Y147333D01*
X126233Y146800D01*
X127299D01*
X127833Y147333D01*
X131032Y146800D02*
X128899D01*
X131032Y148933D01*
Y149466D01*
X130499Y149999D01*
X129432D01*
X128899Y149466D01*
X133697Y146800D02*
Y149999D01*
X132098Y148399D01*
X134231D01*
X127833Y163466D02*
X127299Y163999D01*
X126233D01*
X125700Y163466D01*
Y161333D01*
X126233Y160800D01*
X127299D01*
X127833Y161333D01*
X131032Y160800D02*
X128899D01*
X131032Y162933D01*
Y163466D01*
X130499Y163999D01*
X129432D01*
X128899Y163466D01*
X132098D02*
X132631Y163999D01*
X133697D01*
X134231Y163466D01*
Y162933D01*
X133697Y162399D01*
X133164D01*
X133697D01*
X134231Y161866D01*
Y161333D01*
X133697Y160800D01*
X132631D01*
X132098Y161333D01*
X127833Y156466D02*
X127299Y156999D01*
X126233D01*
X125700Y156466D01*
Y154333D01*
X126233Y153800D01*
X127299D01*
X127833Y154333D01*
X131032Y153800D02*
X128899D01*
X131032Y155933D01*
Y156466D01*
X130499Y156999D01*
X129432D01*
X128899Y156466D01*
X134231Y153800D02*
X132098D01*
X134231Y155933D01*
Y156466D01*
X133697Y156999D01*
X132631D01*
X132098Y156466D01*
X94066Y218867D02*
X94599Y219401D01*
Y220467D01*
X94066Y221000D01*
X91933D01*
X91400Y220467D01*
Y219401D01*
X91933Y218867D01*
X91400Y215668D02*
Y217801D01*
X93533Y215668D01*
X94066D01*
X94599Y216201D01*
Y217268D01*
X94066Y217801D01*
X91400Y214602D02*
Y213536D01*
Y214069D01*
X94599D01*
X94066Y214602D01*
X99066Y261967D02*
X99599Y262501D01*
Y263567D01*
X99066Y264100D01*
X96933D01*
X96400Y263567D01*
Y262501D01*
X96933Y261967D01*
X96400Y258768D02*
Y260901D01*
X98533Y258768D01*
X99066D01*
X99599Y259301D01*
Y260368D01*
X99066Y260901D01*
Y257702D02*
X99599Y257169D01*
Y256103D01*
X99066Y255569D01*
X96933D01*
X96400Y256103D01*
Y257169D01*
X96933Y257702D01*
X99066D01*
X69766Y217067D02*
X70299Y217600D01*
Y218667D01*
X69766Y219200D01*
X67633D01*
X67100Y218667D01*
Y217600D01*
X67633Y217067D01*
X67100Y216001D02*
Y214935D01*
Y215468D01*
X70299D01*
X69766Y216001D01*
X67633Y213335D02*
X67100Y212802D01*
Y211736D01*
X67633Y211203D01*
X69766D01*
X70299Y211736D01*
Y212802D01*
X69766Y213335D01*
X69233D01*
X68700Y212802D01*
Y211203D01*
X76966Y246367D02*
X77499Y246901D01*
Y247967D01*
X76966Y248500D01*
X74833D01*
X74300Y247967D01*
Y246901D01*
X74833Y246367D01*
X74300Y245301D02*
Y244235D01*
Y244768D01*
X77499D01*
X76966Y245301D01*
Y242635D02*
X77499Y242102D01*
Y241036D01*
X76966Y240503D01*
X76433D01*
X75899Y241036D01*
X75366Y240503D01*
X74833D01*
X74300Y241036D01*
Y242102D01*
X74833Y242635D01*
X75366D01*
X75899Y242102D01*
X76433Y242635D01*
X76966D01*
X75899Y242102D02*
Y241036D01*
X113066Y232567D02*
X113599Y233101D01*
Y234167D01*
X113066Y234700D01*
X110933D01*
X110400Y234167D01*
Y233101D01*
X110933Y232567D01*
X110400Y231501D02*
Y230435D01*
Y230968D01*
X113599D01*
X113066Y231501D01*
X113599Y228835D02*
Y226703D01*
X113066D01*
X110933Y228835D01*
X110400D01*
X106066Y219267D02*
X106599Y219800D01*
Y220867D01*
X106066Y221400D01*
X103933D01*
X103400Y220867D01*
Y219800D01*
X103933Y219267D01*
X103400Y218201D02*
Y217135D01*
Y217668D01*
X106599D01*
X106066Y218201D01*
X106599Y213403D02*
X106066Y214469D01*
X104999Y215535D01*
X103933D01*
X103400Y215002D01*
Y213936D01*
X103933Y213403D01*
X104466D01*
X104999Y213936D01*
Y215535D01*
X89466Y217267D02*
X89999Y217800D01*
Y218867D01*
X89466Y219400D01*
X87333D01*
X86800Y218867D01*
Y217800D01*
X87333Y217267D01*
X86800Y216201D02*
Y215135D01*
Y215668D01*
X89999D01*
X89466Y216201D01*
X89999Y211403D02*
Y213535D01*
X88399D01*
X88933Y212469D01*
Y211936D01*
X88399Y211403D01*
X87333D01*
X86800Y211936D01*
Y213002D01*
X87333Y213535D01*
X76966Y261467D02*
X77499Y262000D01*
Y263067D01*
X76966Y263600D01*
X74833D01*
X74300Y263067D01*
Y262000D01*
X74833Y261467D01*
X74300Y260401D02*
Y259335D01*
Y259868D01*
X77499D01*
X76966Y260401D01*
X74300Y256136D02*
X77499D01*
X75899Y257735D01*
Y255603D01*
X114066Y261467D02*
X114599Y262000D01*
Y263067D01*
X114066Y263600D01*
X111933D01*
X111400Y263067D01*
Y262000D01*
X111933Y261467D01*
X111400Y260401D02*
Y259335D01*
Y259868D01*
X114599D01*
X114066Y260401D01*
Y257735D02*
X114599Y257202D01*
Y256136D01*
X114066Y255603D01*
X113533D01*
X112999Y256136D01*
Y256669D01*
Y256136D01*
X112466Y255603D01*
X111933D01*
X111400Y256136D01*
Y257202D01*
X111933Y257735D01*
X128366Y232667D02*
X128899Y233201D01*
Y234267D01*
X128366Y234800D01*
X126233D01*
X125700Y234267D01*
Y233201D01*
X126233Y232667D01*
X125700Y231601D02*
Y230535D01*
Y231068D01*
X128899D01*
X128366Y231601D01*
X125700Y226803D02*
Y228935D01*
X127833Y226803D01*
X128366D01*
X128899Y227336D01*
Y228402D01*
X128366Y228935D01*
X128066Y260367D02*
X128599Y260900D01*
Y261967D01*
X128066Y262500D01*
X125933D01*
X125400Y261967D01*
Y260900D01*
X125933Y260367D01*
X125400Y259301D02*
Y258235D01*
Y258768D01*
X128599D01*
X128066Y259301D01*
X125400Y256635D02*
Y255569D01*
Y256102D01*
X128599D01*
X128066Y256635D01*
X135966Y261467D02*
X136499Y262000D01*
Y263067D01*
X135966Y263600D01*
X133833D01*
X133300Y263067D01*
Y262000D01*
X133833Y261467D01*
X133300Y260401D02*
Y259335D01*
Y259868D01*
X136499D01*
X135966Y260401D01*
Y257735D02*
X136499Y257202D01*
Y256136D01*
X135966Y255603D01*
X133833D01*
X133300Y256136D01*
Y257202D01*
X133833Y257735D01*
X135966D01*
X44666Y247067D02*
X45199Y247601D01*
Y248667D01*
X44666Y249200D01*
X42533D01*
X42000Y248667D01*
Y247601D01*
X42533Y247067D01*
Y246001D02*
X42000Y245468D01*
Y244402D01*
X42533Y243868D01*
X44666D01*
X45199Y244402D01*
Y245468D01*
X44666Y246001D01*
X44133D01*
X43600Y245468D01*
Y243868D01*
X135266Y231367D02*
X135799Y231901D01*
Y232967D01*
X135266Y233500D01*
X133133D01*
X132600Y232967D01*
Y231901D01*
X133133Y231367D01*
X135266Y230301D02*
X135799Y229768D01*
Y228701D01*
X135266Y228168D01*
X134733D01*
X134200Y228701D01*
X133666Y228168D01*
X133133D01*
X132600Y228701D01*
Y229768D01*
X133133Y230301D01*
X133666D01*
X134200Y229768D01*
X134733Y230301D01*
X135266D01*
X134200Y229768D02*
Y228701D01*
X54966Y215867D02*
X55499Y216401D01*
Y217467D01*
X54966Y218000D01*
X52833D01*
X52300Y217467D01*
Y216401D01*
X52833Y215867D01*
X55499Y214801D02*
Y212668D01*
X54966D01*
X52833Y214801D01*
X52300D01*
X49666Y231267D02*
X50199Y231801D01*
Y232867D01*
X49666Y233400D01*
X47533D01*
X47000Y232867D01*
Y231801D01*
X47533Y231267D01*
X50199Y228068D02*
X49666Y229135D01*
X48599Y230201D01*
X47533D01*
X47000Y229668D01*
Y228602D01*
X47533Y228068D01*
X48066D01*
X48599Y228602D01*
Y230201D01*
X149466Y258767D02*
X149999Y259300D01*
Y260367D01*
X149466Y260900D01*
X147333D01*
X146800Y260367D01*
Y259300D01*
X147333Y258767D01*
X149999Y255568D02*
Y257701D01*
X148399D01*
X148933Y256635D01*
Y256101D01*
X148399Y255568D01*
X147333D01*
X146800Y256101D01*
Y257168D01*
X147333Y257701D01*
X164166Y233967D02*
X164699Y234501D01*
Y235567D01*
X164166Y236100D01*
X162033D01*
X161500Y235567D01*
Y234501D01*
X162033Y233967D01*
X164166Y232901D02*
X164699Y232368D01*
Y231301D01*
X164166Y230768D01*
X163633D01*
X163100Y231301D01*
Y231835D01*
Y231301D01*
X162566Y230768D01*
X162033D01*
X161500Y231301D01*
Y232368D01*
X162033Y232901D01*
X157566Y233967D02*
X158099Y234501D01*
Y235567D01*
X157566Y236100D01*
X155433D01*
X154900Y235567D01*
Y234501D01*
X155433Y233967D01*
X154900Y230768D02*
Y232901D01*
X157033Y230768D01*
X157566D01*
X158099Y231301D01*
Y232368D01*
X157566Y232901D01*
X162833Y273566D02*
X162300Y274099D01*
X161233D01*
X160700Y273566D01*
Y271433D01*
X161233Y270900D01*
X162300D01*
X162833Y271433D01*
X163899Y270900D02*
X164965D01*
X164432D01*
Y274099D01*
X163899Y273566D01*
D15*
X73100Y309391D02*
X98100D01*
Y288131D02*
Y309391D01*
X73100Y288131D02*
X98100D01*
X73100D02*
Y309391D01*
X86922Y354855D02*
X99914D01*
X86922Y337139D02*
Y354855D01*
X118418Y337139D02*
Y354855D01*
X105426D02*
X118418D01*
X90692Y14922D02*
Y22078D01*
Y222D02*
Y6015D01*
X124708Y14922D02*
Y22078D01*
Y222D02*
Y6015D01*
X112609Y25615D02*
X116981D01*
X119499Y27035D02*
Y27659D01*
X112609Y25615D02*
Y27663D01*
X102779Y25606D02*
Y27659D01*
X98422Y25606D02*
X102779D01*
X95889Y27032D02*
Y27659D01*
X90692Y222D02*
X124708Y222D01*
X113000Y183570D02*
Y204830D01*
Y183570D02*
X138000D01*
Y204830D01*
X113000D02*
X138000D01*
X107300Y288131D02*
Y309391D01*
Y288131D02*
X132300D01*
Y309391D01*
X107300D02*
X132300D01*
X104682Y343621D02*
X103682Y344621D01*
X101683D01*
X100683Y343621D01*
Y339622D01*
X101683Y338623D01*
X103682D01*
X104682Y339622D01*
X109680Y338623D02*
Y344621D01*
X106681Y341622D01*
X110680D01*
D16*
X94600Y293584D02*
Y303584D01*
X91600D02*
X94600D01*
X91600Y293584D02*
Y303584D01*
Y293584D02*
X94600D01*
X91600Y298584D02*
X94600D01*
X89600Y293584D02*
Y303584D01*
X86600D02*
X89600D01*
X86600Y293584D02*
Y303584D01*
Y293584D02*
X89600D01*
X86600Y298584D02*
X89600D01*
X84600Y293584D02*
Y303584D01*
X81600D02*
X84600D01*
X81600Y293584D02*
Y303584D01*
Y293584D02*
X84600D01*
X81600Y298584D02*
X84600D01*
X79600Y293584D02*
Y303584D01*
X76600D02*
X79600D01*
X76600Y293584D02*
Y303584D01*
Y293584D02*
X79600D01*
X76600Y298584D02*
X79600D01*
X118125Y50353D02*
X133125D01*
X118125D02*
Y63354D01*
X133125D01*
Y50353D02*
Y63354D01*
X116500Y194023D02*
X119500D01*
X116500Y189023D02*
X119500D01*
X116500D02*
Y199023D01*
X119500D01*
Y189023D02*
Y199023D01*
X121500Y194023D02*
X124500D01*
X121500Y189023D02*
X124500D01*
X121500D02*
Y199023D01*
X124500D01*
Y189023D02*
Y199023D01*
X126500Y194023D02*
X129500D01*
X126500Y189023D02*
X129500D01*
X126500D02*
Y199023D01*
X129500D01*
Y189023D02*
Y199023D01*
X131500Y194023D02*
X134500D01*
X131500Y189023D02*
X134500D01*
X131500D02*
Y199023D01*
X134500D01*
Y189023D02*
Y199023D01*
X110800Y298584D02*
X113800D01*
X110800Y293584D02*
X113800D01*
X110800D02*
Y303584D01*
X113800D01*
Y293584D02*
Y303584D01*
X115800Y298584D02*
X118800D01*
X115800Y293584D02*
X118800D01*
X115800D02*
Y303584D01*
X118800D01*
Y293584D02*
Y303584D01*
X120800Y298584D02*
X123800D01*
X120800Y293584D02*
X123800D01*
X120800D02*
Y303584D01*
X123800D01*
Y293584D02*
Y303584D01*
X125800Y298584D02*
X128800D01*
X125800Y293584D02*
X128800D01*
X125800D02*
Y303584D01*
X128800D01*
Y293584D02*
Y303584D01*
D17*
X67126Y16485D02*
X73425D01*
X67126Y28296D02*
X73425D01*
X67126Y16485D02*
Y28296D01*
X73425Y16485D02*
Y28296D01*
X140926Y27676D02*
X147225D01*
X140926Y15865D02*
X147225D01*
Y27676D01*
X140926Y15865D02*
Y27676D01*
X118068Y76164D02*
X120036D01*
Y78132D01*
X99564Y76164D02*
Y78132D01*
Y76164D02*
X101532D01*
X99564Y96636D02*
X101532D01*
X99564Y94668D02*
Y96636D01*
X118068D02*
X120036D01*
Y94668D02*
Y96636D01*
X70295Y174105D02*
X72362D01*
X70295Y172038D02*
Y174105D01*
Y149695D02*
X72362D01*
X70295D02*
Y151762D01*
X94705Y149695D02*
Y151762D01*
X92638Y149695D02*
X94705D01*
X92638Y174105D02*
X94705D01*
Y172038D02*
Y174105D01*
D18*
X133625Y59254D02*
Y63653D01*
X129125Y63753D02*
X133625D01*
X118106Y333702D02*
X121256D01*
Y330552D02*
Y333702D01*
X118106Y321891D02*
X121256D01*
Y325040D01*
X84144Y321891D02*
X87294D01*
X84144D02*
Y325040D01*
Y333702D02*
X87294D01*
X84144Y330552D02*
Y333702D01*
D19*
X142800Y209600D02*
Y213599D01*
X144799Y215598D01*
X146799Y213599D01*
Y209600D01*
Y212599D01*
X142800D01*
X148798Y209600D02*
Y215598D01*
X150797Y213599D01*
X152797Y215598D01*
Y209600D01*
X136400Y313200D02*
Y319198D01*
X139399D01*
X140399Y318198D01*
Y316199D01*
X139399Y315199D01*
X136400D01*
X142398Y313200D02*
Y319198D01*
X145397D01*
X146397Y318198D01*
Y316199D01*
X145397Y315199D01*
X142398D01*
X144397D02*
X146397Y313200D01*
X152395Y319198D02*
X148396D01*
Y313200D01*
X152395D01*
X148396Y316199D02*
X150396D01*
X43000Y318398D02*
Y314399D01*
X44999Y312400D01*
X46999Y314399D01*
Y318398D01*
X48998D02*
Y312400D01*
Y315399D01*
X52997D01*
Y318398D01*
Y312400D01*
X58995Y318398D02*
X54996D01*
Y315399D01*
X56995D01*
X54996D01*
Y312400D01*
D20*
X93100Y301084D02*
D03*
X88100D02*
D03*
X83100D02*
D03*
X78100D02*
D03*
X118000Y196523D02*
D03*
X123000D02*
D03*
X128000D02*
D03*
X133000D02*
D03*
X112300Y301084D02*
D03*
X117300D02*
D03*
X122300D02*
D03*
X127300D02*
D03*
M02*
