G04*
G04 #@! TF.GenerationSoftware,Altium Limited,Altium Designer,18.1.9 (240)*
G04*
G04 Layer_Color=2752767*
%FSLAX25Y25*%
%MOIN*%
G70*
G01*
G75*
%ADD79C,0.00200*%
%ADD80C,0.00267*%
D79*
X89892Y26125D02*
Y27725D01*
X91492D01*
Y26125D01*
X89892D01*
X124708Y9668D02*
X123908Y11268D01*
X125508D01*
X124708Y9668D01*
X90692D02*
X89892Y11268D01*
X91492D01*
X90692Y9668D01*
X119078Y24038D02*
X119478Y24438D01*
X119878D01*
X119478Y24838D01*
X119878Y25238D01*
X119478D01*
X119078Y25638D01*
X118678Y25238D01*
X118278D01*
X118678Y24838D01*
X118278Y24438D01*
X118678D01*
X119078Y24038D01*
X96322D02*
X96722Y24438D01*
X97122D01*
X96722Y24838D01*
X97122Y25238D01*
X96722D01*
X96322Y25638D01*
X95922Y25238D01*
X95522D01*
X95922Y24838D01*
X95522Y24438D01*
X95922D01*
X96322Y24038D01*
X162200Y347200D02*
X162600Y348000D01*
X162200Y348800D01*
X163000Y348400D01*
X163800Y348800D01*
X163400Y348000D01*
X163800Y347200D01*
X163000Y347600D01*
X162200Y347200D01*
X166700Y338200D02*
X167100Y339000D01*
X166700Y339800D01*
X167500Y339400D01*
X168300Y339800D01*
X167900Y339000D01*
X168300Y338200D01*
X167500Y338600D01*
X166700Y338200D01*
Y320200D02*
X167100Y321000D01*
X166700Y321800D01*
X167500Y321400D01*
X168300Y321800D01*
X167900Y321000D01*
X168300Y320200D01*
X167500Y320600D01*
X166700Y320200D01*
X162200Y311200D02*
X162600Y312000D01*
X162200Y312800D01*
X163000Y312400D01*
X163800Y312800D01*
X163400Y312000D01*
X163800Y311200D01*
X163000Y311600D01*
X162200Y311200D01*
X166700Y302200D02*
X167100Y303000D01*
X166700Y303800D01*
X167500Y303400D01*
X168300Y303800D01*
X167900Y303000D01*
X168300Y302200D01*
X167500Y302600D01*
X166700Y302200D01*
X162200Y293200D02*
X162600Y294000D01*
X162200Y294800D01*
X163000Y294400D01*
X163800Y294800D01*
X163400Y294000D01*
X163800Y293200D01*
X163000Y293600D01*
X162200Y293200D01*
X166700Y284200D02*
X167100Y285000D01*
X166700Y285800D01*
X167500Y285400D01*
X168300Y285800D01*
X167900Y285000D01*
X168300Y284200D01*
X167500Y284600D01*
X166700Y284200D01*
X162200Y275200D02*
X162600Y276000D01*
X162200Y276800D01*
X163000Y276400D01*
X163800Y276800D01*
X163400Y276000D01*
X163800Y275200D01*
X163000Y275600D01*
X162200Y275200D01*
X166700Y230200D02*
X167100Y231000D01*
X166700Y231800D01*
X167500Y231400D01*
X168300Y231800D01*
X167900Y231000D01*
X168300Y230200D01*
X167500Y230600D01*
X166700Y230200D01*
X162200Y221200D02*
X162600Y222000D01*
X162200Y222800D01*
X163000Y222400D01*
X163800Y222800D01*
X163400Y222000D01*
X163800Y221200D01*
X163000Y221600D01*
X162200Y221200D01*
X166700Y212200D02*
X167100Y213000D01*
X166700Y213800D01*
X167500Y213400D01*
X168300Y213800D01*
X167900Y213000D01*
X168300Y212200D01*
X167500Y212600D01*
X166700Y212200D01*
X162200Y203200D02*
X162600Y204000D01*
X162200Y204800D01*
X163000Y204400D01*
X163800Y204800D01*
X163400Y204000D01*
X163800Y203200D01*
X163000Y203600D01*
X162200Y203200D01*
X166700Y194200D02*
X167100Y195000D01*
X166700Y195800D01*
X167500Y195400D01*
X168300Y195800D01*
X167900Y195000D01*
X168300Y194200D01*
X167500Y194600D01*
X166700Y194200D01*
X162200Y185200D02*
X162600Y186000D01*
X162200Y186800D01*
X163000Y186400D01*
X163800Y186800D01*
X163400Y186000D01*
X163800Y185200D01*
X163000Y185600D01*
X162200Y185200D01*
X166700Y176200D02*
X167100Y177000D01*
X166700Y177800D01*
X167500Y177400D01*
X168300Y177800D01*
X167900Y177000D01*
X168300Y176200D01*
X167500Y176600D01*
X166700Y176200D01*
X162200Y167200D02*
X162600Y168000D01*
X162200Y168800D01*
X163000Y168400D01*
X163800Y168800D01*
X163400Y168000D01*
X163800Y167200D01*
X163000Y167600D01*
X162200Y167200D01*
X166700Y158200D02*
X167100Y159000D01*
X166700Y159800D01*
X167500Y159400D01*
X168300Y159800D01*
X167900Y159000D01*
X168300Y158200D01*
X167500Y158600D01*
X166700Y158200D01*
X162200Y149200D02*
X162600Y150000D01*
X162200Y150800D01*
X163000Y150400D01*
X163800Y150800D01*
X163400Y150000D01*
X163800Y149200D01*
X163000Y149600D01*
X162200Y149200D01*
X166700Y140200D02*
X167100Y141000D01*
X166700Y141800D01*
X167500Y141400D01*
X168300Y141800D01*
X167900Y141000D01*
X168300Y140200D01*
X167500Y140600D01*
X166700Y140200D01*
X162200Y131200D02*
X162600Y132000D01*
X162200Y132800D01*
X163000Y132400D01*
X163800Y132800D01*
X163400Y132000D01*
X163800Y131200D01*
X163000Y131600D01*
X162200Y131200D01*
X166700Y32200D02*
X167100Y33000D01*
X166700Y33800D01*
X167500Y33400D01*
X168300Y33800D01*
X167900Y33000D01*
X168300Y32200D01*
X167500Y32600D01*
X166700Y32200D01*
X157700Y320200D02*
X158100Y321000D01*
X157700Y321800D01*
X158500Y321400D01*
X159300Y321800D01*
X158900Y321000D01*
X159300Y320200D01*
X158500Y320600D01*
X157700Y320200D01*
X153200Y311200D02*
X153600Y312000D01*
X153200Y312800D01*
X154000Y312400D01*
X154800Y312800D01*
X154400Y312000D01*
X154800Y311200D01*
X154000Y311600D01*
X153200Y311200D01*
X157700Y302200D02*
X158100Y303000D01*
X157700Y303800D01*
X158500Y303400D01*
X159300Y303800D01*
X158900Y303000D01*
X159300Y302200D01*
X158500Y302600D01*
X157700Y302200D01*
X153200Y293200D02*
X153600Y294000D01*
X153200Y294800D01*
X154000Y294400D01*
X154800Y294800D01*
X154400Y294000D01*
X154800Y293200D01*
X154000Y293600D01*
X153200Y293200D01*
X157700Y284200D02*
X158100Y285000D01*
X157700Y285800D01*
X158500Y285400D01*
X159300Y285800D01*
X158900Y285000D01*
X159300Y284200D01*
X158500Y284600D01*
X157700Y284200D01*
X153200Y275200D02*
X153600Y276000D01*
X153200Y276800D01*
X154000Y276400D01*
X154800Y276800D01*
X154400Y276000D01*
X154800Y275200D01*
X154000Y275600D01*
X153200Y275200D01*
Y221200D02*
X153600Y222000D01*
X153200Y222800D01*
X154000Y222400D01*
X154800Y222800D01*
X154400Y222000D01*
X154800Y221200D01*
X154000Y221600D01*
X153200Y221200D01*
X157700Y212200D02*
X158100Y213000D01*
X157700Y213800D01*
X158500Y213400D01*
X159300Y213800D01*
X158900Y213000D01*
X159300Y212200D01*
X158500Y212600D01*
X157700Y212200D01*
X153200Y203200D02*
X153600Y204000D01*
X153200Y204800D01*
X154000Y204400D01*
X154800Y204800D01*
X154400Y204000D01*
X154800Y203200D01*
X154000Y203600D01*
X153200Y203200D01*
X157700Y194200D02*
X158100Y195000D01*
X157700Y195800D01*
X158500Y195400D01*
X159300Y195800D01*
X158900Y195000D01*
X159300Y194200D01*
X158500Y194600D01*
X157700Y194200D01*
X153200Y185200D02*
X153600Y186000D01*
X153200Y186800D01*
X154000Y186400D01*
X154800Y186800D01*
X154400Y186000D01*
X154800Y185200D01*
X154000Y185600D01*
X153200Y185200D01*
X157700Y176200D02*
X158100Y177000D01*
X157700Y177800D01*
X158500Y177400D01*
X159300Y177800D01*
X158900Y177000D01*
X159300Y176200D01*
X158500Y176600D01*
X157700Y176200D01*
X153200Y167200D02*
X153600Y168000D01*
X153200Y168800D01*
X154000Y168400D01*
X154800Y168800D01*
X154400Y168000D01*
X154800Y167200D01*
X154000Y167600D01*
X153200Y167200D01*
X157700Y158200D02*
X158100Y159000D01*
X157700Y159800D01*
X158500Y159400D01*
X159300Y159800D01*
X158900Y159000D01*
X159300Y158200D01*
X158500Y158600D01*
X157700Y158200D01*
Y140200D02*
X158100Y141000D01*
X157700Y141800D01*
X158500Y141400D01*
X159300Y141800D01*
X158900Y141000D01*
X159300Y140200D01*
X158500Y140600D01*
X157700Y140200D01*
Y50200D02*
X158100Y51000D01*
X157700Y51800D01*
X158500Y51400D01*
X159300Y51800D01*
X158900Y51000D01*
X159300Y50200D01*
X158500Y50600D01*
X157700Y50200D01*
X148700Y320200D02*
X149100Y321000D01*
X148700Y321800D01*
X149500Y321400D01*
X150300Y321800D01*
X149900Y321000D01*
X150300Y320200D01*
X149500Y320600D01*
X148700Y320200D01*
X144200Y311200D02*
X144600Y312000D01*
X144200Y312800D01*
X145000Y312400D01*
X145800Y312800D01*
X145400Y312000D01*
X145800Y311200D01*
X145000Y311600D01*
X144200Y311200D01*
X148700Y302200D02*
X149100Y303000D01*
X148700Y303800D01*
X149500Y303400D01*
X150300Y303800D01*
X149900Y303000D01*
X150300Y302200D01*
X149500Y302600D01*
X148700Y302200D01*
X144200Y293200D02*
X144600Y294000D01*
X144200Y294800D01*
X145000Y294400D01*
X145800Y294800D01*
X145400Y294000D01*
X145800Y293200D01*
X145000Y293600D01*
X144200Y293200D01*
X148700Y284200D02*
X149100Y285000D01*
X148700Y285800D01*
X149500Y285400D01*
X150300Y285800D01*
X149900Y285000D01*
X150300Y284200D01*
X149500Y284600D01*
X148700Y284200D01*
Y212200D02*
X149100Y213000D01*
X148700Y213800D01*
X149500Y213400D01*
X150300Y213800D01*
X149900Y213000D01*
X150300Y212200D01*
X149500Y212600D01*
X148700Y212200D01*
X144200Y203200D02*
X144600Y204000D01*
X144200Y204800D01*
X145000Y204400D01*
X145800Y204800D01*
X145400Y204000D01*
X145800Y203200D01*
X145000Y203600D01*
X144200Y203200D01*
X148700Y194200D02*
X149100Y195000D01*
X148700Y195800D01*
X149500Y195400D01*
X150300Y195800D01*
X149900Y195000D01*
X150300Y194200D01*
X149500Y194600D01*
X148700Y194200D01*
X144200Y185200D02*
X144600Y186000D01*
X144200Y186800D01*
X145000Y186400D01*
X145800Y186800D01*
X145400Y186000D01*
X145800Y185200D01*
X145000Y185600D01*
X144200Y185200D01*
X148700Y176200D02*
X149100Y177000D01*
X148700Y177800D01*
X149500Y177400D01*
X150300Y177800D01*
X149900Y177000D01*
X150300Y176200D01*
X149500Y176600D01*
X148700Y176200D01*
X144200Y167200D02*
X144600Y168000D01*
X144200Y168800D01*
X145000Y168400D01*
X145800Y168800D01*
X145400Y168000D01*
X145800Y167200D01*
X145000Y167600D01*
X144200Y167200D01*
X148700Y50200D02*
X149100Y51000D01*
X148700Y51800D01*
X149500Y51400D01*
X150300Y51800D01*
X149900Y51000D01*
X150300Y50200D01*
X149500Y50600D01*
X148700Y50200D01*
X144200Y41200D02*
X144600Y42000D01*
X144200Y42800D01*
X145000Y42400D01*
X145800Y42800D01*
X145400Y42000D01*
X145800Y41200D01*
X145000Y41600D01*
X144200Y41200D01*
X135200Y347200D02*
X135600Y348000D01*
X135200Y348800D01*
X136000Y348400D01*
X136800Y348800D01*
X136400Y348000D01*
X136800Y347200D01*
X136000Y347600D01*
X135200Y347200D01*
Y329200D02*
X135600Y330000D01*
X135200Y330800D01*
X136000Y330400D01*
X136800Y330800D01*
X136400Y330000D01*
X136800Y329200D01*
X136000Y329600D01*
X135200Y329200D01*
X139700Y320200D02*
X140100Y321000D01*
X139700Y321800D01*
X140500Y321400D01*
X141300Y321800D01*
X140900Y321000D01*
X141300Y320200D01*
X140500Y320600D01*
X139700Y320200D01*
X135200Y311200D02*
X135600Y312000D01*
X135200Y312800D01*
X136000Y312400D01*
X136800Y312800D01*
X136400Y312000D01*
X136800Y311200D01*
X136000Y311600D01*
X135200Y311200D01*
X139700Y302200D02*
X140100Y303000D01*
X139700Y303800D01*
X140500Y303400D01*
X141300Y303800D01*
X140900Y303000D01*
X141300Y302200D01*
X140500Y302600D01*
X139700Y302200D01*
X135200Y293200D02*
X135600Y294000D01*
X135200Y294800D01*
X136000Y294400D01*
X136800Y294800D01*
X136400Y294000D01*
X136800Y293200D01*
X136000Y293600D01*
X135200Y293200D01*
X139700Y194200D02*
X140100Y195000D01*
X139700Y195800D01*
X140500Y195400D01*
X141300Y195800D01*
X140900Y195000D01*
X141300Y194200D01*
X140500Y194600D01*
X139700Y194200D01*
X135200Y185200D02*
X135600Y186000D01*
X135200Y186800D01*
X136000Y186400D01*
X136800Y186800D01*
X136400Y186000D01*
X136800Y185200D01*
X136000Y185600D01*
X135200Y185200D01*
X139700Y176200D02*
X140100Y177000D01*
X139700Y177800D01*
X140500Y177400D01*
X141300Y177800D01*
X140900Y177000D01*
X141300Y176200D01*
X140500Y176600D01*
X139700Y176200D01*
X135200Y41200D02*
X135600Y42000D01*
X135200Y42800D01*
X136000Y42400D01*
X136800Y42800D01*
X136400Y42000D01*
X136800Y41200D01*
X136000Y41600D01*
X135200Y41200D01*
Y5200D02*
X135600Y6000D01*
X135200Y6800D01*
X136000Y6400D01*
X136800Y6800D01*
X136400Y6000D01*
X136800Y5200D01*
X136000Y5600D01*
X135200Y5200D01*
X126200Y347200D02*
X126600Y348000D01*
X126200Y348800D01*
X127000Y348400D01*
X127800Y348800D01*
X127400Y348000D01*
X127800Y347200D01*
X127000Y347600D01*
X126200Y347200D01*
X130700Y338200D02*
X131100Y339000D01*
X130700Y339800D01*
X131500Y339400D01*
X132300Y339800D01*
X131900Y339000D01*
X132300Y338200D01*
X131500Y338600D01*
X130700Y338200D01*
Y302200D02*
X131100Y303000D01*
X130700Y303800D01*
X131500Y303400D01*
X132300Y303800D01*
X131900Y303000D01*
X132300Y302200D01*
X131500Y302600D01*
X130700Y302200D01*
X126200Y293200D02*
X126600Y294000D01*
X126200Y294800D01*
X127000Y294400D01*
X127800Y294800D01*
X127400Y294000D01*
X127800Y293200D01*
X127000Y293600D01*
X126200Y293200D01*
X130700Y194200D02*
X131100Y195000D01*
X130700Y195800D01*
X131500Y195400D01*
X132300Y195800D01*
X131900Y195000D01*
X132300Y194200D01*
X131500Y194600D01*
X130700Y194200D01*
X126200Y185200D02*
X126600Y186000D01*
X126200Y186800D01*
X127000Y186400D01*
X127800Y186800D01*
X127400Y186000D01*
X127800Y185200D01*
X127000Y185600D01*
X126200Y185200D01*
Y149200D02*
X126600Y150000D01*
X126200Y150800D01*
X127000Y150400D01*
X127800Y150800D01*
X127400Y150000D01*
X127800Y149200D01*
X127000Y149600D01*
X126200Y149200D01*
X130700Y14200D02*
X131100Y15000D01*
X130700Y15800D01*
X131500Y15400D01*
X132300Y15800D01*
X131900Y15000D01*
X132300Y14200D01*
X131500Y14600D01*
X130700Y14200D01*
X121700Y338200D02*
X122100Y339000D01*
X121700Y339800D01*
X122500Y339400D01*
X123300Y339800D01*
X122900Y339000D01*
X123300Y338200D01*
X122500Y338600D01*
X121700Y338200D01*
Y302200D02*
X122100Y303000D01*
X121700Y303800D01*
X122500Y303400D01*
X123300Y303800D01*
X122900Y303000D01*
X123300Y302200D01*
X122500Y302600D01*
X121700Y302200D01*
X117200Y293200D02*
X117600Y294000D01*
X117200Y294800D01*
X118000Y294400D01*
X118800Y294800D01*
X118400Y294000D01*
X118800Y293200D01*
X118000Y293600D01*
X117200Y293200D01*
X121700Y194200D02*
X122100Y195000D01*
X121700Y195800D01*
X122500Y195400D01*
X123300Y195800D01*
X122900Y195000D01*
X123300Y194200D01*
X122500Y194600D01*
X121700Y194200D01*
X117200Y185200D02*
X117600Y186000D01*
X117200Y186800D01*
X118000Y186400D01*
X118800Y186800D01*
X118400Y186000D01*
X118800Y185200D01*
X118000Y185600D01*
X117200Y185200D01*
Y5200D02*
X117600Y6000D01*
X117200Y6800D01*
X118000Y6400D01*
X118800Y6800D01*
X118400Y6000D01*
X118800Y5200D01*
X118000Y5600D01*
X117200Y5200D01*
X112700Y302200D02*
X113100Y303000D01*
X112700Y303800D01*
X113500Y303400D01*
X114300Y303800D01*
X113900Y303000D01*
X114300Y302200D01*
X113500Y302600D01*
X112700Y302200D01*
X108200Y293200D02*
X108600Y294000D01*
X108200Y294800D01*
X109000Y294400D01*
X109800Y294800D01*
X109400Y294000D01*
X109800Y293200D01*
X109000Y293600D01*
X108200Y293200D01*
Y203200D02*
X108600Y204000D01*
X108200Y204800D01*
X109000Y204400D01*
X109800Y204800D01*
X109400Y204000D01*
X109800Y203200D01*
X109000Y203600D01*
X108200Y203200D01*
X112700Y194200D02*
X113100Y195000D01*
X112700Y195800D01*
X113500Y195400D01*
X114300Y195800D01*
X113900Y195000D01*
X114300Y194200D01*
X113500Y194600D01*
X112700Y194200D01*
X108200Y185200D02*
X108600Y186000D01*
X108200Y186800D01*
X109000Y186400D01*
X109800Y186800D01*
X109400Y186000D01*
X109800Y185200D01*
X109000Y185600D01*
X108200Y185200D01*
Y5200D02*
X108600Y6000D01*
X108200Y6800D01*
X109000Y6400D01*
X109800Y6800D01*
X109400Y6000D01*
X109800Y5200D01*
X109000Y5600D01*
X108200Y5200D01*
X99200Y311200D02*
X99600Y312000D01*
X99200Y312800D01*
X100000Y312400D01*
X100800Y312800D01*
X100400Y312000D01*
X100800Y311200D01*
X100000Y311600D01*
X99200Y311200D01*
X103700Y302200D02*
X104100Y303000D01*
X103700Y303800D01*
X104500Y303400D01*
X105300Y303800D01*
X104900Y303000D01*
X105300Y302200D01*
X104500Y302600D01*
X103700Y302200D01*
X99200Y293200D02*
X99600Y294000D01*
X99200Y294800D01*
X100000Y294400D01*
X100800Y294800D01*
X100400Y294000D01*
X100800Y293200D01*
X100000Y293600D01*
X99200Y293200D01*
X103700Y284200D02*
X104100Y285000D01*
X103700Y285800D01*
X104500Y285400D01*
X105300Y285800D01*
X104900Y285000D01*
X105300Y284200D01*
X104500Y284600D01*
X103700Y284200D01*
X99200Y275200D02*
X99600Y276000D01*
X99200Y276800D01*
X100000Y276400D01*
X100800Y276800D01*
X100400Y276000D01*
X100800Y275200D01*
X100000Y275600D01*
X99200Y275200D01*
X103700Y212200D02*
X104100Y213000D01*
X103700Y213800D01*
X104500Y213400D01*
X105300Y213800D01*
X104900Y213000D01*
X105300Y212200D01*
X104500Y212600D01*
X103700Y212200D01*
X99200Y203200D02*
X99600Y204000D01*
X99200Y204800D01*
X100000Y204400D01*
X100800Y204800D01*
X100400Y204000D01*
X100800Y203200D01*
X100000Y203600D01*
X99200Y203200D01*
Y5200D02*
X99600Y6000D01*
X99200Y6800D01*
X100000Y6400D01*
X100800Y6800D01*
X100400Y6000D01*
X100800Y5200D01*
X100000Y5600D01*
X99200Y5200D01*
X94700Y302200D02*
X95100Y303000D01*
X94700Y303800D01*
X95500Y303400D01*
X96300Y303800D01*
X95900Y303000D01*
X96300Y302200D01*
X95500Y302600D01*
X94700Y302200D01*
X90200Y293200D02*
X90600Y294000D01*
X90200Y294800D01*
X91000Y294400D01*
X91800Y294800D01*
X91400Y294000D01*
X91800Y293200D01*
X91000Y293600D01*
X90200Y293200D01*
X94700Y266200D02*
X95100Y267000D01*
X94700Y267800D01*
X95500Y267400D01*
X96300Y267800D01*
X95900Y267000D01*
X96300Y266200D01*
X95500Y266600D01*
X94700Y266200D01*
X90200Y257200D02*
X90600Y258000D01*
X90200Y258800D01*
X91000Y258400D01*
X91800Y258800D01*
X91400Y258000D01*
X91800Y257200D01*
X91000Y257600D01*
X90200Y257200D01*
Y221200D02*
X90600Y222000D01*
X90200Y222800D01*
X91000Y222400D01*
X91800Y222800D01*
X91400Y222000D01*
X91800Y221200D01*
X91000Y221600D01*
X90200Y221200D01*
X94700Y212200D02*
X95100Y213000D01*
X94700Y213800D01*
X95500Y213400D01*
X96300Y213800D01*
X95900Y213000D01*
X96300Y212200D01*
X95500Y212600D01*
X94700Y212200D01*
Y104200D02*
X95100Y105000D01*
X94700Y105800D01*
X95500Y105400D01*
X96300Y105800D01*
X95900Y105000D01*
X96300Y104200D01*
X95500Y104600D01*
X94700Y104200D01*
Y50200D02*
X95100Y51000D01*
X94700Y51800D01*
X95500Y51400D01*
X96300Y51800D01*
X95900Y51000D01*
X96300Y50200D01*
X95500Y50600D01*
X94700Y50200D01*
X90200Y41200D02*
X90600Y42000D01*
X90200Y42800D01*
X91000Y42400D01*
X91800Y42800D01*
X91400Y42000D01*
X91800Y41200D01*
X91000Y41600D01*
X90200Y41200D01*
X81200Y347200D02*
X81600Y348000D01*
X81200Y348800D01*
X82000Y348400D01*
X82800Y348800D01*
X82400Y348000D01*
X82800Y347200D01*
X82000Y347600D01*
X81200Y347200D01*
X85700Y302200D02*
X86100Y303000D01*
X85700Y303800D01*
X86500Y303400D01*
X87300Y303800D01*
X86900Y303000D01*
X87300Y302200D01*
X86500Y302600D01*
X85700Y302200D01*
X81200Y293200D02*
X81600Y294000D01*
X81200Y294800D01*
X82000Y294400D01*
X82800Y294800D01*
X82400Y294000D01*
X82800Y293200D01*
X82000Y293600D01*
X81200Y293200D01*
X85700Y32200D02*
X86100Y33000D01*
X85700Y33800D01*
X86500Y33400D01*
X87300Y33800D01*
X86900Y33000D01*
X87300Y32200D01*
X86500Y32600D01*
X85700Y32200D01*
X81200Y5200D02*
X81600Y6000D01*
X81200Y6800D01*
X82000Y6400D01*
X82800Y6800D01*
X82400Y6000D01*
X82800Y5200D01*
X82000Y5600D01*
X81200Y5200D01*
X72200Y347200D02*
X72600Y348000D01*
X72200Y348800D01*
X73000Y348400D01*
X73800Y348800D01*
X73400Y348000D01*
X73800Y347200D01*
X73000Y347600D01*
X72200Y347200D01*
X76700Y338200D02*
X77100Y339000D01*
X76700Y339800D01*
X77500Y339400D01*
X78300Y339800D01*
X77900Y339000D01*
X78300Y338200D01*
X77500Y338600D01*
X76700Y338200D01*
X72200Y329200D02*
X72600Y330000D01*
X72200Y330800D01*
X73000Y330400D01*
X73800Y330800D01*
X73400Y330000D01*
X73800Y329200D01*
X73000Y329600D01*
X72200Y329200D01*
X76700Y302200D02*
X77100Y303000D01*
X76700Y303800D01*
X77500Y303400D01*
X78300Y303800D01*
X77900Y303000D01*
X78300Y302200D01*
X77500Y302600D01*
X76700Y302200D01*
X72200Y293200D02*
X72600Y294000D01*
X72200Y294800D01*
X73000Y294400D01*
X73800Y294800D01*
X73400Y294000D01*
X73800Y293200D01*
X73000Y293600D01*
X72200Y293200D01*
Y5200D02*
X72600Y6000D01*
X72200Y6800D01*
X73000Y6400D01*
X73800Y6800D01*
X73400Y6000D01*
X73800Y5200D01*
X73000Y5600D01*
X72200Y5200D01*
X63200Y347200D02*
X63600Y348000D01*
X63200Y348800D01*
X64000Y348400D01*
X64800Y348800D01*
X64400Y348000D01*
X64800Y347200D01*
X64000Y347600D01*
X63200Y347200D01*
X67700Y338200D02*
X68100Y339000D01*
X67700Y339800D01*
X68500Y339400D01*
X69300Y339800D01*
X68900Y339000D01*
X69300Y338200D01*
X68500Y338600D01*
X67700Y338200D01*
Y320200D02*
X68100Y321000D01*
X67700Y321800D01*
X68500Y321400D01*
X69300Y321800D01*
X68900Y321000D01*
X69300Y320200D01*
X68500Y320600D01*
X67700Y320200D01*
X63200Y311200D02*
X63600Y312000D01*
X63200Y312800D01*
X64000Y312400D01*
X64800Y312800D01*
X64400Y312000D01*
X64800Y311200D01*
X64000Y311600D01*
X63200Y311200D01*
X67700Y302200D02*
X68100Y303000D01*
X67700Y303800D01*
X68500Y303400D01*
X69300Y303800D01*
X68900Y303000D01*
X69300Y302200D01*
X68500Y302600D01*
X67700Y302200D01*
X63200Y293200D02*
X63600Y294000D01*
X63200Y294800D01*
X64000Y294400D01*
X64800Y294800D01*
X64400Y294000D01*
X64800Y293200D01*
X64000Y293600D01*
X63200Y293200D01*
Y95200D02*
X63600Y96000D01*
X63200Y96800D01*
X64000Y96400D01*
X64800Y96800D01*
X64400Y96000D01*
X64800Y95200D01*
X64000Y95600D01*
X63200Y95200D01*
X58700Y320200D02*
X59100Y321000D01*
X58700Y321800D01*
X59500Y321400D01*
X60300Y321800D01*
X59900Y321000D01*
X60300Y320200D01*
X59500Y320600D01*
X58700Y320200D01*
X54200Y311200D02*
X54600Y312000D01*
X54200Y312800D01*
X55000Y312400D01*
X55800Y312800D01*
X55400Y312000D01*
X55800Y311200D01*
X55000Y311600D01*
X54200Y311200D01*
X58700Y302200D02*
X59100Y303000D01*
X58700Y303800D01*
X59500Y303400D01*
X60300Y303800D01*
X59900Y303000D01*
X60300Y302200D01*
X59500Y302600D01*
X58700Y302200D01*
X54200Y293200D02*
X54600Y294000D01*
X54200Y294800D01*
X55000Y294400D01*
X55800Y294800D01*
X55400Y294000D01*
X55800Y293200D01*
X55000Y293600D01*
X54200Y293200D01*
X58700Y284200D02*
X59100Y285000D01*
X58700Y285800D01*
X59500Y285400D01*
X60300Y285800D01*
X59900Y285000D01*
X60300Y284200D01*
X59500Y284600D01*
X58700Y284200D01*
X54200Y275200D02*
X54600Y276000D01*
X54200Y276800D01*
X55000Y276400D01*
X55800Y276800D01*
X55400Y276000D01*
X55800Y275200D01*
X55000Y275600D01*
X54200Y275200D01*
Y113200D02*
X54600Y114000D01*
X54200Y114800D01*
X55000Y114400D01*
X55800Y114800D01*
X55400Y114000D01*
X55800Y113200D01*
X55000Y113600D01*
X54200Y113200D01*
X58700Y104200D02*
X59100Y105000D01*
X58700Y105800D01*
X59500Y105400D01*
X60300Y105800D01*
X59900Y105000D01*
X60300Y104200D01*
X59500Y104600D01*
X58700Y104200D01*
X54200Y95200D02*
X54600Y96000D01*
X54200Y96800D01*
X55000Y96400D01*
X55800Y96800D01*
X55400Y96000D01*
X55800Y95200D01*
X55000Y95600D01*
X54200Y95200D01*
X58700Y86200D02*
X59100Y87000D01*
X58700Y87800D01*
X59500Y87400D01*
X60300Y87800D01*
X59900Y87000D01*
X60300Y86200D01*
X59500Y86600D01*
X58700Y86200D01*
Y50200D02*
X59100Y51000D01*
X58700Y51800D01*
X59500Y51400D01*
X60300Y51800D01*
X59900Y51000D01*
X60300Y50200D01*
X59500Y50600D01*
X58700Y50200D01*
X54200Y5200D02*
X54600Y6000D01*
X54200Y6800D01*
X55000Y6400D01*
X55800Y6800D01*
X55400Y6000D01*
X55800Y5200D01*
X55000Y5600D01*
X54200Y5200D01*
X49700Y320200D02*
X50100Y321000D01*
X49700Y321800D01*
X50500Y321400D01*
X51300Y321800D01*
X50900Y321000D01*
X51300Y320200D01*
X50500Y320600D01*
X49700Y320200D01*
X45200Y311200D02*
X45600Y312000D01*
X45200Y312800D01*
X46000Y312400D01*
X46800Y312800D01*
X46400Y312000D01*
X46800Y311200D01*
X46000Y311600D01*
X45200Y311200D01*
X49700Y302200D02*
X50100Y303000D01*
X49700Y303800D01*
X50500Y303400D01*
X51300Y303800D01*
X50900Y303000D01*
X51300Y302200D01*
X50500Y302600D01*
X49700Y302200D01*
X45200Y293200D02*
X45600Y294000D01*
X45200Y294800D01*
X46000Y294400D01*
X46800Y294800D01*
X46400Y294000D01*
X46800Y293200D01*
X46000Y293600D01*
X45200Y293200D01*
X49700Y284200D02*
X50100Y285000D01*
X49700Y285800D01*
X50500Y285400D01*
X51300Y285800D01*
X50900Y285000D01*
X51300Y284200D01*
X50500Y284600D01*
X49700Y284200D01*
X45200Y275200D02*
X45600Y276000D01*
X45200Y276800D01*
X46000Y276400D01*
X46800Y276800D01*
X46400Y276000D01*
X46800Y275200D01*
X46000Y275600D01*
X45200Y275200D01*
Y239200D02*
X45600Y240000D01*
X45200Y240800D01*
X46000Y240400D01*
X46800Y240800D01*
X46400Y240000D01*
X46800Y239200D01*
X46000Y239600D01*
X45200Y239200D01*
Y221200D02*
X45600Y222000D01*
X45200Y222800D01*
X46000Y222400D01*
X46800Y222800D01*
X46400Y222000D01*
X46800Y221200D01*
X46000Y221600D01*
X45200Y221200D01*
X49700Y212200D02*
X50100Y213000D01*
X49700Y213800D01*
X50500Y213400D01*
X51300Y213800D01*
X50900Y213000D01*
X51300Y212200D01*
X50500Y212600D01*
X49700Y212200D01*
X45200Y203200D02*
X45600Y204000D01*
X45200Y204800D01*
X46000Y204400D01*
X46800Y204800D01*
X46400Y204000D01*
X46800Y203200D01*
X46000Y203600D01*
X45200Y203200D01*
X49700Y194200D02*
X50100Y195000D01*
X49700Y195800D01*
X50500Y195400D01*
X51300Y195800D01*
X50900Y195000D01*
X51300Y194200D01*
X50500Y194600D01*
X49700Y194200D01*
X45200Y185200D02*
X45600Y186000D01*
X45200Y186800D01*
X46000Y186400D01*
X46800Y186800D01*
X46400Y186000D01*
X46800Y185200D01*
X46000Y185600D01*
X45200Y185200D01*
X49700Y176200D02*
X50100Y177000D01*
X49700Y177800D01*
X50500Y177400D01*
X51300Y177800D01*
X50900Y177000D01*
X51300Y176200D01*
X50500Y176600D01*
X49700Y176200D01*
Y158200D02*
X50100Y159000D01*
X49700Y159800D01*
X50500Y159400D01*
X51300Y159800D01*
X50900Y159000D01*
X51300Y158200D01*
X50500Y158600D01*
X49700Y158200D01*
X45200Y113200D02*
X45600Y114000D01*
X45200Y114800D01*
X46000Y114400D01*
X46800Y114800D01*
X46400Y114000D01*
X46800Y113200D01*
X46000Y113600D01*
X45200Y113200D01*
X49700Y104200D02*
X50100Y105000D01*
X49700Y105800D01*
X50500Y105400D01*
X51300Y105800D01*
X50900Y105000D01*
X51300Y104200D01*
X50500Y104600D01*
X49700Y104200D01*
X45200Y95200D02*
X45600Y96000D01*
X45200Y96800D01*
X46000Y96400D01*
X46800Y96800D01*
X46400Y96000D01*
X46800Y95200D01*
X46000Y95600D01*
X45200Y95200D01*
X49700Y86200D02*
X50100Y87000D01*
X49700Y87800D01*
X50500Y87400D01*
X51300Y87800D01*
X50900Y87000D01*
X51300Y86200D01*
X50500Y86600D01*
X49700Y86200D01*
Y50200D02*
X50100Y51000D01*
X49700Y51800D01*
X50500Y51400D01*
X51300Y51800D01*
X50900Y51000D01*
X51300Y50200D01*
X50500Y50600D01*
X49700Y50200D01*
X45200Y41200D02*
X45600Y42000D01*
X45200Y42800D01*
X46000Y42400D01*
X46800Y42800D01*
X46400Y42000D01*
X46800Y41200D01*
X46000Y41600D01*
X45200Y41200D01*
Y23200D02*
X45600Y24000D01*
X45200Y24800D01*
X46000Y24400D01*
X46800Y24800D01*
X46400Y24000D01*
X46800Y23200D01*
X46000Y23600D01*
X45200Y23200D01*
Y5200D02*
X45600Y6000D01*
X45200Y6800D01*
X46000Y6400D01*
X46800Y6800D01*
X46400Y6000D01*
X46800Y5200D01*
X46000Y5600D01*
X45200Y5200D01*
X40700Y320200D02*
X41100Y321000D01*
X40700Y321800D01*
X41500Y321400D01*
X42300Y321800D01*
X41900Y321000D01*
X42300Y320200D01*
X41500Y320600D01*
X40700Y320200D01*
Y302200D02*
X41100Y303000D01*
X40700Y303800D01*
X41500Y303400D01*
X42300Y303800D01*
X41900Y303000D01*
X42300Y302200D01*
X41500Y302600D01*
X40700Y302200D01*
Y284200D02*
X41100Y285000D01*
X40700Y285800D01*
X41500Y285400D01*
X42300Y285800D01*
X41900Y285000D01*
X42300Y284200D01*
X41500Y284600D01*
X40700Y284200D01*
Y266200D02*
X41100Y267000D01*
X40700Y267800D01*
X41500Y267400D01*
X42300Y267800D01*
X41900Y267000D01*
X42300Y266200D01*
X41500Y266600D01*
X40700Y266200D01*
Y122200D02*
X41100Y123000D01*
X40700Y123800D01*
X41500Y123400D01*
X42300Y123800D01*
X41900Y123000D01*
X42300Y122200D01*
X41500Y122600D01*
X40700Y122200D01*
Y104200D02*
X41100Y105000D01*
X40700Y105800D01*
X41500Y105400D01*
X42300Y105800D01*
X41900Y105000D01*
X42300Y104200D01*
X41500Y104600D01*
X40700Y104200D01*
Y86200D02*
X41100Y87000D01*
X40700Y87800D01*
X41500Y87400D01*
X42300Y87800D01*
X41900Y87000D01*
X42300Y86200D01*
X41500Y86600D01*
X40700Y86200D01*
Y50200D02*
X41100Y51000D01*
X40700Y51800D01*
X41500Y51400D01*
X42300Y51800D01*
X41900Y51000D01*
X42300Y50200D01*
X41500Y50600D01*
X40700Y50200D01*
Y32200D02*
X41100Y33000D01*
X40700Y33800D01*
X41500Y33400D01*
X42300Y33800D01*
X41900Y33000D01*
X42300Y32200D01*
X41500Y32600D01*
X40700Y32200D01*
Y14200D02*
X41100Y15000D01*
X40700Y15800D01*
X41500Y15400D01*
X42300Y15800D01*
X41900Y15000D01*
X42300Y14200D01*
X41500Y14600D01*
X40700Y14200D01*
X107031Y83500D02*
X107431Y84300D01*
X107031Y85100D01*
X107831Y84700D01*
X108631Y85100D01*
X108231Y84300D01*
X108631Y83500D01*
X107831Y83900D01*
X107031Y83500D01*
X129473Y145600D02*
X129873Y146400D01*
X129473Y147200D01*
X130273Y146800D01*
X131073Y147200D01*
X130673Y146400D01*
X131073Y145600D01*
X130273Y146000D01*
X129473Y145600D01*
X81316Y161100D02*
X81716Y161900D01*
X81316Y162700D01*
X82116Y162300D01*
X82916Y162700D01*
X82516Y161900D01*
X82916Y161100D01*
X82116Y161500D01*
X81316Y161100D01*
X44700Y225900D02*
X45100Y226700D01*
X44700Y227500D01*
X45500Y227100D01*
X46300Y227500D01*
X45900Y226700D01*
X46300Y225900D01*
X45500Y226300D01*
X44700Y225900D01*
X99500Y238400D02*
X99900Y239200D01*
X99500Y240000D01*
X100300Y239600D01*
X101100Y240000D01*
X100700Y239200D01*
X101100Y238400D01*
X100300Y238800D01*
X99500Y238400D01*
X63245Y154655D02*
X63645Y155455D01*
X63245Y156255D01*
X64045Y155855D01*
X64845Y156255D01*
X64445Y155455D01*
X64845Y154655D01*
X64045Y155055D01*
X63245Y154655D01*
X65700Y139800D02*
X66100Y140600D01*
X65700Y141400D01*
X66500Y141000D01*
X67300Y141400D01*
X66900Y140600D01*
X67300Y139800D01*
X66500Y140200D01*
X65700Y139800D01*
X125800Y103200D02*
X126200Y104000D01*
X125800Y104800D01*
X126600Y104400D01*
X127400Y104800D01*
X127000Y104000D01*
X127400Y103200D01*
X126600Y103600D01*
X125800Y103200D01*
X121542Y69800D02*
X121941Y70600D01*
X121542Y71400D01*
X122342Y71000D01*
X123142Y71400D01*
X122741Y70600D01*
X123142Y69800D01*
X122342Y70200D01*
X121542Y69800D01*
X93100Y180300D02*
X93500Y181100D01*
X93100Y181900D01*
X93900Y181500D01*
X94700Y181900D01*
X94300Y181100D01*
X94700Y180300D01*
X93900Y180700D01*
X93100Y180300D01*
X77859Y139800D02*
X78259Y140600D01*
X77859Y141400D01*
X78659Y141000D01*
X79459Y141400D01*
X79059Y140600D01*
X79459Y139800D01*
X78659Y140200D01*
X77859Y139800D01*
X44200Y146500D02*
X44600Y147300D01*
X44200Y148100D01*
X45000Y147700D01*
X45800Y148100D01*
X45400Y147300D01*
X45800Y146500D01*
X45000Y146900D01*
X44200Y146500D01*
X134500Y132700D02*
X134900Y133500D01*
X134500Y134300D01*
X135300Y133900D01*
X136100Y134300D01*
X135700Y133500D01*
X136100Y132700D01*
X135300Y133100D01*
X134500Y132700D01*
X150900Y132600D02*
X151300Y133400D01*
X150900Y134200D01*
X151700Y133800D01*
X152500Y134200D01*
X152100Y133400D01*
X152500Y132600D01*
X151700Y133000D01*
X150900Y132600D01*
X98100Y67300D02*
X98500Y68100D01*
X98100Y68900D01*
X98900Y68500D01*
X99700Y68900D01*
X99300Y68100D01*
X99700Y67300D01*
X98900Y67700D01*
X98100Y67300D01*
X72800Y45200D02*
X73200Y46000D01*
X72800Y46800D01*
X73600Y46400D01*
X74400Y46800D01*
X74000Y46000D01*
X74400Y45200D01*
X73600Y45600D01*
X72800Y45200D01*
X94000Y142400D02*
X94400Y143200D01*
X94000Y144000D01*
X94800Y143600D01*
X95600Y144000D01*
X95200Y143200D01*
X95600Y142400D01*
X94800Y142800D01*
X94000Y142400D01*
X151600Y69600D02*
Y69200D01*
X152400D01*
Y69600D01*
X152800D01*
Y70400D01*
X152400D01*
Y70800D01*
X151600D01*
Y70400D01*
X151200D01*
Y69600D01*
X151600D01*
X52900D02*
Y69200D01*
X53700D01*
Y69600D01*
X54100D01*
Y70400D01*
X53700D01*
Y70800D01*
X52900D01*
Y70400D01*
X52500D01*
Y69600D01*
X52900D01*
X151600Y336300D02*
Y335900D01*
X152400D01*
Y336300D01*
X152800D01*
Y337100D01*
X152400D01*
Y337500D01*
X151600D01*
Y337100D01*
X151200D01*
Y336300D01*
X151600D01*
X52900D02*
Y335900D01*
X53700D01*
Y336300D01*
X54100D01*
Y337100D01*
X53700D01*
Y337500D01*
X52900D01*
Y337100D01*
X52500D01*
Y336300D01*
X52900D01*
X91400Y90900D02*
X91800Y91700D01*
X91400Y92500D01*
X92200Y92100D01*
X93000Y92500D01*
X92600Y91700D01*
X93000Y90900D01*
X92200Y91300D01*
X91400Y90900D01*
X57445Y167845D02*
X57845Y168645D01*
X57445Y169445D01*
X58245Y169045D01*
X59045Y169445D01*
X58645Y168645D01*
X59045Y167845D01*
X58245Y168245D01*
X57445Y167845D01*
X60945Y170145D02*
X61345Y170945D01*
X60945Y171745D01*
X61745Y171345D01*
X62545Y171745D01*
X62145Y170945D01*
X62545Y170145D01*
X61745Y170545D01*
X60945Y170145D01*
X75600Y179500D02*
X76000Y180300D01*
X75600Y181100D01*
X76400Y180700D01*
X77200Y181100D01*
X76800Y180300D01*
X77200Y179500D01*
X76400Y179900D01*
X75600Y179500D01*
X118300Y63545D02*
X118700Y64345D01*
X118300Y65145D01*
X119100Y64745D01*
X119900Y65145D01*
X119500Y64345D01*
X119900Y63545D01*
X119100Y63945D01*
X118300Y63545D01*
X102300Y37850D02*
X102700Y38650D01*
X102300Y39450D01*
X103100Y39050D01*
X103900Y39450D01*
X103500Y38650D01*
X103900Y37850D01*
X103100Y38250D01*
X102300Y37850D01*
X111650D02*
X112050Y38650D01*
X111650Y39450D01*
X112450Y39050D01*
X113250Y39450D01*
X112850Y38650D01*
X113250Y37850D01*
X112450Y38250D01*
X111650Y37850D01*
X104300Y160000D02*
X104700Y160800D01*
X104300Y161600D01*
X105100Y161200D01*
X105900Y161600D01*
X105500Y160800D01*
X105900Y160000D01*
X105100Y160400D01*
X104300Y160000D01*
X111757Y232200D02*
X112157Y233000D01*
X111757Y233800D01*
X112557Y233400D01*
X113357Y233800D01*
X112957Y233000D01*
X113357Y232200D01*
X112557Y232600D01*
X111757Y232200D01*
X131100Y231900D02*
X131500Y232700D01*
X131100Y233500D01*
X131900Y233100D01*
X132700Y233500D01*
X132300Y232700D01*
X132700Y231900D01*
X131900Y232300D01*
X131100Y231900D01*
X131500Y161300D02*
X131900Y162100D01*
X131500Y162900D01*
X132300Y162500D01*
X133100Y162900D01*
X132700Y162100D01*
X133100Y161300D01*
X132300Y161700D01*
X131500Y161300D01*
X62600Y201900D02*
X63000Y202700D01*
X62600Y203500D01*
X63400Y203100D01*
X64200Y203500D01*
X63800Y202700D01*
X64200Y201900D01*
X63400Y202300D01*
X62600Y201900D01*
X70500Y225900D02*
X70900Y226700D01*
X70500Y227500D01*
X71300Y227100D01*
X72100Y227500D01*
X71700Y226700D01*
X72100Y225900D01*
X71300Y226300D01*
X70500Y225900D01*
X75000Y132800D02*
X75400Y133600D01*
X75000Y134400D01*
X75800Y134000D01*
X76600Y134400D01*
X76200Y133600D01*
X76600Y132800D01*
X75800Y133200D01*
X75000Y132800D01*
X104900Y137300D02*
X105300Y138100D01*
X104900Y138900D01*
X105700Y138500D01*
X106500Y138900D01*
X106100Y138100D01*
X106500Y137300D01*
X105700Y137700D01*
X104900Y137300D01*
X104925Y147600D02*
X105325Y148400D01*
X104925Y149200D01*
X105725Y148800D01*
X106525Y149200D01*
X106125Y148400D01*
X106525Y147600D01*
X105725Y148000D01*
X104925Y147600D01*
X85000Y75500D02*
X85400Y76300D01*
X85000Y77100D01*
X85800Y76700D01*
X86600Y77100D01*
X86200Y76300D01*
X86600Y75500D01*
X85800Y75900D01*
X85000Y75500D01*
X143200Y17100D02*
X143600Y17900D01*
X143200Y18700D01*
X144000Y18300D01*
X144800Y18700D01*
X144400Y17900D01*
X144800Y17100D01*
X144000Y17500D01*
X143200Y17100D01*
X92200Y95900D02*
X92600Y96700D01*
X92200Y97500D01*
X93000Y97100D01*
X93800Y97500D01*
X93400Y96700D01*
X93800Y95900D01*
X93000Y96300D01*
X92200Y95900D01*
X104000Y154400D02*
X104400Y155200D01*
X104000Y156000D01*
X104800Y155600D01*
X105600Y156000D01*
X105200Y155200D01*
X105600Y154400D01*
X104800Y154800D01*
X104000Y154400D01*
X124000Y74700D02*
X124400Y75500D01*
X124000Y76300D01*
X124800Y75900D01*
X125600Y76300D01*
X125200Y75500D01*
X125600Y74700D01*
X124800Y75100D01*
X124000Y74700D01*
X125978Y80677D02*
X126377Y81477D01*
X125978Y82278D01*
X126778Y81877D01*
X127577Y82278D01*
X127178Y81477D01*
X127577Y80677D01*
X126778Y81077D01*
X125978Y80677D01*
D80*
X125508Y26925D02*
G03*
X125508Y26925I-800J0D01*
G01*
M02*
