G04*
G04 #@! TF.GenerationSoftware,Altium Limited,Altium Designer,18.1.9 (240)*
G04*
G04 Layer_Physical_Order=2*
G04 Layer_Color=16711680*
%FSLAX25Y25*%
%MOIN*%
G70*
G01*
G75*
%ADD15C,0.01000*%
%ADD28R,0.07874X0.15748*%
%ADD70O,0.04724X0.07874*%
%ADD71O,0.04724X0.07087*%
%ADD72C,0.02953*%
%ADD73C,0.02400*%
%ADD74C,0.19685*%
G36*
X154446Y354620D02*
X156752Y354161D01*
X158978Y353405D01*
X161087Y352365D01*
X163042Y351059D01*
X164809Y349509D01*
X166359Y347742D01*
X167666Y345787D01*
X168705Y343678D01*
X169461Y341452D01*
X169920Y339146D01*
X169945Y338756D01*
X170052Y336800D01*
X170052Y336800D01*
X170052Y334800D01*
Y19400D01*
X170068Y19318D01*
X169920Y17054D01*
X169461Y14748D01*
X168705Y12522D01*
X167666Y10413D01*
X166359Y8458D01*
X164809Y6691D01*
X163042Y5141D01*
X161087Y3835D01*
X158978Y2795D01*
X156752Y2039D01*
X154446Y1580D01*
X152182Y1432D01*
X152100Y1448D01*
X53200D01*
X53118Y1432D01*
X50854Y1580D01*
X48548Y2039D01*
X46322Y2795D01*
X44213Y3835D01*
X42258Y5141D01*
X40491Y6691D01*
X38941Y8458D01*
X37635Y10413D01*
X36595Y12522D01*
X35839Y14748D01*
X35380Y17054D01*
X35232Y19318D01*
X35248Y19400D01*
Y334800D01*
X35248Y336761D01*
X35248Y336800D01*
X35355Y338756D01*
X35380Y339146D01*
X35839Y341452D01*
X36595Y343678D01*
X37635Y345787D01*
X38941Y347742D01*
X40491Y349509D01*
X42258Y351059D01*
X44213Y352365D01*
X46322Y353405D01*
X48548Y354161D01*
X50854Y354620D01*
X53118Y354768D01*
X53200Y354752D01*
X152100D01*
X152182Y354768D01*
X154446Y354620D01*
D02*
G37*
%LPC*%
G36*
X152000Y348579D02*
X150142Y348433D01*
X148329Y347998D01*
X146607Y347284D01*
X145018Y346310D01*
X143600Y345100D01*
X142390Y343682D01*
X141416Y342093D01*
X140702Y340371D01*
X140267Y338558D01*
X140121Y336700D01*
X140267Y334842D01*
X140702Y333029D01*
X141416Y331307D01*
X142390Y329718D01*
X143600Y328300D01*
X145018Y327090D01*
X146607Y326116D01*
X148329Y325402D01*
X150142Y324967D01*
X152000Y324821D01*
X153858Y324967D01*
X155671Y325402D01*
X157393Y326116D01*
X158982Y327090D01*
X160400Y328300D01*
X161610Y329718D01*
X162584Y331307D01*
X163298Y333029D01*
X163733Y334842D01*
X163879Y336700D01*
X163733Y338558D01*
X163298Y340371D01*
X162584Y342093D01*
X161610Y343682D01*
X160400Y345100D01*
X158982Y346310D01*
X157393Y347284D01*
X155671Y347998D01*
X153858Y348433D01*
X152000Y348579D01*
D02*
G37*
G36*
X53300D02*
X51442Y348433D01*
X49629Y347998D01*
X47907Y347284D01*
X46318Y346310D01*
X44900Y345100D01*
X43690Y343682D01*
X42716Y342093D01*
X42002Y340371D01*
X41567Y338558D01*
X41421Y336700D01*
X41567Y334842D01*
X42002Y333029D01*
X42716Y331307D01*
X43690Y329718D01*
X44900Y328300D01*
X46318Y327090D01*
X47907Y326116D01*
X49629Y325402D01*
X51442Y324967D01*
X53300Y324821D01*
X55158Y324967D01*
X56971Y325402D01*
X58693Y326116D01*
X60282Y327090D01*
X61700Y328300D01*
X62910Y329718D01*
X63884Y331307D01*
X64598Y333029D01*
X65033Y334842D01*
X65179Y336700D01*
X65033Y338558D01*
X64598Y340371D01*
X63884Y342093D01*
X62910Y343682D01*
X61700Y345100D01*
X60282Y346310D01*
X58693Y347284D01*
X56971Y347998D01*
X55158Y348433D01*
X53300Y348579D01*
D02*
G37*
G36*
X93900Y184328D02*
X93065Y184218D01*
X92286Y183895D01*
X91618Y183382D01*
X91208Y182849D01*
X78335D01*
X78014Y183095D01*
X77235Y183418D01*
X76400Y183528D01*
X75565Y183418D01*
X74786Y183095D01*
X74118Y182582D01*
X73605Y181914D01*
X73282Y181135D01*
X73230Y180734D01*
X66157Y173662D01*
X64027Y173227D01*
X63359Y173740D01*
X62580Y174063D01*
X61745Y174172D01*
X60909Y174063D01*
X60131Y173740D01*
X59463Y173227D01*
X58950Y172559D01*
X58644Y171820D01*
X58245Y171872D01*
X57410Y171763D01*
X56631Y171440D01*
X55963Y170927D01*
X55450Y170259D01*
X55127Y169480D01*
X55017Y168645D01*
X55127Y167809D01*
X55450Y167031D01*
X55696Y166710D01*
Y127137D01*
X53696Y126309D01*
X47549Y132456D01*
Y145365D01*
X47795Y145686D01*
X48118Y146465D01*
X48228Y147300D01*
X48118Y148135D01*
X47795Y148914D01*
X47282Y149582D01*
X46614Y150095D01*
X45835Y150418D01*
X45000Y150528D01*
X44165Y150418D01*
X43386Y150095D01*
X42718Y149582D01*
X42205Y148914D01*
X41882Y148135D01*
X41772Y147300D01*
X41882Y146465D01*
X42205Y145686D01*
X42451Y145365D01*
Y132584D01*
X42445Y132576D01*
X42251Y131600D01*
X42445Y130624D01*
X42998Y129798D01*
X99534Y73261D01*
X99107Y71961D01*
X98669Y71297D01*
X98065Y71218D01*
X97286Y70895D01*
X96618Y70382D01*
X94542Y70963D01*
X89001Y76504D01*
X88918Y77135D01*
X88595Y77914D01*
X88082Y78582D01*
X87414Y79095D01*
X86635Y79418D01*
X85800Y79528D01*
X84965Y79418D01*
X84186Y79095D01*
X83518Y78582D01*
X83005Y77914D01*
X82682Y77135D01*
X82572Y76300D01*
X82682Y75465D01*
X83005Y74686D01*
X83518Y74018D01*
X84186Y73505D01*
X84965Y73182D01*
X85135Y73160D01*
X115257Y43038D01*
X114064Y41445D01*
X113850Y41534D01*
X113285Y41768D01*
X112450Y41878D01*
X111615Y41768D01*
X110836Y41445D01*
X110515Y41199D01*
X105035D01*
X104714Y41445D01*
X103935Y41768D01*
X103100Y41878D01*
X102265Y41768D01*
X101486Y41445D01*
X100818Y40932D01*
X100305Y40264D01*
X99982Y39485D01*
X99872Y38650D01*
X99982Y37815D01*
X100305Y37036D01*
X100818Y36368D01*
X101486Y35855D01*
X102265Y35532D01*
X103100Y35422D01*
X103935Y35532D01*
X104714Y35855D01*
X105035Y36101D01*
X110515D01*
X110836Y35855D01*
X111615Y35532D01*
X112450Y35422D01*
X113285Y35532D01*
X114064Y35855D01*
X114732Y36368D01*
X115245Y37036D01*
X115568Y37815D01*
X115678Y38650D01*
X115568Y39485D01*
X115334Y40050D01*
X115245Y40264D01*
X116839Y41457D01*
X140830Y17466D01*
X140882Y17065D01*
X141205Y16286D01*
X141718Y15618D01*
X142386Y15105D01*
X143165Y14782D01*
X144000Y14672D01*
X144835Y14782D01*
X145614Y15105D01*
X146282Y15618D01*
X146795Y16286D01*
X147118Y17065D01*
X147228Y17900D01*
X147118Y18735D01*
X146795Y19514D01*
X146282Y20182D01*
X145614Y20695D01*
X144835Y21018D01*
X144434Y21070D01*
X108856Y56648D01*
X109622Y58496D01*
X121145D01*
X122120Y58690D01*
X122948Y59243D01*
X130402Y66698D01*
X130955Y67524D01*
X131149Y68500D01*
Y75700D01*
X130955Y76675D01*
X130402Y77502D01*
X129038Y78867D01*
X129060Y79195D01*
X129573Y79864D01*
X129895Y80642D01*
X130005Y81477D01*
X129895Y82313D01*
X129573Y83091D01*
X129326Y83412D01*
Y97722D01*
X131902Y100298D01*
X132455Y101125D01*
X132649Y102100D01*
Y129070D01*
X132716Y129175D01*
X134358Y130309D01*
X134649Y130358D01*
X135300Y130272D01*
X136135Y130382D01*
X136914Y130705D01*
X137235Y130951D01*
X149635D01*
X150086Y130605D01*
X150865Y130282D01*
X151700Y130172D01*
X152535Y130282D01*
X153314Y130605D01*
X153982Y131118D01*
X154495Y131786D01*
X154818Y132565D01*
X154928Y133400D01*
X154818Y134235D01*
X154495Y135014D01*
X153982Y135682D01*
X153314Y136195D01*
X152535Y136518D01*
X151700Y136628D01*
X150865Y136518D01*
X150086Y136195D01*
X149896Y136049D01*
X137235D01*
X136914Y136295D01*
X136135Y136618D01*
X135300Y136728D01*
X134465Y136618D01*
X133071Y136727D01*
X131971Y137500D01*
X131902Y137602D01*
X108270Y161234D01*
X108218Y161635D01*
X107895Y162414D01*
X107382Y163082D01*
X106714Y163595D01*
X105935Y163918D01*
X105100Y164028D01*
X104265Y163918D01*
X103486Y163595D01*
X102818Y163082D01*
X102305Y162414D01*
X101982Y161635D01*
X101872Y160800D01*
X101982Y159965D01*
X102305Y159186D01*
X102813Y158500D01*
X102518Y157482D01*
X102005Y156814D01*
X101682Y156035D01*
X101630Y155634D01*
X98498Y152502D01*
X97945Y151675D01*
X97751Y150700D01*
Y147490D01*
X97396Y147093D01*
X95751Y146270D01*
X95635Y146318D01*
X94800Y146428D01*
X93965Y146318D01*
X93186Y145995D01*
X92518Y145482D01*
X92005Y144814D01*
X91682Y144035D01*
X91630Y143634D01*
X84144Y136149D01*
X81232D01*
X80721Y138149D01*
X80941Y138318D01*
X81454Y138986D01*
X81776Y139765D01*
X81886Y140600D01*
X81776Y141435D01*
X81454Y142214D01*
X80941Y142882D01*
X80272Y143395D01*
X79494Y143718D01*
X78659Y143828D01*
X77823Y143718D01*
X77045Y143395D01*
X76724Y143149D01*
X68435D01*
X68114Y143395D01*
X67335Y143718D01*
X66594Y143815D01*
Y153520D01*
X66840Y153841D01*
X67163Y154620D01*
X67273Y155455D01*
X67163Y156290D01*
X66840Y157069D01*
X66594Y157390D01*
Y166889D01*
X76834Y177130D01*
X77235Y177182D01*
X78014Y177505D01*
X78335Y177751D01*
X93100D01*
X93752Y177881D01*
X93803Y177885D01*
X93900Y177872D01*
X94735Y177982D01*
X95514Y178305D01*
X96182Y178818D01*
X96695Y179486D01*
X97018Y180265D01*
X97128Y181100D01*
X97018Y181935D01*
X96695Y182714D01*
X96182Y183382D01*
X95514Y183895D01*
X94735Y184218D01*
X93900Y184328D01*
D02*
G37*
G36*
X152000Y81879D02*
X150142Y81733D01*
X148329Y81298D01*
X146607Y80584D01*
X145018Y79610D01*
X143600Y78400D01*
X142390Y76982D01*
X141416Y75393D01*
X140702Y73671D01*
X140267Y71858D01*
X140121Y70000D01*
X140267Y68142D01*
X140702Y66329D01*
X141416Y64607D01*
X142390Y63018D01*
X143600Y61600D01*
X145018Y60390D01*
X146607Y59416D01*
X148329Y58702D01*
X150142Y58267D01*
X152000Y58121D01*
X153858Y58267D01*
X155671Y58702D01*
X157393Y59416D01*
X158982Y60390D01*
X160400Y61600D01*
X161610Y63018D01*
X162584Y64607D01*
X163298Y66329D01*
X163733Y68142D01*
X163879Y70000D01*
X163733Y71858D01*
X163298Y73671D01*
X162584Y75393D01*
X161610Y76982D01*
X160400Y78400D01*
X158982Y79610D01*
X157393Y80584D01*
X155671Y81298D01*
X153858Y81733D01*
X152000Y81879D01*
D02*
G37*
G36*
X53300D02*
X51442Y81733D01*
X49629Y81298D01*
X47907Y80584D01*
X46318Y79610D01*
X44900Y78400D01*
X43690Y76982D01*
X42716Y75393D01*
X42002Y73671D01*
X41567Y71858D01*
X41421Y70000D01*
X41567Y68142D01*
X42002Y66329D01*
X42716Y64607D01*
X43690Y63018D01*
X44900Y61600D01*
X46318Y60390D01*
X47907Y59416D01*
X49629Y58702D01*
X51442Y58267D01*
X53300Y58121D01*
X55158Y58267D01*
X56971Y58702D01*
X58693Y59416D01*
X60282Y60390D01*
X61700Y61600D01*
X62910Y63018D01*
X63884Y64607D01*
X64598Y66329D01*
X65033Y68142D01*
X65179Y70000D01*
X65033Y71858D01*
X64598Y73671D01*
X63884Y75393D01*
X62910Y76982D01*
X61700Y78400D01*
X60282Y79610D01*
X58693Y80584D01*
X56971Y81298D01*
X55158Y81733D01*
X53300Y81879D01*
D02*
G37*
G36*
X119078Y28345D02*
X118170Y28225D01*
X117325Y27875D01*
X116599Y27318D01*
X116041Y26592D01*
X115691Y25746D01*
X115572Y24838D01*
X115691Y23931D01*
X116041Y23085D01*
X116599Y22359D01*
X117325Y21802D01*
X118170Y21452D01*
X119078Y21332D01*
X119985Y21452D01*
X120831Y21802D01*
X121557Y22359D01*
X122115Y23085D01*
X122465Y23931D01*
X122584Y24838D01*
X122465Y25746D01*
X122115Y26592D01*
X121557Y27318D01*
X120831Y27875D01*
X119985Y28225D01*
X119078Y28345D01*
D02*
G37*
G36*
X96322D02*
X95415Y28225D01*
X94569Y27875D01*
X93843Y27318D01*
X93285Y26592D01*
X92935Y25746D01*
X92816Y24838D01*
X92935Y23931D01*
X93285Y23085D01*
X93843Y22359D01*
X94569Y21802D01*
X95415Y21452D01*
X96322Y21332D01*
X97229Y21452D01*
X98075Y21802D01*
X98801Y22359D01*
X99359Y23085D01*
X99709Y23931D01*
X99828Y24838D01*
X99709Y25746D01*
X99359Y26592D01*
X98801Y27318D01*
X98075Y27875D01*
X97229Y28225D01*
X96322Y28345D01*
D02*
G37*
%LPD*%
G36*
X93676Y179921D02*
X92286Y179800D01*
X92018Y180800D01*
X92145Y180804D01*
X92259Y180814D01*
X92360Y180832D01*
X92448Y180857D01*
X92522Y180889D01*
X92584Y180928D01*
X92633Y180974D01*
X92669Y181027D01*
X92691Y181087D01*
X92701Y181155D01*
X93676Y179921D01*
D02*
G37*
G36*
X77327Y181075D02*
X77402Y181018D01*
X77483Y180967D01*
X77570Y180922D01*
X77662Y180885D01*
X77760Y180854D01*
X77864Y180831D01*
X77974Y180814D01*
X78090Y180803D01*
X78211Y180800D01*
Y179800D01*
X78090Y179797D01*
X77974Y179786D01*
X77864Y179769D01*
X77760Y179746D01*
X77662Y179715D01*
X77570Y179678D01*
X77483Y179633D01*
X77402Y179582D01*
X77327Y179525D01*
X77257Y179460D01*
Y181140D01*
X77327Y181075D01*
D02*
G37*
G36*
X76388Y179100D02*
X76293Y179097D01*
X76199Y179084D01*
X76106Y179063D01*
X76013Y179033D01*
X75921Y178994D01*
X75830Y178946D01*
X75740Y178889D01*
X75650Y178824D01*
X75561Y178749D01*
X75473Y178666D01*
X74766Y179373D01*
X74849Y179461D01*
X74924Y179550D01*
X74989Y179640D01*
X75046Y179730D01*
X75094Y179821D01*
X75133Y179913D01*
X75163Y180006D01*
X75184Y180099D01*
X75197Y180193D01*
X75200Y180288D01*
X76388Y179100D01*
D02*
G37*
G36*
X62104Y169800D02*
X62027Y169769D01*
X61959Y169728D01*
X61898Y169677D01*
X61845Y169615D01*
X61801Y169543D01*
X61765Y169460D01*
X61736Y169367D01*
X61716Y169264D01*
X61704Y169150D01*
X61700Y169026D01*
X60700Y169635D01*
X60699Y169765D01*
X60660Y170358D01*
X60647Y170425D01*
X60633Y170484D01*
X60618Y170534D01*
X62104Y169800D01*
D02*
G37*
G36*
X59020Y167718D02*
X58963Y167643D01*
X58912Y167562D01*
X58867Y167475D01*
X58830Y167383D01*
X58799Y167285D01*
X58776Y167181D01*
X58758Y167071D01*
X58748Y166955D01*
X58745Y166834D01*
X57745D01*
X57741Y166955D01*
X57731Y167071D01*
X57714Y167181D01*
X57691Y167285D01*
X57660Y167383D01*
X57622Y167475D01*
X57578Y167562D01*
X57527Y167643D01*
X57469Y167718D01*
X57405Y167788D01*
X59085D01*
X59020Y167718D01*
D02*
G37*
G36*
X106303Y160693D02*
X106316Y160599D01*
X106337Y160506D01*
X106367Y160413D01*
X106406Y160321D01*
X106454Y160230D01*
X106511Y160140D01*
X106576Y160050D01*
X106651Y159961D01*
X106734Y159873D01*
X106027Y159166D01*
X105939Y159249D01*
X105850Y159324D01*
X105760Y159389D01*
X105670Y159446D01*
X105579Y159494D01*
X105487Y159533D01*
X105394Y159563D01*
X105301Y159584D01*
X105207Y159597D01*
X105112Y159600D01*
X106300Y160788D01*
X106303Y160693D01*
D02*
G37*
G36*
X64548Y157145D02*
X64559Y157029D01*
X64575Y156920D01*
X64599Y156816D01*
X64630Y156717D01*
X64667Y156625D01*
X64711Y156538D01*
X64763Y156457D01*
X64820Y156382D01*
X64885Y156312D01*
X63205D01*
X63270Y156382D01*
X63327Y156457D01*
X63378Y156538D01*
X63423Y156625D01*
X63460Y156717D01*
X63490Y156816D01*
X63514Y156920D01*
X63531Y157029D01*
X63542Y157145D01*
X63545Y157266D01*
X64545D01*
X64548Y157145D01*
D02*
G37*
G36*
X64820Y154529D02*
X64763Y154453D01*
X64711Y154372D01*
X64667Y154286D01*
X64630Y154193D01*
X64599Y154095D01*
X64575Y153991D01*
X64559Y153881D01*
X64548Y153765D01*
X64545Y153644D01*
X63545D01*
X63542Y153765D01*
X63531Y153881D01*
X63514Y153991D01*
X63490Y154095D01*
X63460Y154193D01*
X63423Y154286D01*
X63378Y154372D01*
X63327Y154453D01*
X63270Y154529D01*
X63205Y154598D01*
X64885D01*
X64820Y154529D01*
D02*
G37*
G36*
X104788Y154000D02*
X104693Y153997D01*
X104599Y153984D01*
X104506Y153963D01*
X104413Y153933D01*
X104321Y153894D01*
X104230Y153846D01*
X104140Y153789D01*
X104050Y153724D01*
X103961Y153649D01*
X103873Y153566D01*
X103166Y154273D01*
X103249Y154361D01*
X103324Y154450D01*
X103389Y154540D01*
X103446Y154630D01*
X103494Y154721D01*
X103533Y154813D01*
X103563Y154906D01*
X103584Y154999D01*
X103597Y155093D01*
X103600Y155188D01*
X104788Y154000D01*
D02*
G37*
G36*
X106547Y147526D02*
X106481Y147458D01*
X106422Y147383D01*
X106370Y147303D01*
X106325Y147218D01*
X106287Y147126D01*
X106255Y147028D01*
X106231Y146924D01*
X106214Y146815D01*
X106203Y146699D01*
X106200Y146578D01*
X105200Y146601D01*
X105197Y146722D01*
X105187Y146838D01*
X105170Y146948D01*
X105147Y147052D01*
X105117Y147151D01*
X105080Y147244D01*
X105037Y147331D01*
X104987Y147413D01*
X104930Y147490D01*
X104867Y147561D01*
X106547Y147526D01*
D02*
G37*
G36*
X45775Y146373D02*
X45718Y146298D01*
X45667Y146217D01*
X45622Y146130D01*
X45585Y146038D01*
X45554Y145940D01*
X45531Y145836D01*
X45514Y145726D01*
X45503Y145610D01*
X45500Y145489D01*
X44500D01*
X44497Y145610D01*
X44486Y145726D01*
X44469Y145836D01*
X44446Y145940D01*
X44415Y146038D01*
X44378Y146130D01*
X44333Y146217D01*
X44282Y146298D01*
X44225Y146373D01*
X44160Y146443D01*
X45840D01*
X45775Y146373D01*
D02*
G37*
G36*
X94788Y142000D02*
X94693Y141997D01*
X94599Y141984D01*
X94506Y141963D01*
X94413Y141933D01*
X94321Y141894D01*
X94230Y141846D01*
X94140Y141789D01*
X94050Y141724D01*
X93961Y141649D01*
X93873Y141566D01*
X93166Y142273D01*
X93249Y142361D01*
X93324Y142450D01*
X93389Y142540D01*
X93446Y142630D01*
X93494Y142721D01*
X93533Y142813D01*
X93563Y142906D01*
X93584Y142999D01*
X93597Y143093D01*
X93600Y143188D01*
X94788Y142000D01*
D02*
G37*
G36*
X77802Y139760D02*
X77732Y139825D01*
X77657Y139882D01*
X77576Y139933D01*
X77489Y139978D01*
X77397Y140015D01*
X77298Y140046D01*
X77194Y140069D01*
X77084Y140086D01*
X76969Y140097D01*
X76848Y140100D01*
Y141100D01*
X76969Y141103D01*
X77084Y141114D01*
X77194Y141131D01*
X77298Y141154D01*
X77397Y141185D01*
X77489Y141222D01*
X77576Y141267D01*
X77657Y141318D01*
X77732Y141375D01*
X77802Y141440D01*
Y139760D01*
D02*
G37*
G36*
X67427Y141375D02*
X67502Y141318D01*
X67583Y141267D01*
X67670Y141222D01*
X67762Y141185D01*
X67860Y141154D01*
X67964Y141131D01*
X68074Y141114D01*
X68190Y141103D01*
X68311Y141100D01*
Y140100D01*
X68190Y140097D01*
X68074Y140086D01*
X67964Y140069D01*
X67860Y140046D01*
X67762Y140015D01*
X67670Y139978D01*
X67583Y139933D01*
X67502Y139882D01*
X67427Y139825D01*
X67357Y139760D01*
Y141440D01*
X67427Y141375D01*
D02*
G37*
G36*
X106203Y139790D02*
X106214Y139674D01*
X106231Y139564D01*
X106254Y139460D01*
X106285Y139362D01*
X106322Y139270D01*
X106367Y139183D01*
X106418Y139102D01*
X106475Y139026D01*
X106540Y138957D01*
X104860D01*
X104925Y139026D01*
X104982Y139102D01*
X105033Y139183D01*
X105078Y139270D01*
X105115Y139362D01*
X105146Y139460D01*
X105169Y139564D01*
X105186Y139674D01*
X105197Y139790D01*
X105200Y139911D01*
X106200D01*
X106203Y139790D01*
D02*
G37*
G36*
X76727Y134375D02*
X76802Y134318D01*
X76883Y134267D01*
X76970Y134222D01*
X77062Y134185D01*
X77160Y134154D01*
X77264Y134131D01*
X77374Y134114D01*
X77490Y134103D01*
X77611Y134100D01*
Y133100D01*
X77490Y133097D01*
X77374Y133086D01*
X77264Y133069D01*
X77160Y133046D01*
X77062Y133015D01*
X76970Y132978D01*
X76883Y132933D01*
X76802Y132882D01*
X76727Y132825D01*
X76657Y132760D01*
Y134440D01*
X76727Y134375D01*
D02*
G37*
G36*
X74943Y132760D02*
X74874Y132825D01*
X74798Y132882D01*
X74717Y132933D01*
X74630Y132978D01*
X74538Y133015D01*
X74440Y133046D01*
X74336Y133069D01*
X74226Y133086D01*
X74110Y133097D01*
X73989Y133100D01*
Y134100D01*
X74110Y134103D01*
X74226Y134114D01*
X74336Y134131D01*
X74440Y134154D01*
X74538Y134185D01*
X74630Y134222D01*
X74717Y134267D01*
X74798Y134318D01*
X74874Y134375D01*
X74943Y134440D01*
Y132760D01*
D02*
G37*
G36*
X136226Y134275D02*
X136302Y134218D01*
X136383Y134167D01*
X136470Y134122D01*
X136562Y134085D01*
X136660Y134054D01*
X136764Y134031D01*
X136874Y134014D01*
X136990Y134003D01*
X137111Y134000D01*
Y133000D01*
X136990Y132997D01*
X136874Y132986D01*
X136764Y132969D01*
X136660Y132946D01*
X136562Y132915D01*
X136470Y132878D01*
X136383Y132833D01*
X136302Y132782D01*
X136226Y132725D01*
X136157Y132660D01*
Y134340D01*
X136226Y134275D01*
D02*
G37*
G36*
X150776Y132634D02*
X150712Y132704D01*
X150642Y132766D01*
X150565Y132821D01*
X150482Y132868D01*
X150393Y132909D01*
X150297Y132941D01*
X150194Y132967D01*
X150085Y132985D01*
X149970Y132996D01*
X149849Y133000D01*
X149941Y134000D01*
X150062Y134003D01*
X150178Y134012D01*
X150288Y134028D01*
X150393Y134049D01*
X150494Y134077D01*
X150588Y134111D01*
X150678Y134151D01*
X150763Y134197D01*
X150842Y134250D01*
X150916Y134309D01*
X150776Y132634D01*
D02*
G37*
G36*
X97396Y139306D02*
X97751Y138910D01*
Y100000D01*
X97945Y99024D01*
X98498Y98198D01*
X120896Y75799D01*
X120774Y73738D01*
X120145Y73149D01*
X106856D01*
X93366Y86639D01*
X93317Y86923D01*
X93809Y88888D01*
X93879Y88955D01*
X94482Y89418D01*
X94995Y90086D01*
X95318Y90865D01*
X95428Y91700D01*
X95318Y92535D01*
X94995Y93314D01*
X95282Y94418D01*
X95795Y95086D01*
X96118Y95865D01*
X96228Y96700D01*
X96118Y97535D01*
X95795Y98314D01*
X95282Y98982D01*
X94614Y99495D01*
X93902Y99790D01*
X92374Y100931D01*
X92290Y102038D01*
X92237Y102738D01*
X92220Y102866D01*
X92120Y103625D01*
X91777Y104452D01*
X91774Y104456D01*
X91412Y104929D01*
X91246Y105176D01*
X91105Y105318D01*
X91105Y105318D01*
X90858Y105483D01*
X90382Y105848D01*
X90381Y105849D01*
X89554Y106192D01*
X88666Y106308D01*
X87779Y106192D01*
X87308Y105997D01*
X63749Y129556D01*
Y131633D01*
X65597Y132398D01*
X66198Y131798D01*
X67024Y131245D01*
X68000Y131051D01*
X73865D01*
X74186Y130805D01*
X74965Y130482D01*
X75800Y130372D01*
X76635Y130482D01*
X77414Y130805D01*
X77735Y131051D01*
X85200D01*
X86176Y131245D01*
X87002Y131798D01*
X95234Y140030D01*
X95635Y140082D01*
X95751Y140130D01*
X97396Y139306D01*
D02*
G37*
G36*
X126376Y102821D02*
X126284Y102833D01*
X126192Y102835D01*
X126101Y102826D01*
X126010Y102806D01*
X125919Y102775D01*
X125829Y102734D01*
X125739Y102683D01*
X125649Y102620D01*
X125560Y102547D01*
X125471Y102464D01*
X124904Y103312D01*
X124988Y103399D01*
X125134Y103575D01*
X125196Y103663D01*
X125250Y103752D01*
X125298Y103841D01*
X125338Y103930D01*
X125372Y104020D01*
X125398Y104110D01*
X125417Y104200D01*
X126376Y102821D01*
D02*
G37*
G36*
X92161Y98251D02*
X92250Y98176D01*
X92340Y98111D01*
X92430Y98054D01*
X92521Y98006D01*
X92613Y97967D01*
X92706Y97937D01*
X92799Y97916D01*
X92893Y97903D01*
X92988Y97900D01*
X91800Y96712D01*
X91797Y96807D01*
X91784Y96901D01*
X91763Y96994D01*
X91733Y97087D01*
X91694Y97179D01*
X91646Y97270D01*
X91589Y97360D01*
X91524Y97450D01*
X91449Y97539D01*
X91366Y97627D01*
X92073Y98334D01*
X92161Y98251D01*
D02*
G37*
G36*
X91149Y93146D02*
X91238Y93073D01*
X91328Y93011D01*
X91418Y92959D01*
X91508Y92919D01*
X91599Y92889D01*
X91689Y92870D01*
X91781Y92861D01*
X91872Y92863D01*
X91963Y92876D01*
X91019Y91487D01*
X90999Y91577D01*
X90972Y91666D01*
X90938Y91756D01*
X90897Y91845D01*
X90849Y91933D01*
X90794Y92022D01*
X90732Y92110D01*
X90662Y92198D01*
X90502Y92373D01*
X91059Y93230D01*
X91149Y93146D01*
D02*
G37*
G36*
X127281Y83167D02*
X127291Y83052D01*
X127308Y82942D01*
X127332Y82838D01*
X127363Y82740D01*
X127400Y82647D01*
X127444Y82560D01*
X127495Y82479D01*
X127553Y82404D01*
X127618Y82335D01*
X125937D01*
X126002Y82404D01*
X126060Y82479D01*
X126111Y82560D01*
X126155Y82647D01*
X126192Y82740D01*
X126223Y82838D01*
X126247Y82942D01*
X126264Y83052D01*
X126274Y83167D01*
X126277Y83288D01*
X127278D01*
X127281Y83167D01*
D02*
G37*
G36*
X123961Y77051D02*
X124050Y76976D01*
X124140Y76911D01*
X124230Y76854D01*
X124321Y76806D01*
X124413Y76767D01*
X124506Y76737D01*
X124599Y76716D01*
X124693Y76703D01*
X124788Y76700D01*
X123600Y75512D01*
X123597Y75607D01*
X123584Y75701D01*
X123563Y75794D01*
X123533Y75887D01*
X123494Y75979D01*
X123446Y76070D01*
X123389Y76160D01*
X123324Y76250D01*
X123249Y76339D01*
X123166Y76427D01*
X123873Y77134D01*
X123961Y77051D01*
D02*
G37*
G36*
X86983Y76053D02*
X86986Y75960D01*
X86999Y75867D01*
X87022Y75775D01*
X87055Y75684D01*
X87099Y75593D01*
X87152Y75503D01*
X87216Y75413D01*
X87289Y75323D01*
X87372Y75235D01*
X86573Y74620D01*
X86485Y74704D01*
X86308Y74847D01*
X86219Y74907D01*
X86129Y74960D01*
X86039Y75005D01*
X85947Y75042D01*
X85856Y75071D01*
X85763Y75093D01*
X85671Y75107D01*
X86990Y76147D01*
X86983Y76053D01*
D02*
G37*
G36*
X121484Y69760D02*
X121415Y69825D01*
X121340Y69882D01*
X121259Y69933D01*
X121172Y69978D01*
X121079Y70015D01*
X120981Y70046D01*
X120877Y70069D01*
X120767Y70086D01*
X120652Y70097D01*
X120531Y70100D01*
Y71100D01*
X120652Y71103D01*
X120767Y71114D01*
X120877Y71131D01*
X120981Y71154D01*
X121079Y71185D01*
X121172Y71222D01*
X121259Y71267D01*
X121340Y71318D01*
X121415Y71375D01*
X121484Y71440D01*
Y69760D01*
D02*
G37*
G36*
X100103Y67993D02*
X100116Y67899D01*
X100137Y67806D01*
X100167Y67713D01*
X100206Y67621D01*
X100254Y67530D01*
X100311Y67440D01*
X100376Y67350D01*
X100451Y67261D01*
X100534Y67173D01*
X99827Y66466D01*
X99739Y66549D01*
X99650Y66624D01*
X99560Y66689D01*
X99470Y66746D01*
X99379Y66794D01*
X99287Y66833D01*
X99194Y66863D01*
X99101Y66884D01*
X99007Y66897D01*
X98912Y66900D01*
X100100Y68088D01*
X100103Y67993D01*
D02*
G37*
G36*
X105800Y68051D02*
X120407D01*
X120728Y67805D01*
X121254Y67587D01*
X121662Y66676D01*
X121907Y65412D01*
X120089Y63594D01*
X107011D01*
X104100Y66505D01*
X104113Y66538D01*
X105279Y68155D01*
X105800Y68051D01*
D02*
G37*
G36*
X111593Y37810D02*
X111523Y37875D01*
X111448Y37932D01*
X111367Y37983D01*
X111280Y38028D01*
X111188Y38065D01*
X111090Y38096D01*
X110986Y38119D01*
X110876Y38136D01*
X110760Y38147D01*
X110639Y38150D01*
Y39150D01*
X110760Y39153D01*
X110876Y39164D01*
X110986Y39181D01*
X111090Y39204D01*
X111188Y39235D01*
X111280Y39272D01*
X111367Y39317D01*
X111448Y39368D01*
X111523Y39425D01*
X111593Y39490D01*
Y37810D01*
D02*
G37*
G36*
X104026Y39425D02*
X104102Y39368D01*
X104183Y39317D01*
X104270Y39272D01*
X104362Y39235D01*
X104460Y39204D01*
X104564Y39181D01*
X104674Y39164D01*
X104790Y39153D01*
X104911Y39150D01*
Y38150D01*
X104790Y38147D01*
X104674Y38136D01*
X104564Y38119D01*
X104460Y38096D01*
X104362Y38065D01*
X104270Y38028D01*
X104183Y37983D01*
X104102Y37932D01*
X104026Y37875D01*
X103957Y37810D01*
Y39490D01*
X104026Y39425D01*
D02*
G37*
G36*
X143161Y19451D02*
X143250Y19376D01*
X143340Y19311D01*
X143430Y19254D01*
X143521Y19206D01*
X143613Y19167D01*
X143706Y19137D01*
X143799Y19116D01*
X143893Y19103D01*
X143988Y19100D01*
X142800Y17912D01*
X142797Y18007D01*
X142784Y18101D01*
X142763Y18194D01*
X142733Y18287D01*
X142694Y18379D01*
X142646Y18470D01*
X142589Y18560D01*
X142524Y18650D01*
X142449Y18739D01*
X142366Y18827D01*
X143073Y19534D01*
X143161Y19451D01*
D02*
G37*
D15*
X90572Y99128D02*
G03*
X89299Y99128I-636J-636D01*
G01*
X87740Y98842D02*
G03*
X89013Y98842I636J636D01*
G01*
X87599Y100256D02*
G03*
X87599Y98983I636J-636D01*
G01*
X89444Y102101D02*
G03*
X89444Y103374I-636J636D01*
G01*
X89302Y103516D02*
G03*
X88030Y103516I-636J-636D01*
G01*
X86471Y103229D02*
G03*
X87744Y103229I636J636D01*
G01*
X107326Y84300D02*
X107831D01*
X97751Y93875D02*
X107326Y84300D01*
X130273Y160073D02*
X132300Y162100D01*
X130273Y146400D02*
Y160073D01*
X82116Y161900D02*
X97751Y146265D01*
X64045Y155455D02*
Y167945D01*
Y137555D02*
Y155455D01*
Y137555D02*
X68000Y133600D01*
X66500Y140600D02*
X78659D01*
X130100Y102100D02*
Y135800D01*
X126778Y98778D02*
X130100Y102100D01*
X126778Y81477D02*
Y98778D01*
X105100Y160800D02*
X130100Y135800D01*
X126300Y104000D02*
X126600D01*
X105800Y70600D02*
X122342D01*
X93100Y180300D02*
X93900Y181100D01*
X76400Y180300D02*
X93100D01*
X45000Y131800D02*
Y147300D01*
X44800Y131600D02*
X45000Y131800D01*
X135300Y133500D02*
X151600D01*
X151700Y133400D01*
X98900Y68100D02*
X105955Y61045D01*
X118853Y64592D02*
X119100Y64345D01*
X107008Y64592D02*
X118853D01*
X97700Y73900D02*
X107008Y64592D01*
X85200Y133600D02*
X94800Y143200D01*
X97751Y93875D02*
Y146265D01*
X91300Y98400D02*
X93000Y96700D01*
X61200Y128500D02*
X86400Y103300D01*
X90572Y99128D02*
X91300Y98400D01*
X89013Y98842D02*
X89299Y99128D01*
X87599Y98983D02*
X87740Y98842D01*
X87599Y100256D02*
X88521Y101179D01*
X89444Y102101D01*
X89302Y103516D02*
X89444Y103374D01*
X87744Y103229D02*
X88030Y103516D01*
X86400Y103300D02*
X86471Y103229D01*
X61200Y128500D02*
Y170400D01*
X58245Y125337D02*
X91882Y91700D01*
X92200D01*
X58245Y125337D02*
Y168645D01*
X61200Y170400D02*
X61745Y170945D01*
X64045Y167945D02*
X76400Y180300D01*
X44800Y131600D02*
X105800Y70600D01*
X103100Y38650D02*
X112450D01*
X105955Y61045D02*
X121145D01*
X123100Y100800D02*
X126300Y104000D01*
X123100Y81200D02*
Y100800D01*
X68000Y133600D02*
X75800D01*
X121145Y61045D02*
X128600Y68500D01*
X75800Y133600D02*
X85200D01*
X128600Y68500D02*
Y75700D01*
X123100Y81200D02*
X128600Y75700D01*
X105700Y148375D02*
X105725Y148400D01*
X105700Y138100D02*
Y148375D01*
X100300Y150700D02*
X104800Y155200D01*
X100300Y100000D02*
Y150700D01*
X85800Y76100D02*
Y76300D01*
Y76100D02*
X144000Y17900D01*
X100300Y100000D02*
X124800Y75500D01*
D28*
X92040Y345800D02*
D03*
X113300D02*
D03*
D70*
X90693Y26925D02*
D03*
X124708Y26925D02*
D03*
D71*
X124708Y10468D02*
D03*
X90692Y10469D02*
D03*
D72*
X119078Y24838D02*
D03*
X96322D02*
D03*
D73*
X163000Y348000D02*
D03*
X167500Y339000D02*
D03*
Y321000D02*
D03*
X163000Y312000D02*
D03*
X167500Y303000D02*
D03*
X163000Y294000D02*
D03*
X167500Y285000D02*
D03*
X163000Y276000D02*
D03*
X167500Y231000D02*
D03*
X163000Y222000D02*
D03*
X167500Y213000D02*
D03*
X163000Y204000D02*
D03*
X167500Y195000D02*
D03*
X163000Y186000D02*
D03*
X167500Y177000D02*
D03*
X163000Y168000D02*
D03*
X167500Y159000D02*
D03*
X163000Y150000D02*
D03*
X167500Y141000D02*
D03*
X163000Y132000D02*
D03*
X167500Y33000D02*
D03*
X158500Y321000D02*
D03*
X154000Y312000D02*
D03*
X158500Y303000D02*
D03*
X154000Y294000D02*
D03*
X158500Y285000D02*
D03*
X154000Y276000D02*
D03*
Y222000D02*
D03*
X158500Y213000D02*
D03*
X154000Y204000D02*
D03*
X158500Y195000D02*
D03*
X154000Y186000D02*
D03*
X158500Y177000D02*
D03*
X154000Y168000D02*
D03*
X158500Y159000D02*
D03*
Y141000D02*
D03*
Y51000D02*
D03*
X149500Y321000D02*
D03*
X145000Y312000D02*
D03*
X149500Y303000D02*
D03*
X145000Y294000D02*
D03*
X149500Y285000D02*
D03*
Y213000D02*
D03*
X145000Y204000D02*
D03*
X149500Y195000D02*
D03*
X145000Y186000D02*
D03*
X149500Y177000D02*
D03*
X145000Y168000D02*
D03*
X149500Y51000D02*
D03*
X145000Y42000D02*
D03*
X136000Y348000D02*
D03*
Y330000D02*
D03*
X140500Y321000D02*
D03*
X136000Y312000D02*
D03*
X140500Y303000D02*
D03*
X136000Y294000D02*
D03*
X140500Y195000D02*
D03*
X136000Y186000D02*
D03*
X140500Y177000D02*
D03*
X136000Y42000D02*
D03*
Y6000D02*
D03*
X127000Y348000D02*
D03*
X131500Y339000D02*
D03*
Y303000D02*
D03*
X127000Y294000D02*
D03*
X131500Y195000D02*
D03*
X127000Y186000D02*
D03*
Y150000D02*
D03*
X131500Y15000D02*
D03*
X122500Y339000D02*
D03*
Y303000D02*
D03*
X118000Y294000D02*
D03*
X122500Y195000D02*
D03*
X118000Y186000D02*
D03*
Y6000D02*
D03*
X113500Y303000D02*
D03*
X109000Y294000D02*
D03*
Y204000D02*
D03*
X113500Y195000D02*
D03*
X109000Y186000D02*
D03*
Y6000D02*
D03*
X100000Y312000D02*
D03*
X104500Y303000D02*
D03*
X100000Y294000D02*
D03*
X104500Y285000D02*
D03*
X100000Y276000D02*
D03*
X104500Y213000D02*
D03*
X100000Y204000D02*
D03*
Y6000D02*
D03*
X95500Y303000D02*
D03*
X91000Y294000D02*
D03*
X95500Y267000D02*
D03*
X91000Y258000D02*
D03*
Y222000D02*
D03*
X95500Y213000D02*
D03*
Y105000D02*
D03*
Y51000D02*
D03*
X91000Y42000D02*
D03*
X82000Y348000D02*
D03*
X86500Y303000D02*
D03*
X82000Y294000D02*
D03*
X86500Y33000D02*
D03*
X82000Y6000D02*
D03*
X73000Y348000D02*
D03*
X77500Y339000D02*
D03*
X73000Y330000D02*
D03*
X77500Y303000D02*
D03*
X73000Y294000D02*
D03*
Y6000D02*
D03*
X64000Y348000D02*
D03*
X68500Y339000D02*
D03*
Y321000D02*
D03*
X64000Y312000D02*
D03*
X68500Y303000D02*
D03*
X64000Y294000D02*
D03*
Y96000D02*
D03*
X59500Y321000D02*
D03*
X55000Y312000D02*
D03*
X59500Y303000D02*
D03*
X55000Y294000D02*
D03*
X59500Y285000D02*
D03*
X55000Y276000D02*
D03*
Y114000D02*
D03*
X59500Y105000D02*
D03*
X55000Y96000D02*
D03*
X59500Y87000D02*
D03*
Y51000D02*
D03*
X55000Y6000D02*
D03*
X50500Y321000D02*
D03*
X46000Y312000D02*
D03*
X50500Y303000D02*
D03*
X46000Y294000D02*
D03*
X50500Y285000D02*
D03*
X46000Y276000D02*
D03*
Y240000D02*
D03*
Y222000D02*
D03*
X50500Y213000D02*
D03*
X46000Y204000D02*
D03*
X50500Y195000D02*
D03*
X46000Y186000D02*
D03*
X50500Y177000D02*
D03*
Y159000D02*
D03*
X46000Y114000D02*
D03*
X50500Y105000D02*
D03*
X46000Y96000D02*
D03*
X50500Y87000D02*
D03*
Y51000D02*
D03*
X46000Y42000D02*
D03*
Y24000D02*
D03*
Y6000D02*
D03*
X41500Y321000D02*
D03*
Y303000D02*
D03*
Y285000D02*
D03*
Y267000D02*
D03*
Y123000D02*
D03*
Y105000D02*
D03*
Y87000D02*
D03*
Y51000D02*
D03*
Y33000D02*
D03*
Y15000D02*
D03*
X107831Y84300D02*
D03*
X130273Y146400D02*
D03*
X82116Y161900D02*
D03*
X45500Y226700D02*
D03*
X100300Y239200D02*
D03*
X64045Y155455D02*
D03*
X66500Y140600D02*
D03*
X126600Y104000D02*
D03*
X122342Y70600D02*
D03*
X93900Y181100D02*
D03*
X78659Y140600D02*
D03*
X45000Y147300D02*
D03*
X135300Y133500D02*
D03*
X151700Y133400D02*
D03*
X98900Y68100D02*
D03*
X73600Y46000D02*
D03*
X94800Y143200D02*
D03*
X92200Y91700D02*
D03*
X58245Y168645D02*
D03*
X61745Y170945D02*
D03*
X76400Y180300D02*
D03*
X119100Y64345D02*
D03*
X103100Y38650D02*
D03*
X112450D02*
D03*
X105100Y160800D02*
D03*
X112557Y233000D02*
D03*
X131900Y232700D02*
D03*
X132300Y162100D02*
D03*
X63400Y202700D02*
D03*
X71300Y226700D02*
D03*
X75800Y133600D02*
D03*
X105700Y138100D02*
D03*
X105725Y148400D02*
D03*
X85800Y76300D02*
D03*
X144000Y17900D02*
D03*
X93000Y96700D02*
D03*
X104800Y155200D02*
D03*
X124800Y75500D02*
D03*
X126778Y81477D02*
D03*
D74*
X152000Y70000D02*
D03*
X53300D02*
D03*
X152000Y336700D02*
D03*
X53300D02*
D03*
M02*
